STARTFONT 2.1
FONT -Misc-Fixed-Medium-R-Normal--60-580-75-75-C-290-ISO10646-1
SIZE 58 75 75
FONTBOUNDINGBOX 30 60 0 -12
COMMENT "Generated by fontforge, http://fontforge.sourceforge.net"
COMMENT "Public domain font.  Share and enjoy."
STARTPROPERTIES 32
FOUNDRY "Misc"
FAMILY_NAME "Fixed"
WEIGHT_NAME "Medium"
SLANT "R"
SETWIDTH_NAME "Normal"
ADD_STYLE_NAME ""
PIXEL_SIZE 60
POINT_SIZE 580
RESOLUTION_X 75
RESOLUTION_Y 75
SPACING "C"
AVERAGE_WIDTH 290
CHARSET_REGISTRY "ISO10646"
CHARSET_ENCODING "1"
FONTNAME_REGISTRY ""
CHARSET_COLLECTIONS "ASCII ISOLatin1Encoding ISO8859-2 ISO8859-5 ISO8859-7 ISO8859-9 ISO8859-8 ISO8859-6 ISO8859-4 ISO8859-11 ISO10646-1"
FONT_NAME "FixedMedium"
FACE_NAME "Fixed Medium"
COPYRIGHT "Public domain font.  Share and enjoy."
FONT_VERSION "001.000"
FONT_ASCENT 48
FONT_DESCENT 12
UNDERLINE_POSITION -6
UNDERLINE_THICKNESS 3
X_HEIGHT 23
CAP_HEIGHT 38
RAW_ASCENT 800
RAW_DESCENT 200
NORM_SPACE 29
FIGURE_WIDTH 29
AVG_LOWERCASE_WIDTH 290
AVG_UPPERCASE_WIDTH 290
ENDPROPERTIES
CHARS 5205
STARTCHAR char0
ENCODING 0
SWIDTH 480 0
DWIDTH 29 0
BBX 24 39 3 0
BITMAP
FF81FF
FF81FF
FF81FF
E00007
E00007
E00007
E00007
E00007
E00007
000000
000000
000000
000000
000000
000000
E00007
E00007
E00007
E00007
E00007
E00007
E00007
E00007
E00007
000000
000000
000000
000000
000000
000000
E00007
E00007
E00007
E00007
E00007
E00007
FF81FF
FF81FF
FF81FF
ENDCHAR
STARTCHAR space
ENCODING 32
SWIDTH 480 0
DWIDTH 29 0
BBX 1 1 29 -12
BITMAP
00
ENDCHAR
STARTCHAR exclam
ENCODING 33
SWIDTH 480 0
DWIDTH 29 0
BBX 6 39 12 0
BITMAP
FC
FC
FC
FC
FC
FC
FC
FC
FC
FC
FC
FC
FC
FC
FC
FC
FC
FC
FC
FC
FC
FC
FC
FC
FC
FC
FC
FC
FC
FC
00
00
00
FC
FC
FC
FC
FC
FC
ENDCHAR
STARTCHAR quotedbl
ENCODING 34
SWIDTH 480 0
DWIDTH 29 0
BBX 18 12 6 27
BITMAP
FC0FC0
FC0FC0
FC0FC0
FC0FC0
FC0FC0
FC0FC0
FC0FC0
FC0FC0
FC0FC0
1C0E00
1C0E00
1C0E00
ENDCHAR
STARTCHAR numbersign
ENCODING 35
SWIDTH 480 0
DWIDTH 29 0
BBX 27 33 3 3
BITMAP
007E3F00
007E3F00
007E3F00
007E3F00
007E3F00
007E3F00
007E3F00
007E3F00
007E3F00
1FFFFFE0
1FFFFFE0
1FFFFFE0
03F1F800
03F1F800
03F1F800
03F1F800
03F1F800
03F1F800
03F1F800
03F1F800
03F1F800
FFFFFF00
FFFFFF00
FFFFFF00
1F8FC000
1F8FC000
1F8FC000
1F8FC000
1F8FC000
1F8FC000
1F8FC000
1F8FC000
1F8FC000
ENDCHAR
STARTCHAR dollar
ENCODING 36
SWIDTH 480 0
DWIDTH 29 0
BBX 24 39 3 0
BITMAP
007E00
007E00
007E00
1FFFF8
1FFFF8
1FFFF8
FC7E3F
FC7E3F
FC7E3F
FC7E00
FC7E00
FC7E00
FC7E00
FC7E00
FC7E00
FC7E00
FC7E00
FC7E00
1FFFF8
1FFFF8
1FFFF8
007E3F
007E3F
007E3F
007E3F
007E3F
007E3F
007E3F
007E3F
007E3F
FC7E3F
FC7E3F
FC7E3F
1FFFF8
1FFFF8
1FFFF8
007E00
007E00
007E00
ENDCHAR
STARTCHAR percent
ENCODING 37
SWIDTH 480 0
DWIDTH 29 0
BBX 27 36 3 0
BITMAP
1FF03F00
1FF03F00
1FF03F00
FC7E3F00
FC7E3F00
FC7E3F00
FC7FF800
FC7FF800
FC7FF800
1FF1F800
1FF1F800
1FF1F800
000FC000
000FC000
000FC000
000FC000
000FC000
000FC000
007E0000
007E0000
007E0000
007E0000
007E0000
007E0000
03F1FF00
03F1FF00
03F1FF00
03FFC7E0
03FFC7E0
03FFC7E0
1F8FC7E0
1F8FC7E0
1F8FC7E0
1F81FF00
1F81FF00
1F81FF00
ENDCHAR
STARTCHAR ampersand
ENCODING 38
SWIDTH 480 0
DWIDTH 29 0
BBX 27 39 3 0
BITMAP
03FE0000
03FE0000
03FE0000
1F8FC000
1F8FC000
1F8FC000
1F8FC000
1F8FC000
1F8FC000
1F8FC000
1F8FC000
1F8FC000
1FFE0000
1FFE0000
1FFE0000
03F00000
03F00000
03F00000
1FF00000
1FF00000
1FF00000
FC7E0000
FC7E0000
FC7E0000
FC0FC7E0
FC0FC7E0
FC0FC7E0
FC01FF00
FC01FF00
FC01FF00
FC01F800
FC01F800
FC01F800
FF8FFF00
FF8FFF00
FF8FFF00
1FFE07E0
1FFE07E0
1FFE07E0
ENDCHAR
STARTCHAR quotesingle
ENCODING 39
SWIDTH 480 0
DWIDTH 29 0
BBX 6 15 12 24
BITMAP
FC
FC
FC
FC
FC
FC
FC
FC
FC
FC
FC
FC
E0
E0
E0
ENDCHAR
STARTCHAR parenleft
ENCODING 40
SWIDTH 480 0
DWIDTH 29 0
BBX 15 39 9 0
BITMAP
007E
007E
007E
03F0
03F0
03F0
1F80
1F80
1F80
1F80
1F80
1F80
FC00
FC00
FC00
FC00
FC00
FC00
FC00
FC00
FC00
FC00
FC00
FC00
FC00
FC00
FC00
1F80
1F80
1F80
1F80
1F80
1F80
03F0
03F0
03F0
007E
007E
007E
ENDCHAR
STARTCHAR parenright
ENCODING 41
SWIDTH 480 0
DWIDTH 29 0
BBX 15 39 6 0
BITMAP
FC00
FC00
FC00
1F80
1F80
1F80
03F0
03F0
03F0
03F0
03F0
03F0
007E
007E
007E
007E
007E
007E
007E
007E
007E
007E
007E
007E
007E
007E
007E
03F0
03F0
03F0
03F0
03F0
03F0
1F80
1F80
1F80
FC00
FC00
FC00
ENDCHAR
STARTCHAR asterisk
ENCODING 42
SWIDTH 480 0
DWIDTH 29 0
BBX 24 21 3 9
BITMAP
1F81F8
1F81F8
1F81F8
1F81F8
1F81F8
1F81F8
03FFC0
03FFC0
03FFC0
FFFFFF
FFFFFF
FFFFFF
03FFC0
03FFC0
03FFC0
1F81F8
1F81F8
1F81F8
1F81F8
1F81F8
1F81F8
ENDCHAR
STARTCHAR plus
ENCODING 43
SWIDTH 480 0
DWIDTH 29 0
BBX 24 21 3 9
BITMAP
007E00
007E00
007E00
007E00
007E00
007E00
007E00
007E00
007E00
FFFFFF
FFFFFF
FFFFFF
007E00
007E00
007E00
007E00
007E00
007E00
007E00
007E00
007E00
ENDCHAR
STARTCHAR comma
ENCODING 44
SWIDTH 480 0
DWIDTH 29 0
BBX 12 9 9 -3
BITMAP
1FF0
1FF0
1FF0
1FF0
1FF0
1FF0
FF80
FF80
FF80
ENDCHAR
STARTCHAR hyphen
ENCODING 45
SWIDTH 480 0
DWIDTH 29 0
BBX 24 3 3 18
BITMAP
FFFFFF
FFFFFF
FFFFFF
ENDCHAR
STARTCHAR period
ENCODING 46
SWIDTH 480 0
DWIDTH 29 0
BBX 9 9 12 0
BITMAP
FF80
FF80
FF80
FF80
FF80
FF80
FF80
FF80
FF80
ENDCHAR
STARTCHAR slash
ENCODING 47
SWIDTH 480 0
DWIDTH 29 0
BBX 21 36 6 0
BITMAP
0001F8
0001F8
0001F8
0001F8
0001F8
0001F8
000FC0
000FC0
000FC0
000FC0
000FC0
000FC0
007E00
007E00
007E00
007E00
007E00
007E00
03F000
03F000
03F000
03F000
03F000
03F000
1F8000
1F8000
1F8000
1F8000
1F8000
1F8000
FC0000
FC0000
FC0000
FC0000
FC0000
FC0000
ENDCHAR
STARTCHAR zero
ENCODING 48
SWIDTH 480 0
DWIDTH 29 0
BBX 24 39 3 0
BITMAP
007E00
007E00
007E00
03FFC0
03FFC0
03FFC0
1F81F8
1F81F8
1F81F8
1F81F8
1F81F8
1F81F8
FC003F
FC003F
FC003F
FC003F
FC003F
FC003F
FC003F
FC003F
FC003F
FC003F
FC003F
FC003F
FC003F
FC003F
FC003F
1F81F8
1F81F8
1F81F8
1F81F8
1F81F8
1F81F8
03FFC0
03FFC0
03FFC0
007E00
007E00
007E00
ENDCHAR
STARTCHAR one
ENCODING 49
SWIDTH 480 0
DWIDTH 29 0
BBX 24 39 3 0
BITMAP
007E00
007E00
007E00
03FE00
03FE00
03FE00
1FFE00
1FFE00
1FFE00
FC7E00
FC7E00
FC7E00
007E00
007E00
007E00
007E00
007E00
007E00
007E00
007E00
007E00
007E00
007E00
007E00
007E00
007E00
007E00
007E00
007E00
007E00
007E00
007E00
007E00
007E00
007E00
007E00
FFFFFF
FFFFFF
FFFFFF
ENDCHAR
STARTCHAR two
ENCODING 50
SWIDTH 480 0
DWIDTH 29 0
BBX 24 39 3 0
BITMAP
03FFC0
03FFC0
03FFC0
1F81F8
1F81F8
1F81F8
FC003F
FC003F
FC003F
FC003F
FC003F
FC003F
00003F
00003F
00003F
00003F
00003F
00003F
0001F8
0001F8
0001F8
007FC0
007FC0
007FC0
03F000
03F000
03F000
1F8000
1F8000
1F8000
FC0000
FC0000
FC0000
FC0000
FC0000
FC0000
FFFFFF
FFFFFF
FFFFFF
ENDCHAR
STARTCHAR three
ENCODING 51
SWIDTH 480 0
DWIDTH 29 0
BBX 24 39 3 0
BITMAP
03FFC0
03FFC0
03FFC0
1F81F8
1F81F8
1F81F8
FC003F
FC003F
FC003F
FC003F
FC003F
FC003F
00003F
00003F
00003F
0001F8
0001F8
0001F8
007FC0
007FC0
007FC0
0001F8
0001F8
0001F8
00003F
00003F
00003F
FC003F
FC003F
FC003F
FC003F
FC003F
FC003F
1F81F8
1F81F8
1F81F8
03FFC0
03FFC0
03FFC0
ENDCHAR
STARTCHAR four
ENCODING 52
SWIDTH 480 0
DWIDTH 29 0
BBX 24 39 3 0
BITMAP
000038
000038
000038
0001F8
0001F8
0001F8
000FF8
000FF8
000FF8
007FF8
007FF8
007FF8
03F1F8
03F1F8
03F1F8
1F81F8
1F81F8
1F81F8
FC01F8
FC01F8
FC01F8
FC01F8
FC01F8
FC01F8
FFFFFF
FFFFFF
FFFFFF
0001F8
0001F8
0001F8
0001F8
0001F8
0001F8
0001F8
0001F8
0001F8
0001F8
0001F8
0001F8
ENDCHAR
STARTCHAR five
ENCODING 53
SWIDTH 480 0
DWIDTH 29 0
BBX 24 39 3 0
BITMAP
FFFFFF
FFFFFF
FFFFFF
FC0000
FC0000
FC0000
FC0000
FC0000
FC0000
FC0000
FC0000
FC0000
FC0000
FC0000
FC0000
FC7FC0
FC7FC0
FC7FC0
FF81F8
FF81F8
FF81F8
00003F
00003F
00003F
00003F
00003F
00003F
00003F
00003F
00003F
FC003F
FC003F
FC003F
1F81F8
1F81F8
1F81F8
03FFC0
03FFC0
03FFC0
ENDCHAR
STARTCHAR six
ENCODING 54
SWIDTH 480 0
DWIDTH 29 0
BBX 24 39 3 0
BITMAP
03FFC0
03FFC0
03FFC0
1F81F8
1F81F8
1F81F8
FC0038
FC0038
FC0038
FC0000
FC0000
FC0000
FC0000
FC0000
FC0000
FC7FC0
FC7FC0
FC7FC0
FF81F8
FF81F8
FF81F8
FC003F
FC003F
FC003F
FC003F
FC003F
FC003F
FC003F
FC003F
FC003F
FC003F
FC003F
FC003F
1F81F8
1F81F8
1F81F8
03FFC0
03FFC0
03FFC0
ENDCHAR
STARTCHAR seven
ENCODING 55
SWIDTH 480 0
DWIDTH 29 0
BBX 24 39 3 0
BITMAP
FFFFFF
FFFFFF
FFFFFF
00003F
00003F
00003F
00003F
00003F
00003F
0001F8
0001F8
0001F8
0001F8
0001F8
0001F8
000FC0
000FC0
000FC0
000FC0
000FC0
000FC0
007E00
007E00
007E00
007E00
007E00
007E00
03F000
03F000
03F000
03F000
03F000
03F000
1F8000
1F8000
1F8000
1F8000
1F8000
1F8000
ENDCHAR
STARTCHAR eight
ENCODING 56
SWIDTH 480 0
DWIDTH 29 0
BBX 24 39 3 0
BITMAP
03FFC0
03FFC0
03FFC0
1F81F8
1F81F8
1F81F8
FC003F
FC003F
FC003F
FC003F
FC003F
FC003F
FC003F
FC003F
FC003F
1F81F8
1F81F8
1F81F8
03FFC0
03FFC0
03FFC0
1F81F8
1F81F8
1F81F8
FC003F
FC003F
FC003F
FC003F
FC003F
FC003F
FC003F
FC003F
FC003F
1F81F8
1F81F8
1F81F8
03FFC0
03FFC0
03FFC0
ENDCHAR
STARTCHAR nine
ENCODING 57
SWIDTH 480 0
DWIDTH 29 0
BBX 24 39 3 0
BITMAP
03FFC0
03FFC0
03FFC0
1F81F8
1F81F8
1F81F8
FC003F
FC003F
FC003F
FC003F
FC003F
FC003F
FC003F
FC003F
FC003F
FC003F
FC003F
FC003F
1F81FF
1F81FF
1F81FF
03FE3F
03FE3F
03FE3F
00003F
00003F
00003F
00003F
00003F
00003F
1C003F
1C003F
1C003F
1F81F8
1F81F8
1F81F8
03FFC0
03FFC0
03FFC0
ENDCHAR
STARTCHAR colon
ENCODING 58
SWIDTH 480 0
DWIDTH 29 0
BBX 9 24 12 0
BITMAP
FF80
FF80
FF80
FF80
FF80
FF80
0000
0000
0000
0000
0000
0000
0000
0000
0000
0000
0000
0000
FF80
FF80
FF80
FF80
FF80
FF80
ENDCHAR
STARTCHAR semicolon
ENCODING 59
SWIDTH 480 0
DWIDTH 29 0
BBX 12 27 9 -3
BITMAP
1FF0
1FF0
1FF0
1FF0
1FF0
1FF0
0000
0000
0000
0000
0000
0000
0000
0000
0000
0000
0000
0000
1FF0
1FF0
1FF0
1FF0
1FF0
1FF0
FF80
FF80
FF80
ENDCHAR
STARTCHAR less
ENCODING 60
SWIDTH 480 0
DWIDTH 29 0
BBX 21 39 3 0
BITMAP
000038
000038
000038
0001F8
0001F8
0001F8
000FC0
000FC0
000FC0
007E00
007E00
007E00
03F000
03F000
03F000
1F8000
1F8000
1F8000
FC0000
FC0000
FC0000
1F8000
1F8000
1F8000
03F000
03F000
03F000
007E00
007E00
007E00
000FC0
000FC0
000FC0
0001F8
0001F8
0001F8
000038
000038
000038
ENDCHAR
STARTCHAR equal
ENCODING 61
SWIDTH 480 0
DWIDTH 29 0
BBX 24 18 3 9
BITMAP
FFFFFF
FFFFFF
FFFFFF
000000
000000
000000
000000
000000
000000
000000
000000
000000
000000
000000
000000
FFFFFF
FFFFFF
FFFFFF
ENDCHAR
STARTCHAR greater
ENCODING 62
SWIDTH 480 0
DWIDTH 29 0
BBX 21 39 6 0
BITMAP
E00000
E00000
E00000
FC0000
FC0000
FC0000
1F8000
1F8000
1F8000
03F000
03F000
03F000
007E00
007E00
007E00
000FC0
000FC0
000FC0
0001F8
0001F8
0001F8
000FC0
000FC0
000FC0
007E00
007E00
007E00
03F000
03F000
03F000
1F8000
1F8000
1F8000
FC0000
FC0000
FC0000
E00000
E00000
E00000
ENDCHAR
STARTCHAR question
ENCODING 63
SWIDTH 480 0
DWIDTH 29 0
BBX 24 39 3 0
BITMAP
03FFC0
03FFC0
03FFC0
1F81F8
1F81F8
1F81F8
FC003F
FC003F
FC003F
FC003F
FC003F
FC003F
FC003F
FC003F
FC003F
0001F8
0001F8
0001F8
000FC0
000FC0
000FC0
007E00
007E00
007E00
007E00
007E00
007E00
007E00
007E00
007E00
000000
000000
000000
007E00
007E00
007E00
007E00
007E00
007E00
ENDCHAR
STARTCHAR at
ENCODING 64
SWIDTH 480 0
DWIDTH 29 0
BBX 24 39 3 0
BITMAP
03FFC0
03FFC0
03FFC0
1F81F8
1F81F8
1F81F8
FC003F
FC003F
FC003F
FC0FFF
FC0FFF
FC0FFF
FC7FFF
FC7FFF
FC7FFF
FC7E3F
FC7E3F
FC7E3F
FC7E3F
FC7E3F
FC7E3F
FC7E3F
FC7E3F
FC7E3F
FC7FF8
FC7FF8
FC7FF8
FC0FC0
FC0FC0
FC0FC0
FC0000
FC0000
FC0000
1F803F
1F803F
1F803F
03FFF8
03FFF8
03FFF8
ENDCHAR
STARTCHAR A
ENCODING 65
SWIDTH 480 0
DWIDTH 29 0
BBX 24 39 3 0
BITMAP
007E00
007E00
007E00
03FFC0
03FFC0
03FFC0
1F81F8
1F81F8
1F81F8
1F81F8
1F81F8
1F81F8
FC003F
FC003F
FC003F
FC003F
FC003F
FC003F
FC003F
FC003F
FC003F
FFFFFF
FFFFFF
FFFFFF
FC003F
FC003F
FC003F
FC003F
FC003F
FC003F
FC003F
FC003F
FC003F
FC003F
FC003F
FC003F
FC003F
FC003F
FC003F
ENDCHAR
STARTCHAR B
ENCODING 66
SWIDTH 480 0
DWIDTH 29 0
BBX 24 39 3 0
BITMAP
FFFE00
FFFE00
FFFE00
FC0FC0
FC0FC0
FC0FC0
FC01F8
FC01F8
FC01F8
FC01F8
FC01F8
FC01F8
FC01F8
FC01F8
FC01F8
FC0FC0
FC0FC0
FC0FC0
FFFFC0
FFFFC0
FFFFC0
FC01F8
FC01F8
FC01F8
FC003F
FC003F
FC003F
FC003F
FC003F
FC003F
FC003F
FC003F
FC003F
FC01F8
FC01F8
FC01F8
FFFFC0
FFFFC0
FFFFC0
ENDCHAR
STARTCHAR C
ENCODING 67
SWIDTH 480 0
DWIDTH 29 0
BBX 24 39 3 0
BITMAP
03FFC0
03FFC0
03FFC0
1F81F8
1F81F8
1F81F8
FC003F
FC003F
FC003F
FC0000
FC0000
FC0000
FC0000
FC0000
FC0000
FC0000
FC0000
FC0000
FC0000
FC0000
FC0000
FC0000
FC0000
FC0000
FC0000
FC0000
FC0000
FC0000
FC0000
FC0000
FC003F
FC003F
FC003F
1F81F8
1F81F8
1F81F8
03FFC0
03FFC0
03FFC0
ENDCHAR
STARTCHAR D
ENCODING 68
SWIDTH 480 0
DWIDTH 29 0
BBX 24 39 3 0
BITMAP
FFFFC0
FFFFC0
FFFFC0
FC01F8
FC01F8
FC01F8
FC003F
FC003F
FC003F
FC003F
FC003F
FC003F
FC003F
FC003F
FC003F
FC003F
FC003F
FC003F
FC003F
FC003F
FC003F
FC003F
FC003F
FC003F
FC003F
FC003F
FC003F
FC003F
FC003F
FC003F
FC003F
FC003F
FC003F
FC01F8
FC01F8
FC01F8
FFFFC0
FFFFC0
FFFFC0
ENDCHAR
STARTCHAR E
ENCODING 69
SWIDTH 480 0
DWIDTH 29 0
BBX 24 39 3 0
BITMAP
FFFFFF
FFFFFF
FFFFFF
FC0000
FC0000
FC0000
FC0000
FC0000
FC0000
FC0000
FC0000
FC0000
FC0000
FC0000
FC0000
FC0000
FC0000
FC0000
FFFFC0
FFFFC0
FFFFC0
FC0000
FC0000
FC0000
FC0000
FC0000
FC0000
FC0000
FC0000
FC0000
FC0000
FC0000
FC0000
FC0000
FC0000
FC0000
FFFFFF
FFFFFF
FFFFFF
ENDCHAR
STARTCHAR F
ENCODING 70
SWIDTH 480 0
DWIDTH 29 0
BBX 24 39 3 0
BITMAP
FFFFFF
FFFFFF
FFFFFF
FC0000
FC0000
FC0000
FC0000
FC0000
FC0000
FC0000
FC0000
FC0000
FC0000
FC0000
FC0000
FC0000
FC0000
FC0000
FFFFC0
FFFFC0
FFFFC0
FC0000
FC0000
FC0000
FC0000
FC0000
FC0000
FC0000
FC0000
FC0000
FC0000
FC0000
FC0000
FC0000
FC0000
FC0000
FC0000
FC0000
FC0000
ENDCHAR
STARTCHAR G
ENCODING 71
SWIDTH 480 0
DWIDTH 29 0
BBX 24 39 3 0
BITMAP
03FFC0
03FFC0
03FFC0
1F81F8
1F81F8
1F81F8
FC003F
FC003F
FC003F
FC0000
FC0000
FC0000
FC0000
FC0000
FC0000
FC0000
FC0000
FC0000
FC0FFF
FC0FFF
FC0FFF
FC003F
FC003F
FC003F
FC003F
FC003F
FC003F
FC003F
FC003F
FC003F
FC003F
FC003F
FC003F
1F81FF
1F81FF
1F81FF
03FFC7
03FFC7
03FFC7
ENDCHAR
STARTCHAR H
ENCODING 72
SWIDTH 480 0
DWIDTH 29 0
BBX 24 39 3 0
BITMAP
FC003F
FC003F
FC003F
FC003F
FC003F
FC003F
FC003F
FC003F
FC003F
FC003F
FC003F
FC003F
FC003F
FC003F
FC003F
FC003F
FC003F
FC003F
FFFFFF
FFFFFF
FFFFFF
FC003F
FC003F
FC003F
FC003F
FC003F
FC003F
FC003F
FC003F
FC003F
FC003F
FC003F
FC003F
FC003F
FC003F
FC003F
FC003F
FC003F
FC003F
ENDCHAR
STARTCHAR I
ENCODING 73
SWIDTH 480 0
DWIDTH 29 0
BBX 24 39 3 0
BITMAP
FFFFFF
FFFFFF
FFFFFF
007E00
007E00
007E00
007E00
007E00
007E00
007E00
007E00
007E00
007E00
007E00
007E00
007E00
007E00
007E00
007E00
007E00
007E00
007E00
007E00
007E00
007E00
007E00
007E00
007E00
007E00
007E00
007E00
007E00
007E00
007E00
007E00
007E00
FFFFFF
FFFFFF
FFFFFF
ENDCHAR
STARTCHAR J
ENCODING 74
SWIDTH 480 0
DWIDTH 29 0
BBX 27 39 3 0
BITMAP
007FFFE0
007FFFE0
007FFFE0
0001F800
0001F800
0001F800
0001F800
0001F800
0001F800
0001F800
0001F800
0001F800
0001F800
0001F800
0001F800
0001F800
0001F800
0001F800
0001F800
0001F800
0001F800
0001F800
0001F800
0001F800
0001F800
0001F800
0001F800
FC01F800
FC01F800
FC01F800
FC01F800
FC01F800
FC01F800
1F8FC000
1F8FC000
1F8FC000
03FE0000
03FE0000
03FE0000
ENDCHAR
STARTCHAR K
ENCODING 75
SWIDTH 480 0
DWIDTH 29 0
BBX 24 39 3 0
BITMAP
FC003F
FC003F
FC003F
FC003F
FC003F
FC003F
FC01F8
FC01F8
FC01F8
FC01F8
FC01F8
FC01F8
FC0FC0
FC0FC0
FC0FC0
FC0FC0
FC0FC0
FC0FC0
FFFE00
FFFE00
FFFE00
FC0FC0
FC0FC0
FC0FC0
FC0FC0
FC0FC0
FC0FC0
FC01F8
FC01F8
FC01F8
FC01F8
FC01F8
FC01F8
FC003F
FC003F
FC003F
FC003F
FC003F
FC003F
ENDCHAR
STARTCHAR L
ENCODING 76
SWIDTH 480 0
DWIDTH 29 0
BBX 24 39 3 0
BITMAP
FC0000
FC0000
FC0000
FC0000
FC0000
FC0000
FC0000
FC0000
FC0000
FC0000
FC0000
FC0000
FC0000
FC0000
FC0000
FC0000
FC0000
FC0000
FC0000
FC0000
FC0000
FC0000
FC0000
FC0000
FC0000
FC0000
FC0000
FC0000
FC0000
FC0000
FC0000
FC0000
FC0000
FC0000
FC0000
FC0000
FFFFFF
FFFFFF
FFFFFF
ENDCHAR
STARTCHAR M
ENCODING 77
SWIDTH 480 0
DWIDTH 29 0
BBX 24 39 3 0
BITMAP
FC003F
FC003F
FC003F
FC003F
FC003F
FC003F
FF81FF
FF81FF
FF81FF
FF81FF
FF81FF
FF81FF
FFFFFF
FFFFFF
FFFFFF
FC7E3F
FC7E3F
FC7E3F
FC7E3F
FC7E3F
FC7E3F
FC7E3F
FC7E3F
FC7E3F
FC7E3F
FC7E3F
FC7E3F
FC003F
FC003F
FC003F
FC003F
FC003F
FC003F
FC003F
FC003F
FC003F
FC003F
FC003F
FC003F
ENDCHAR
STARTCHAR N
ENCODING 78
SWIDTH 480 0
DWIDTH 29 0
BBX 24 39 3 0
BITMAP
FC003F
FC003F
FC003F
FF803F
FF803F
FF803F
FF803F
FF803F
FF803F
FFF03F
FFF03F
FFF03F
FFF03F
FFF03F
FFF03F
FC7E3F
FC7E3F
FC7E3F
FC7E3F
FC7E3F
FC7E3F
FC0FFF
FC0FFF
FC0FFF
FC0FFF
FC0FFF
FC0FFF
FC01FF
FC01FF
FC01FF
FC01FF
FC01FF
FC01FF
FC003F
FC003F
FC003F
FC003F
FC003F
FC003F
ENDCHAR
STARTCHAR O
ENCODING 79
SWIDTH 480 0
DWIDTH 29 0
BBX 24 39 3 0
BITMAP
03FFC0
03FFC0
03FFC0
1F81F8
1F81F8
1F81F8
FC003F
FC003F
FC003F
FC003F
FC003F
FC003F
FC003F
FC003F
FC003F
FC003F
FC003F
FC003F
FC003F
FC003F
FC003F
FC003F
FC003F
FC003F
FC003F
FC003F
FC003F
FC003F
FC003F
FC003F
FC003F
FC003F
FC003F
1F81F8
1F81F8
1F81F8
03FFC0
03FFC0
03FFC0
ENDCHAR
STARTCHAR P
ENCODING 80
SWIDTH 480 0
DWIDTH 29 0
BBX 24 39 3 0
BITMAP
FFFFC0
FFFFC0
FFFFC0
FC01F8
FC01F8
FC01F8
FC003F
FC003F
FC003F
FC003F
FC003F
FC003F
FC003F
FC003F
FC003F
FC003F
FC003F
FC003F
FC01F8
FC01F8
FC01F8
FFFFC0
FFFFC0
FFFFC0
FC0000
FC0000
FC0000
FC0000
FC0000
FC0000
FC0000
FC0000
FC0000
FC0000
FC0000
FC0000
FC0000
FC0000
FC0000
ENDCHAR
STARTCHAR Q
ENCODING 81
SWIDTH 480 0
DWIDTH 29 0
BBX 24 42 3 -3
BITMAP
03FFC0
03FFC0
03FFC0
1F81F8
1F81F8
1F81F8
FC003F
FC003F
FC003F
FC003F
FC003F
FC003F
FC003F
FC003F
FC003F
FC003F
FC003F
FC003F
FC003F
FC003F
FC003F
FC003F
FC003F
FC003F
FC003F
FC003F
FC003F
FC7E3F
FC7E3F
FC7E3F
FC0FFF
FC0FFF
FC0FFF
1F81F8
1F81F8
1F81F8
03FFF8
03FFF8
03FFF8
00003F
00003F
00003F
ENDCHAR
STARTCHAR R
ENCODING 82
SWIDTH 480 0
DWIDTH 29 0
BBX 24 39 3 0
BITMAP
FFFFC0
FFFFC0
FFFFC0
FC01F8
FC01F8
FC01F8
FC003F
FC003F
FC003F
FC003F
FC003F
FC003F
FC003F
FC003F
FC003F
FC003F
FC003F
FC003F
FC01F8
FC01F8
FC01F8
FFFFC0
FFFFC0
FFFFC0
FC0FC0
FC0FC0
FC0FC0
FC01F8
FC01F8
FC01F8
FC01F8
FC01F8
FC01F8
FC003F
FC003F
FC003F
FC003F
FC003F
FC003F
ENDCHAR
STARTCHAR S
ENCODING 83
SWIDTH 480 0
DWIDTH 29 0
BBX 24 39 3 0
BITMAP
03FFC0
03FFC0
03FFC0
1F81F8
1F81F8
1F81F8
FC003F
FC003F
FC003F
FC0000
FC0000
FC0000
FC0000
FC0000
FC0000
1F8000
1F8000
1F8000
03FFC0
03FFC0
03FFC0
0001F8
0001F8
0001F8
00003F
00003F
00003F
00003F
00003F
00003F
FC003F
FC003F
FC003F
1F81F8
1F81F8
1F81F8
03FFC0
03FFC0
03FFC0
ENDCHAR
STARTCHAR T
ENCODING 84
SWIDTH 480 0
DWIDTH 29 0
BBX 24 39 3 0
BITMAP
FFFFFF
FFFFFF
FFFFFF
007E00
007E00
007E00
007E00
007E00
007E00
007E00
007E00
007E00
007E00
007E00
007E00
007E00
007E00
007E00
007E00
007E00
007E00
007E00
007E00
007E00
007E00
007E00
007E00
007E00
007E00
007E00
007E00
007E00
007E00
007E00
007E00
007E00
007E00
007E00
007E00
ENDCHAR
STARTCHAR U
ENCODING 85
SWIDTH 480 0
DWIDTH 29 0
BBX 24 39 3 0
BITMAP
FC003F
FC003F
FC003F
FC003F
FC003F
FC003F
FC003F
FC003F
FC003F
FC003F
FC003F
FC003F
FC003F
FC003F
FC003F
FC003F
FC003F
FC003F
FC003F
FC003F
FC003F
FC003F
FC003F
FC003F
FC003F
FC003F
FC003F
FC003F
FC003F
FC003F
FC003F
FC003F
FC003F
1F81F8
1F81F8
1F81F8
03FFC0
03FFC0
03FFC0
ENDCHAR
STARTCHAR V
ENCODING 86
SWIDTH 480 0
DWIDTH 29 0
BBX 24 39 3 0
BITMAP
FC003F
FC003F
FC003F
FC003F
FC003F
FC003F
FC003F
FC003F
FC003F
FC003F
FC003F
FC003F
1F81F8
1F81F8
1F81F8
1F81F8
1F81F8
1F81F8
1F81F8
1F81F8
1F81F8
03FFC0
03FFC0
03FFC0
03FFC0
03FFC0
03FFC0
03FFC0
03FFC0
03FFC0
007E00
007E00
007E00
007E00
007E00
007E00
007E00
007E00
007E00
ENDCHAR
STARTCHAR W
ENCODING 87
SWIDTH 480 0
DWIDTH 29 0
BBX 24 39 3 0
BITMAP
FC003F
FC003F
FC003F
FC003F
FC003F
FC003F
FC003F
FC003F
FC003F
FC003F
FC003F
FC003F
FC003F
FC003F
FC003F
FC7E3F
FC7E3F
FC7E3F
FC7E3F
FC7E3F
FC7E3F
FC7E3F
FC7E3F
FC7E3F
FC7E3F
FC7E3F
FC7E3F
FF81FF
FF81FF
FF81FF
FF81FF
FF81FF
FF81FF
FC003F
FC003F
FC003F
FC003F
FC003F
FC003F
ENDCHAR
STARTCHAR X
ENCODING 88
SWIDTH 480 0
DWIDTH 29 0
BBX 24 39 3 0
BITMAP
FC003F
FC003F
FC003F
FC003F
FC003F
FC003F
1F81F8
1F81F8
1F81F8
1F81F8
1F81F8
1F81F8
03FFC0
03FFC0
03FFC0
03FFC0
03FFC0
03FFC0
007E00
007E00
007E00
03FFC0
03FFC0
03FFC0
03FFC0
03FFC0
03FFC0
1F81F8
1F81F8
1F81F8
1F81F8
1F81F8
1F81F8
FC003F
FC003F
FC003F
FC003F
FC003F
FC003F
ENDCHAR
STARTCHAR Y
ENCODING 89
SWIDTH 480 0
DWIDTH 29 0
BBX 24 39 3 0
BITMAP
FC003F
FC003F
FC003F
FC003F
FC003F
FC003F
1F81F8
1F81F8
1F81F8
1F81F8
1F81F8
1F81F8
03FFC0
03FFC0
03FFC0
03FFC0
03FFC0
03FFC0
007E00
007E00
007E00
007E00
007E00
007E00
007E00
007E00
007E00
007E00
007E00
007E00
007E00
007E00
007E00
007E00
007E00
007E00
007E00
007E00
007E00
ENDCHAR
STARTCHAR Z
ENCODING 90
SWIDTH 480 0
DWIDTH 29 0
BBX 24 39 3 0
BITMAP
FFFFFF
FFFFFF
FFFFFF
00003F
00003F
00003F
00003F
00003F
00003F
0001F8
0001F8
0001F8
000FC0
000FC0
000FC0
000FC0
000FC0
000FC0
007E00
007E00
007E00
03F000
03F000
03F000
03F000
03F000
03F000
1F8000
1F8000
1F8000
FC0000
FC0000
FC0000
FC0000
FC0000
FC0000
FFFFFF
FFFFFF
FFFFFF
ENDCHAR
STARTCHAR bracketleft
ENCODING 91
SWIDTH 480 0
DWIDTH 29 0
BBX 18 39 6 0
BITMAP
FFFFC0
FFFFC0
FFFFC0
FC0000
FC0000
FC0000
FC0000
FC0000
FC0000
FC0000
FC0000
FC0000
FC0000
FC0000
FC0000
FC0000
FC0000
FC0000
FC0000
FC0000
FC0000
FC0000
FC0000
FC0000
FC0000
FC0000
FC0000
FC0000
FC0000
FC0000
FC0000
FC0000
FC0000
FC0000
FC0000
FC0000
FFFFC0
FFFFC0
FFFFC0
ENDCHAR
STARTCHAR backslash
ENCODING 92
SWIDTH 480 0
DWIDTH 29 0
BBX 21 36 6 0
BITMAP
FC0000
FC0000
FC0000
FC0000
FC0000
FC0000
1F8000
1F8000
1F8000
1F8000
1F8000
1F8000
03F000
03F000
03F000
03F000
03F000
03F000
007E00
007E00
007E00
007E00
007E00
007E00
000FC0
000FC0
000FC0
000FC0
000FC0
000FC0
0001F8
0001F8
0001F8
0001F8
0001F8
0001F8
ENDCHAR
STARTCHAR bracketright
ENCODING 93
SWIDTH 480 0
DWIDTH 29 0
BBX 18 39 6 0
BITMAP
FFFFC0
FFFFC0
FFFFC0
000FC0
000FC0
000FC0
000FC0
000FC0
000FC0
000FC0
000FC0
000FC0
000FC0
000FC0
000FC0
000FC0
000FC0
000FC0
000FC0
000FC0
000FC0
000FC0
000FC0
000FC0
000FC0
000FC0
000FC0
000FC0
000FC0
000FC0
000FC0
000FC0
000FC0
000FC0
000FC0
000FC0
FFFFC0
FFFFC0
FFFFC0
ENDCHAR
STARTCHAR asciicircum
ENCODING 94
SWIDTH 480 0
DWIDTH 29 0
BBX 24 12 3 27
BITMAP
007E00
007E00
007E00
03FFC0
03FFC0
03FFC0
1F81F8
1F81F8
1F81F8
FC003F
FC003F
FC003F
ENDCHAR
STARTCHAR underscore
ENCODING 95
SWIDTH 480 0
DWIDTH 29 0
BBX 27 3 3 -3
BITMAP
FFFFFFE0
FFFFFFE0
FFFFFFE0
ENDCHAR
STARTCHAR grave
ENCODING 96
SWIDTH 480 0
DWIDTH 29 0
BBX 12 9 9 30
BITMAP
FC00
FC00
FC00
1F80
1F80
1F80
03F0
03F0
03F0
ENDCHAR
STARTCHAR a
ENCODING 97
SWIDTH 480 0
DWIDTH 29 0
BBX 24 24 3 0
BITMAP
03FFF8
03FFF8
03FFF8
1F803F
1F803F
1F803F
00003F
00003F
00003F
1FFFFF
1FFFFF
1FFFFF
FC003F
FC003F
FC003F
FC003F
FC003F
FC003F
FC003F
FC003F
FC003F
1FFFC7
1FFFC7
1FFFC7
ENDCHAR
STARTCHAR b
ENCODING 98
SWIDTH 480 0
DWIDTH 29 0
BBX 24 39 3 0
BITMAP
FC0000
FC0000
FC0000
FC0000
FC0000
FC0000
FC0000
FC0000
FC0000
FC0000
FC0000
FC0000
FC0000
FC0000
FC0000
FC7FC0
FC7FC0
FC7FC0
FF81F8
FF81F8
FF81F8
FC003F
FC003F
FC003F
FC003F
FC003F
FC003F
FC003F
FC003F
FC003F
FC003F
FC003F
FC003F
FF81F8
FF81F8
FF81F8
FC7FC0
FC7FC0
FC7FC0
ENDCHAR
STARTCHAR c
ENCODING 99
SWIDTH 480 0
DWIDTH 29 0
BBX 24 24 3 0
BITMAP
03FFF8
03FFF8
03FFF8
1F803F
1F803F
1F803F
FC0000
FC0000
FC0000
FC0000
FC0000
FC0000
FC0000
FC0000
FC0000
FC0000
FC0000
FC0000
1F803F
1F803F
1F803F
03FFF8
03FFF8
03FFF8
ENDCHAR
STARTCHAR d
ENCODING 100
SWIDTH 480 0
DWIDTH 29 0
BBX 24 39 3 0
BITMAP
00003F
00003F
00003F
00003F
00003F
00003F
00003F
00003F
00003F
00003F
00003F
00003F
00003F
00003F
00003F
03FE3F
03FE3F
03FE3F
1F81FF
1F81FF
1F81FF
FC003F
FC003F
FC003F
FC003F
FC003F
FC003F
FC003F
FC003F
FC003F
FC003F
FC003F
FC003F
1F81FF
1F81FF
1F81FF
03FE3F
03FE3F
03FE3F
ENDCHAR
STARTCHAR e
ENCODING 101
SWIDTH 480 0
DWIDTH 29 0
BBX 24 24 3 0
BITMAP
03FFC0
03FFC0
03FFC0
1F81F8
1F81F8
1F81F8
FC003F
FC003F
FC003F
FFFFFF
FFFFFF
FFFFFF
FC0000
FC0000
FC0000
FC0000
FC0000
FC0000
1F803F
1F803F
1F803F
03FFF8
03FFF8
03FFF8
ENDCHAR
STARTCHAR f
ENCODING 102
SWIDTH 480 0
DWIDTH 29 0
BBX 24 39 3 0
BITMAP
007FF8
007FF8
007FF8
03F03F
03F03F
03F03F
03F03F
03F03F
03F03F
03F000
03F000
03F000
03F000
03F000
03F000
FFFFC0
FFFFC0
FFFFC0
03F000
03F000
03F000
03F000
03F000
03F000
03F000
03F000
03F000
03F000
03F000
03F000
03F000
03F000
03F000
03F000
03F000
03F000
03F000
03F000
03F000
ENDCHAR
STARTCHAR g
ENCODING 103
SWIDTH 480 0
DWIDTH 29 0
BBX 24 36 3 -12
BITMAP
1FFFC7
1FFFC7
1FFFC7
FC01FF
FC01FF
FC01FF
FC01F8
FC01F8
FC01F8
FC01F8
FC01F8
FC01F8
FC01F8
FC01F8
FC01F8
1FFFC0
1FFFC0
1FFFC0
FC0000
FC0000
FC0000
1FFFF8
1FFFF8
1FFFF8
FC003F
FC003F
FC003F
FC003F
FC003F
FC003F
FC003F
FC003F
FC003F
1FFFF8
1FFFF8
1FFFF8
ENDCHAR
STARTCHAR h
ENCODING 104
SWIDTH 480 0
DWIDTH 29 0
BBX 24 39 3 0
BITMAP
FC0000
FC0000
FC0000
FC0000
FC0000
FC0000
FC0000
FC0000
FC0000
FC0000
FC0000
FC0000
FC0000
FC0000
FC0000
FC7FC0
FC7FC0
FC7FC0
FF81F8
FF81F8
FF81F8
FC003F
FC003F
FC003F
FC003F
FC003F
FC003F
FC003F
FC003F
FC003F
FC003F
FC003F
FC003F
FC003F
FC003F
FC003F
FC003F
FC003F
FC003F
ENDCHAR
STARTCHAR i
ENCODING 105
SWIDTH 480 0
DWIDTH 29 0
BBX 24 33 3 0
BITMAP
007E00
007E00
007E00
007E00
007E00
007E00
000000
000000
000000
1FFE00
1FFE00
1FFE00
007E00
007E00
007E00
007E00
007E00
007E00
007E00
007E00
007E00
007E00
007E00
007E00
007E00
007E00
007E00
007E00
007E00
007E00
FFFFFF
FFFFFF
FFFFFF
ENDCHAR
STARTCHAR j
ENCODING 106
SWIDTH 480 0
DWIDTH 29 0
BBX 21 45 6 -12
BITMAP
0001F8
0001F8
0001F8
0001F8
0001F8
0001F8
000000
000000
000000
007FF8
007FF8
007FF8
0001F8
0001F8
0001F8
0001F8
0001F8
0001F8
0001F8
0001F8
0001F8
0001F8
0001F8
0001F8
0001F8
0001F8
0001F8
0001F8
0001F8
0001F8
0001F8
0001F8
0001F8
FC01F8
FC01F8
FC01F8
FC01F8
FC01F8
FC01F8
FC01F8
FC01F8
FC01F8
1FFFC0
1FFFC0
1FFFC0
ENDCHAR
STARTCHAR k
ENCODING 107
SWIDTH 480 0
DWIDTH 29 0
BBX 24 39 3 0
BITMAP
FC0000
FC0000
FC0000
FC0000
FC0000
FC0000
FC0000
FC0000
FC0000
FC0000
FC0000
FC0000
FC0000
FC0000
FC0000
FC01F8
FC01F8
FC01F8
FC0FC0
FC0FC0
FC0FC0
FC7E00
FC7E00
FC7E00
FFF000
FFF000
FFF000
FFFE00
FFFE00
FFFE00
FC0FC0
FC0FC0
FC0FC0
FC01F8
FC01F8
FC01F8
FC003F
FC003F
FC003F
ENDCHAR
STARTCHAR l
ENCODING 108
SWIDTH 480 0
DWIDTH 29 0
BBX 24 39 3 0
BITMAP
1FFE00
1FFE00
1FFE00
007E00
007E00
007E00
007E00
007E00
007E00
007E00
007E00
007E00
007E00
007E00
007E00
007E00
007E00
007E00
007E00
007E00
007E00
007E00
007E00
007E00
007E00
007E00
007E00
007E00
007E00
007E00
007E00
007E00
007E00
007E00
007E00
007E00
FFFFFF
FFFFFF
FFFFFF
ENDCHAR
STARTCHAR m
ENCODING 109
SWIDTH 480 0
DWIDTH 29 0
BBX 24 24 3 0
BITMAP
E3F1F8
E3F1F8
E3F1F8
FFFFFF
FFFFFF
FFFFFF
FC7E3F
FC7E3F
FC7E3F
FC7E3F
FC7E3F
FC7E3F
FC7E3F
FC7E3F
FC7E3F
FC7E3F
FC7E3F
FC7E3F
FC7E3F
FC7E3F
FC7E3F
FC7E3F
FC7E3F
FC7E3F
ENDCHAR
STARTCHAR n
ENCODING 110
SWIDTH 480 0
DWIDTH 29 0
BBX 24 24 3 0
BITMAP
FC7FC0
FC7FC0
FC7FC0
FF81F8
FF81F8
FF81F8
FC003F
FC003F
FC003F
FC003F
FC003F
FC003F
FC003F
FC003F
FC003F
FC003F
FC003F
FC003F
FC003F
FC003F
FC003F
FC003F
FC003F
FC003F
ENDCHAR
STARTCHAR o
ENCODING 111
SWIDTH 480 0
DWIDTH 29 0
BBX 24 24 3 0
BITMAP
03FFC0
03FFC0
03FFC0
1F81F8
1F81F8
1F81F8
FC003F
FC003F
FC003F
FC003F
FC003F
FC003F
FC003F
FC003F
FC003F
FC003F
FC003F
FC003F
1F81F8
1F81F8
1F81F8
03FFC0
03FFC0
03FFC0
ENDCHAR
STARTCHAR p
ENCODING 112
SWIDTH 480 0
DWIDTH 29 0
BBX 24 36 3 -12
BITMAP
FC7FC0
FC7FC0
FC7FC0
FF81F8
FF81F8
FF81F8
FC003F
FC003F
FC003F
FC003F
FC003F
FC003F
FC003F
FC003F
FC003F
FC003F
FC003F
FC003F
FF81F8
FF81F8
FF81F8
FC7FC0
FC7FC0
FC7FC0
FC0000
FC0000
FC0000
FC0000
FC0000
FC0000
FC0000
FC0000
FC0000
FC0000
FC0000
FC0000
ENDCHAR
STARTCHAR q
ENCODING 113
SWIDTH 480 0
DWIDTH 29 0
BBX 24 36 3 -12
BITMAP
03FE3F
03FE3F
03FE3F
1F81FF
1F81FF
1F81FF
FC003F
FC003F
FC003F
FC003F
FC003F
FC003F
FC003F
FC003F
FC003F
FC003F
FC003F
FC003F
1F81FF
1F81FF
1F81FF
03FE3F
03FE3F
03FE3F
00003F
00003F
00003F
00003F
00003F
00003F
00003F
00003F
00003F
00003F
00003F
00003F
ENDCHAR
STARTCHAR r
ENCODING 114
SWIDTH 480 0
DWIDTH 29 0
BBX 24 24 3 0
BITMAP
FC7FF8
FC7FF8
FC7FF8
1FF03F
1FF03F
1FF03F
1F8000
1F8000
1F8000
1F8000
1F8000
1F8000
1F8000
1F8000
1F8000
1F8000
1F8000
1F8000
1F8000
1F8000
1F8000
1F8000
1F8000
1F8000
ENDCHAR
STARTCHAR s
ENCODING 115
SWIDTH 480 0
DWIDTH 29 0
BBX 24 24 3 0
BITMAP
1FFFF8
1FFFF8
1FFFF8
FC003F
FC003F
FC003F
FC0000
FC0000
FC0000
1FFFF8
1FFFF8
1FFFF8
00003F
00003F
00003F
00003F
00003F
00003F
FC003F
FC003F
FC003F
1FFFF8
1FFFF8
1FFFF8
ENDCHAR
STARTCHAR t
ENCODING 116
SWIDTH 480 0
DWIDTH 29 0
BBX 24 33 3 0
BITMAP
03F000
03F000
03F000
03F000
03F000
03F000
03F000
03F000
03F000
FFFFC0
FFFFC0
FFFFC0
03F000
03F000
03F000
03F000
03F000
03F000
03F000
03F000
03F000
03F000
03F000
03F000
03F000
03F000
03F000
03F03F
03F03F
03F03F
007FF8
007FF8
007FF8
ENDCHAR
STARTCHAR u
ENCODING 117
SWIDTH 480 0
DWIDTH 29 0
BBX 24 24 3 0
BITMAP
FC003F
FC003F
FC003F
FC003F
FC003F
FC003F
FC003F
FC003F
FC003F
FC003F
FC003F
FC003F
FC003F
FC003F
FC003F
FC003F
FC003F
FC003F
1F81FF
1F81FF
1F81FF
03FE3F
03FE3F
03FE3F
ENDCHAR
STARTCHAR v
ENCODING 118
SWIDTH 480 0
DWIDTH 29 0
BBX 24 24 3 0
BITMAP
FC003F
FC003F
FC003F
FC003F
FC003F
FC003F
1F81F8
1F81F8
1F81F8
1F81F8
1F81F8
1F81F8
03FFC0
03FFC0
03FFC0
03FFC0
03FFC0
03FFC0
007E00
007E00
007E00
007E00
007E00
007E00
ENDCHAR
STARTCHAR w
ENCODING 119
SWIDTH 480 0
DWIDTH 29 0
BBX 24 24 3 0
BITMAP
FC003F
FC003F
FC003F
FC003F
FC003F
FC003F
FC003F
FC003F
FC003F
FC7E3F
FC7E3F
FC7E3F
FC7E3F
FC7E3F
FC7E3F
FC7E3F
FC7E3F
FC7E3F
FFFFFF
FFFFFF
FFFFFF
1F81F8
1F81F8
1F81F8
ENDCHAR
STARTCHAR x
ENCODING 120
SWIDTH 480 0
DWIDTH 29 0
BBX 24 24 3 0
BITMAP
FC003F
FC003F
FC003F
1F81F8
1F81F8
1F81F8
03FFC0
03FFC0
03FFC0
007E00
007E00
007E00
007E00
007E00
007E00
03FFC0
03FFC0
03FFC0
1F81F8
1F81F8
1F81F8
FC003F
FC003F
FC003F
ENDCHAR
STARTCHAR y
ENCODING 121
SWIDTH 480 0
DWIDTH 29 0
BBX 24 36 3 -12
BITMAP
FC003F
FC003F
FC003F
FC003F
FC003F
FC003F
FC003F
FC003F
FC003F
FC003F
FC003F
FC003F
FC003F
FC003F
FC003F
FC003F
FC003F
FC003F
1F81FF
1F81FF
1F81FF
03FE3F
03FE3F
03FE3F
00003F
00003F
00003F
FC003F
FC003F
FC003F
1F81F8
1F81F8
1F81F8
03FFC0
03FFC0
03FFC0
ENDCHAR
STARTCHAR z
ENCODING 122
SWIDTH 480 0
DWIDTH 29 0
BBX 21 24 6 0
BITMAP
FFFFF8
FFFFF8
FFFFF8
0001F8
0001F8
0001F8
000FC0
000FC0
000FC0
007E00
007E00
007E00
03F000
03F000
03F000
1F8000
1F8000
1F8000
FC0000
FC0000
FC0000
FFFFF8
FFFFF8
FFFFF8
ENDCHAR
STARTCHAR braceleft
ENCODING 123
SWIDTH 480 0
DWIDTH 29 0
BBX 24 39 3 0
BITMAP
000FFF
000FFF
000FFF
007E00
007E00
007E00
007E00
007E00
007E00
007E00
007E00
007E00
007E00
007E00
007E00
007E00
007E00
007E00
FFF000
FFF000
FFF000
007E00
007E00
007E00
007E00
007E00
007E00
007E00
007E00
007E00
007E00
007E00
007E00
007E00
007E00
007E00
000FFF
000FFF
000FFF
ENDCHAR
STARTCHAR bar
ENCODING 124
SWIDTH 480 0
DWIDTH 29 0
BBX 6 39 12 0
BITMAP
FC
FC
FC
FC
FC
FC
FC
FC
FC
FC
FC
FC
FC
FC
FC
FC
FC
FC
FC
FC
FC
FC
FC
FC
FC
FC
FC
FC
FC
FC
FC
FC
FC
FC
FC
FC
FC
FC
FC
ENDCHAR
STARTCHAR braceright
ENCODING 125
SWIDTH 480 0
DWIDTH 29 0
BBX 24 39 3 0
BITMAP
FFF000
FFF000
FFF000
007E00
007E00
007E00
007E00
007E00
007E00
007E00
007E00
007E00
007E00
007E00
007E00
007E00
007E00
007E00
000FFF
000FFF
000FFF
007E00
007E00
007E00
007E00
007E00
007E00
007E00
007E00
007E00
007E00
007E00
007E00
007E00
007E00
007E00
FFF000
FFF000
FFF000
ENDCHAR
STARTCHAR asciitilde
ENCODING 126
SWIDTH 480 0
DWIDTH 29 0
BBX 24 9 3 30
BITMAP
1FF03F
1FF03F
1FF03F
FC7E3F
FC7E3F
FC7E3F
FC0FF8
FC0FF8
FC0FF8
ENDCHAR
STARTCHAR space
ENCODING 160
SWIDTH 480 0
DWIDTH 29 0
BBX 1 1 29 -12
BITMAP
00
ENDCHAR
STARTCHAR exclamdown
ENCODING 161
SWIDTH 480 0
DWIDTH 29 0
BBX 6 39 12 0
BITMAP
FC
FC
FC
FC
FC
FC
00
00
00
FC
FC
FC
FC
FC
FC
FC
FC
FC
FC
FC
FC
FC
FC
FC
FC
FC
FC
FC
FC
FC
FC
FC
FC
FC
FC
FC
FC
FC
FC
ENDCHAR
STARTCHAR cent
ENCODING 162
SWIDTH 480 0
DWIDTH 29 0
BBX 21 36 3 0
BITMAP
007E00
007E00
007E00
007E00
007E00
007E00
03FFC0
03FFC0
03FFC0
1F81F8
1F81F8
1F81F8
FC0038
FC0038
FC0038
FC0000
FC0000
FC0000
FC0000
FC0000
FC0000
FC0038
FC0038
FC0038
1F81F8
1F81F8
1F81F8
03FFC0
03FFC0
03FFC0
007E00
007E00
007E00
007E00
007E00
007E00
ENDCHAR
STARTCHAR sterling
ENCODING 163
SWIDTH 480 0
DWIDTH 29 0
BBX 27 36 3 0
BITMAP
007FF800
007FF800
007FF800
03F03F00
03F03F00
03F03F00
03F03F00
03F03F00
03F03F00
03F00000
03F00000
03F00000
03F00000
03F00000
03F00000
FFFFC000
FFFFC000
FFFFC000
03F00000
03F00000
03F00000
03F00000
03F00000
03F00000
03F00000
03F00000
03F00000
FFFE0000
FFFE0000
FFFE0000
E38FC7E0
E38FC7E0
E38FC7E0
FF81FF00
FF81FF00
FF81FF00
ENDCHAR
STARTCHAR currency
ENCODING 164
SWIDTH 480 0
DWIDTH 29 0
BBX 27 27 0 3
BITMAP
E00000E0
E00000E0
E00000E0
FC7FC7E0
FC7FC7E0
FC7FC7E0
1FFFFF00
1FFFFF00
1FFFFF00
1F803F00
1F803F00
1F803F00
1F803F00
1F803F00
1F803F00
1F803F00
1F803F00
1F803F00
1FFFFF00
1FFFFF00
1FFFFF00
FC7FC7E0
FC7FC7E0
FC7FC7E0
E00000E0
E00000E0
E00000E0
ENDCHAR
STARTCHAR yen
ENCODING 165
SWIDTH 480 0
DWIDTH 29 0
BBX 24 33 3 0
BITMAP
E00007
E00007
E00007
FC003F
FC003F
FC003F
1F81F8
1F81F8
1F81F8
03FFC0
03FFC0
03FFC0
1FFFF8
1FFFF8
1FFFF8
007E00
007E00
007E00
1FFFF8
1FFFF8
1FFFF8
007E00
007E00
007E00
007E00
007E00
007E00
007E00
007E00
007E00
007E00
007E00
007E00
ENDCHAR
STARTCHAR brokenbar
ENCODING 166
SWIDTH 480 0
DWIDTH 29 0
BBX 6 39 12 0
BITMAP
FC
FC
FC
FC
FC
FC
FC
FC
FC
FC
FC
FC
FC
FC
FC
00
00
00
00
00
00
00
00
00
FC
FC
FC
FC
FC
FC
FC
FC
FC
FC
FC
FC
FC
FC
FC
ENDCHAR
STARTCHAR section
ENCODING 167
SWIDTH 480 0
DWIDTH 29 0
BBX 24 39 3 0
BITMAP
03FFC0
03FFC0
03FFC0
1F81F8
1F81F8
1F81F8
FC01F8
FC01F8
FC01F8
1F8000
1F8000
1F8000
1FFE00
1FFE00
1FFE00
FC0FC0
FC0FC0
FC0FC0
1F81F8
1F81F8
1F81F8
03F03F
03F03F
03F03F
007FF8
007FF8
007FF8
0001F8
0001F8
0001F8
1F803F
1F803F
1F803F
1F81F8
1F81F8
1F81F8
03FFC0
03FFC0
03FFC0
ENDCHAR
STARTCHAR dieresis
ENCODING 168
SWIDTH 480 0
DWIDTH 29 0
BBX 18 6 6 33
BITMAP
FC0FC0
FC0FC0
FC0FC0
FC0FC0
FC0FC0
FC0FC0
ENDCHAR
STARTCHAR copyright
ENCODING 169
SWIDTH 480 0
DWIDTH 29 0
BBX 24 33 3 0
BITMAP
03FFC0
03FFC0
03FFC0
1F81F8
1F81F8
1F81F8
FC003F
FC003F
FC003F
E3FFC7
E3FFC7
E3FFC7
E381C7
E381C7
E381C7
E38007
E38007
E38007
E381C7
E381C7
E381C7
E3FFC7
E3FFC7
E3FFC7
FC003F
FC003F
FC003F
1F81F8
1F81F8
1F81F8
03FFC0
03FFC0
03FFC0
ENDCHAR
STARTCHAR ordfeminine
ENCODING 170
SWIDTH 480 0
DWIDTH 29 0
BBX 24 27 3 12
BITMAP
03FFF8
03FFF8
03FFF8
1C003F
1C003F
1C003F
00003F
00003F
00003F
1FFFFF
1FFFFF
1FFFFF
FC003F
FC003F
FC003F
FC003F
FC003F
FC003F
1FFFC7
1FFFC7
1FFFC7
000000
000000
000000
FFFFFF
FFFFFF
FFFFFF
ENDCHAR
STARTCHAR guillemotleft
ENCODING 171
SWIDTH 480 0
DWIDTH 29 0
BBX 27 33 0 0
BITMAP
0001C0E0
0001C0E0
0001C0E0
000FC7E0
000FC7E0
000FC7E0
007E3F00
007E3F00
007E3F00
03F1F800
03F1F800
03F1F800
1F8FC000
1F8FC000
1F8FC000
FC7E0000
FC7E0000
FC7E0000
1F8FC000
1F8FC000
1F8FC000
03F1F800
03F1F800
03F1F800
007E3F00
007E3F00
007E3F00
000FC7E0
000FC7E0
000FC7E0
0001C0E0
0001C0E0
0001C0E0
ENDCHAR
STARTCHAR logicalnot
ENCODING 172
SWIDTH 480 0
DWIDTH 29 0
BBX 24 12 3 12
BITMAP
FFFFFF
FFFFFF
FFFFFF
FFFFFF
FFFFFF
FFFFFF
00003F
00003F
00003F
00003F
00003F
00003F
ENDCHAR
STARTCHAR hyphen
ENCODING 173
SWIDTH 480 0
DWIDTH 29 0
BBX 18 3 6 18
BITMAP
FFFFC0
FFFFC0
FFFFC0
ENDCHAR
STARTCHAR registered
ENCODING 174
SWIDTH 480 0
DWIDTH 29 0
BBX 24 33 3 0
BITMAP
03FFC0
03FFC0
03FFC0
1F81F8
1F81F8
1F81F8
FC003F
FC003F
FC003F
E3FFC7
E3FFC7
E3FFC7
E381C7
E381C7
E381C7
E3FFC7
E3FFC7
E3FFC7
E38E07
E38E07
E38E07
E38FC7
E38FC7
E38FC7
FC003F
FC003F
FC003F
1F81F8
1F81F8
1F81F8
03FFC0
03FFC0
03FFC0
ENDCHAR
STARTCHAR macron
ENCODING 175
SWIDTH 480 0
DWIDTH 29 0
BBX 24 3 3 39
BITMAP
FFFFFF
FFFFFF
FFFFFF
ENDCHAR
STARTCHAR degree
ENCODING 176
SWIDTH 480 0
DWIDTH 29 0
BBX 18 18 6 21
BITMAP
03F000
03F000
03F000
1FFE00
1FFE00
1FFE00
FC0FC0
FC0FC0
FC0FC0
FC0FC0
FC0FC0
FC0FC0
1FFE00
1FFE00
1FFE00
03F000
03F000
03F000
ENDCHAR
STARTCHAR plusminus
ENCODING 177
SWIDTH 480 0
DWIDTH 29 0
BBX 24 21 3 6
BITMAP
007E00
007E00
007E00
007E00
007E00
007E00
FFFFFF
FFFFFF
FFFFFF
007E00
007E00
007E00
007E00
007E00
007E00
000000
000000
000000
FFFFFF
FFFFFF
FFFFFF
ENDCHAR
STARTCHAR twosuperior
ENCODING 178
SWIDTH 480 0
DWIDTH 29 0
BBX 15 21 6 18
BITMAP
1FF0
1FF0
1FF0
FC7E
FC7E
FC7E
007E
007E
007E
03F0
03F0
03F0
1F80
1F80
1F80
FC00
FC00
FC00
FFFE
FFFE
FFFE
ENDCHAR
STARTCHAR threesuperior
ENCODING 179
SWIDTH 480 0
DWIDTH 29 0
BBX 15 21 6 18
BITMAP
1FF0
1FF0
1FF0
FC7E
FC7E
FC7E
007E
007E
007E
03F0
03F0
03F0
007E
007E
007E
FC7E
FC7E
FC7E
1FF0
1FF0
1FF0
ENDCHAR
STARTCHAR acute
ENCODING 180
SWIDTH 480 0
DWIDTH 29 0
BBX 12 9 9 30
BITMAP
03F0
03F0
03F0
1F80
1F80
1F80
FC00
FC00
FC00
ENDCHAR
STARTCHAR mu
ENCODING 181
SWIDTH 480 0
DWIDTH 29 0
BBX 21 30 3 -9
BITMAP
FC01F8
FC01F8
FC01F8
FC01F8
FC01F8
FC01F8
FC01F8
FC01F8
FC01F8
FC01F8
FC01F8
FC01F8
FC01F8
FC01F8
FC01F8
FF8FF8
FF8FF8
FF8FF8
FFFE38
FFFE38
FFFE38
FC0000
FC0000
FC0000
FC0000
FC0000
FC0000
FC0000
FC0000
FC0000
ENDCHAR
STARTCHAR paragraph
ENCODING 182
SWIDTH 480 0
DWIDTH 29 0
BBX 24 39 3 0
BITMAP
1FFFFF
1FFFFF
1FFFFF
FFFFFF
FFFFFF
FFFFFF
FFFE3F
FFFE3F
FFFE3F
FFFE3F
FFFE3F
FFFE3F
FFFE3F
FFFE3F
FFFE3F
1FFE3F
1FFE3F
1FFE3F
007E3F
007E3F
007E3F
007E3F
007E3F
007E3F
007E3F
007E3F
007E3F
007E3F
007E3F
007E3F
007E3F
007E3F
007E3F
007E3F
007E3F
007E3F
007E3F
007E3F
007E3F
ENDCHAR
STARTCHAR periodcentered
ENCODING 183
SWIDTH 480 0
DWIDTH 29 0
BBX 9 9 12 15
BITMAP
FF80
FF80
FF80
FF80
FF80
FF80
FF80
FF80
FF80
ENDCHAR
STARTCHAR cedilla
ENCODING 184
SWIDTH 480 0
DWIDTH 29 0
BBX 15 12 6 -12
BITMAP
03F0
03F0
03F0
007E
007E
007E
FC7E
FC7E
FC7E
1FF0
1FF0
1FF0
ENDCHAR
STARTCHAR onesuperior
ENCODING 185
SWIDTH 480 0
DWIDTH 29 0
BBX 12 21 6 18
BITMAP
1F80
1F80
1F80
FF80
FF80
FF80
1F80
1F80
1F80
1F80
1F80
1F80
1F80
1F80
1F80
1F80
1F80
1F80
FFF0
FFF0
FFF0
ENDCHAR
STARTCHAR ordmasculine
ENCODING 186
SWIDTH 480 0
DWIDTH 29 0
BBX 21 27 3 12
BITMAP
03FE00
03FE00
03FE00
1F8FC0
1F8FC0
1F8FC0
FC01F8
FC01F8
FC01F8
FC01F8
FC01F8
FC01F8
FC01F8
FC01F8
FC01F8
1F8FC0
1F8FC0
1F8FC0
03FE00
03FE00
03FE00
000000
000000
000000
FFFFF8
FFFFF8
FFFFF8
ENDCHAR
STARTCHAR guillemotright
ENCODING 187
SWIDTH 480 0
DWIDTH 29 0
BBX 27 33 3 0
BITMAP
E0700000
E0700000
E0700000
FC7E0000
FC7E0000
FC7E0000
1F8FC000
1F8FC000
1F8FC000
03F1F800
03F1F800
03F1F800
007E3F00
007E3F00
007E3F00
000FC7E0
000FC7E0
000FC7E0
007E3F00
007E3F00
007E3F00
03F1F800
03F1F800
03F1F800
1F8FC000
1F8FC000
1F8FC000
FC7E0000
FC7E0000
FC7E0000
E0700000
E0700000
E0700000
ENDCHAR
STARTCHAR onequarter
ENCODING 188
SWIDTH 480 0
DWIDTH 29 0
BBX 24 36 3 3
BITMAP
1C0000
1C0000
1C0000
FC0000
FC0000
FC0000
1C0007
1C0007
1C0007
1C0038
1C0038
1C0038
FF81C0
FF81C0
FF81C0
000E00
000E00
000E00
007038
007038
007038
0381F8
0381F8
0381F8
1C0E38
1C0E38
1C0E38
E07FF8
E07FF8
E07FF8
000038
000038
000038
000038
000038
000038
ENDCHAR
STARTCHAR onehalf
ENCODING 189
SWIDTH 480 0
DWIDTH 29 0
BBX 24 36 3 3
BITMAP
1C0000
1C0000
1C0000
FC0000
FC0000
FC0000
1C0007
1C0007
1C0007
1C0038
1C0038
1C0038
FF81C0
FF81C0
FF81C0
000E00
000E00
000E00
0071F8
0071F8
0071F8
038E07
038E07
038E07
1C0007
1C0007
1C0007
E00038
E00038
E00038
0001C0
0001C0
0001C0
000FFF
000FFF
000FFF
ENDCHAR
STARTCHAR threequarters
ENCODING 190
SWIDTH 480 0
DWIDTH 29 0
BBX 24 36 3 3
BITMAP
FF8000
FF8000
FF8000
007000
007000
007000
1F8007
1F8007
1F8007
007038
007038
007038
FF81C0
FF81C0
FF81C0
000E00
000E00
000E00
007038
007038
007038
0381F8
0381F8
0381F8
1C0E38
1C0E38
1C0E38
E07FFF
E07FFF
E07FFF
000038
000038
000038
000038
000038
000038
ENDCHAR
STARTCHAR questiondown
ENCODING 191
SWIDTH 480 0
DWIDTH 29 0
BBX 24 39 3 0
BITMAP
007E00
007E00
007E00
007E00
007E00
007E00
000000
000000
000000
007E00
007E00
007E00
007E00
007E00
007E00
007E00
007E00
007E00
03F000
03F000
03F000
1F8000
1F8000
1F8000
FC003F
FC003F
FC003F
FC003F
FC003F
FC003F
FC003F
FC003F
FC003F
1F81F8
1F81F8
1F81F8
03FFC0
03FFC0
03FFC0
ENDCHAR
STARTCHAR Agrave
ENCODING 192
SWIDTH 480 0
DWIDTH 29 0
BBX 24 45 3 0
BITMAP
1F8000
1F8000
1F8000
03F000
03F000
03F000
007E00
007E00
007E00
000000
000000
000000
007E00
007E00
007E00
03FFC0
03FFC0
03FFC0
1F81F8
1F81F8
1F81F8
FC003F
FC003F
FC003F
FC003F
FC003F
FC003F
FC003F
FC003F
FC003F
FFFFFF
FFFFFF
FFFFFF
FC003F
FC003F
FC003F
FC003F
FC003F
FC003F
FC003F
FC003F
FC003F
FC003F
FC003F
FC003F
ENDCHAR
STARTCHAR Aacute
ENCODING 193
SWIDTH 480 0
DWIDTH 29 0
BBX 24 45 3 0
BITMAP
0001F8
0001F8
0001F8
000FC0
000FC0
000FC0
007E00
007E00
007E00
000000
000000
000000
007E00
007E00
007E00
03FFC0
03FFC0
03FFC0
1F81F8
1F81F8
1F81F8
FC003F
FC003F
FC003F
FC003F
FC003F
FC003F
FC003F
FC003F
FC003F
FFFFFF
FFFFFF
FFFFFF
FC003F
FC003F
FC003F
FC003F
FC003F
FC003F
FC003F
FC003F
FC003F
FC003F
FC003F
FC003F
ENDCHAR
STARTCHAR Acircumflex
ENCODING 194
SWIDTH 480 0
DWIDTH 29 0
BBX 24 45 3 0
BITMAP
007E00
007E00
007E00
03FFC0
03FFC0
03FFC0
1F81F8
1F81F8
1F81F8
000000
000000
000000
007E00
007E00
007E00
03FFC0
03FFC0
03FFC0
1F81F8
1F81F8
1F81F8
FC003F
FC003F
FC003F
FC003F
FC003F
FC003F
FC003F
FC003F
FC003F
FFFFFF
FFFFFF
FFFFFF
FC003F
FC003F
FC003F
FC003F
FC003F
FC003F
FC003F
FC003F
FC003F
FC003F
FC003F
FC003F
ENDCHAR
STARTCHAR Atilde
ENCODING 195
SWIDTH 480 0
DWIDTH 29 0
BBX 24 45 3 0
BITMAP
03F038
03F038
03F038
1FFFF8
1FFFF8
1FFFF8
1C0FC0
1C0FC0
1C0FC0
000000
000000
000000
007E00
007E00
007E00
03FFC0
03FFC0
03FFC0
1F81F8
1F81F8
1F81F8
FC003F
FC003F
FC003F
FC003F
FC003F
FC003F
FC003F
FC003F
FC003F
FFFFFF
FFFFFF
FFFFFF
FC003F
FC003F
FC003F
FC003F
FC003F
FC003F
FC003F
FC003F
FC003F
FC003F
FC003F
FC003F
ENDCHAR
STARTCHAR Adieresis
ENCODING 196
SWIDTH 480 0
DWIDTH 29 0
BBX 24 45 3 0
BITMAP
1F81F8
1F81F8
1F81F8
1F81F8
1F81F8
1F81F8
000000
000000
000000
007E00
007E00
007E00
03FFC0
03FFC0
03FFC0
1F81F8
1F81F8
1F81F8
1F81F8
1F81F8
1F81F8
FC003F
FC003F
FC003F
FC003F
FC003F
FC003F
FC003F
FC003F
FC003F
FFFFFF
FFFFFF
FFFFFF
FC003F
FC003F
FC003F
FC003F
FC003F
FC003F
FC003F
FC003F
FC003F
FC003F
FC003F
FC003F
ENDCHAR
STARTCHAR Aring
ENCODING 197
SWIDTH 480 0
DWIDTH 29 0
BBX 24 48 3 0
BITMAP
03FFC0
03FFC0
03FFC0
1F81F8
1F81F8
1F81F8
1F81F8
1F81F8
1F81F8
03FFC0
03FFC0
03FFC0
000000
000000
000000
007E00
007E00
007E00
03FFC0
03FFC0
03FFC0
1F81F8
1F81F8
1F81F8
FC003F
FC003F
FC003F
FC003F
FC003F
FC003F
FC003F
FC003F
FC003F
FFFFFF
FFFFFF
FFFFFF
FC003F
FC003F
FC003F
FC003F
FC003F
FC003F
FC003F
FC003F
FC003F
FC003F
FC003F
FC003F
ENDCHAR
STARTCHAR AE
ENCODING 198
SWIDTH 480 0
DWIDTH 29 0
BBX 24 39 3 0
BITMAP
007FFF
007FFF
007FFF
03FFC0
03FFC0
03FFC0
1F8FC0
1F8FC0
1F8FC0
1F8FC0
1F8FC0
1F8FC0
FC0FC0
FC0FC0
FC0FC0
FC0FC0
FC0FC0
FC0FC0
FFFFFF
FFFFFF
FFFFFF
FC0FC0
FC0FC0
FC0FC0
FC0FC0
FC0FC0
FC0FC0
FC0FC0
FC0FC0
FC0FC0
FC0FC0
FC0FC0
FC0FC0
FC0FC0
FC0FC0
FC0FC0
FC0FFF
FC0FFF
FC0FFF
ENDCHAR
STARTCHAR Ccedilla
ENCODING 199
SWIDTH 480 0
DWIDTH 29 0
BBX 24 51 3 -12
BITMAP
03FFC0
03FFC0
03FFC0
1F81F8
1F81F8
1F81F8
FC003F
FC003F
FC003F
FC0000
FC0000
FC0000
FC0000
FC0000
FC0000
FC0000
FC0000
FC0000
FC0000
FC0000
FC0000
FC0000
FC0000
FC0000
FC0000
FC0000
FC0000
FC0000
FC0000
FC0000
FC003F
FC003F
FC003F
1F81F8
1F81F8
1F81F8
03FFC0
03FFC0
03FFC0
007E00
007E00
007E00
000FC0
000FC0
000FC0
1F8FC0
1F8FC0
1F8FC0
03FE00
03FE00
03FE00
ENDCHAR
STARTCHAR Egrave
ENCODING 200
SWIDTH 480 0
DWIDTH 29 0
BBX 24 45 3 0
BITMAP
1F8000
1F8000
1F8000
03F000
03F000
03F000
007E00
007E00
007E00
000000
000000
000000
FFFFFF
FFFFFF
FFFFFF
FC0000
FC0000
FC0000
FC0000
FC0000
FC0000
FC0000
FC0000
FC0000
FC0000
FC0000
FC0000
FFFFC0
FFFFC0
FFFFC0
FC0000
FC0000
FC0000
FC0000
FC0000
FC0000
FC0000
FC0000
FC0000
FC0000
FC0000
FC0000
FFFFFF
FFFFFF
FFFFFF
ENDCHAR
STARTCHAR Eacute
ENCODING 201
SWIDTH 480 0
DWIDTH 29 0
BBX 24 45 3 0
BITMAP
000FC0
000FC0
000FC0
007E00
007E00
007E00
03F000
03F000
03F000
000000
000000
000000
FFFFFF
FFFFFF
FFFFFF
FC0000
FC0000
FC0000
FC0000
FC0000
FC0000
FC0000
FC0000
FC0000
FC0000
FC0000
FC0000
FFFFC0
FFFFC0
FFFFC0
FC0000
FC0000
FC0000
FC0000
FC0000
FC0000
FC0000
FC0000
FC0000
FC0000
FC0000
FC0000
FFFFFF
FFFFFF
FFFFFF
ENDCHAR
STARTCHAR Ecircumflex
ENCODING 202
SWIDTH 480 0
DWIDTH 29 0
BBX 24 45 3 0
BITMAP
007E00
007E00
007E00
03FFC0
03FFC0
03FFC0
1F81F8
1F81F8
1F81F8
000000
000000
000000
FFFFFF
FFFFFF
FFFFFF
FC0000
FC0000
FC0000
FC0000
FC0000
FC0000
FC0000
FC0000
FC0000
FC0000
FC0000
FC0000
FFFFC0
FFFFC0
FFFFC0
FC0000
FC0000
FC0000
FC0000
FC0000
FC0000
FC0000
FC0000
FC0000
FC0000
FC0000
FC0000
FFFFFF
FFFFFF
FFFFFF
ENDCHAR
STARTCHAR Edieresis
ENCODING 203
SWIDTH 480 0
DWIDTH 29 0
BBX 24 45 3 0
BITMAP
1F81F8
1F81F8
1F81F8
1F81F8
1F81F8
1F81F8
000000
000000
000000
000000
000000
000000
FFFFFF
FFFFFF
FFFFFF
FC0000
FC0000
FC0000
FC0000
FC0000
FC0000
FC0000
FC0000
FC0000
FC0000
FC0000
FC0000
FFFFC0
FFFFC0
FFFFC0
FC0000
FC0000
FC0000
FC0000
FC0000
FC0000
FC0000
FC0000
FC0000
FC0000
FC0000
FC0000
FFFFFF
FFFFFF
FFFFFF
ENDCHAR
STARTCHAR Igrave
ENCODING 204
SWIDTH 480 0
DWIDTH 29 0
BBX 18 45 6 0
BITMAP
1F8000
1F8000
1F8000
03F000
03F000
03F000
007E00
007E00
007E00
000000
000000
000000
FFFFC0
FFFFC0
FFFFC0
03F000
03F000
03F000
03F000
03F000
03F000
03F000
03F000
03F000
03F000
03F000
03F000
03F000
03F000
03F000
03F000
03F000
03F000
03F000
03F000
03F000
03F000
03F000
03F000
03F000
03F000
03F000
FFFFC0
FFFFC0
FFFFC0
ENDCHAR
STARTCHAR Iacute
ENCODING 205
SWIDTH 480 0
DWIDTH 29 0
BBX 18 45 6 0
BITMAP
007E00
007E00
007E00
03F000
03F000
03F000
1F8000
1F8000
1F8000
000000
000000
000000
FFFFC0
FFFFC0
FFFFC0
03F000
03F000
03F000
03F000
03F000
03F000
03F000
03F000
03F000
03F000
03F000
03F000
03F000
03F000
03F000
03F000
03F000
03F000
03F000
03F000
03F000
03F000
03F000
03F000
03F000
03F000
03F000
FFFFC0
FFFFC0
FFFFC0
ENDCHAR
STARTCHAR Icircumflex
ENCODING 206
SWIDTH 480 0
DWIDTH 29 0
BBX 18 45 6 0
BITMAP
03F000
03F000
03F000
1FFE00
1FFE00
1FFE00
FC0FC0
FC0FC0
FC0FC0
000000
000000
000000
FFFFC0
FFFFC0
FFFFC0
03F000
03F000
03F000
03F000
03F000
03F000
03F000
03F000
03F000
03F000
03F000
03F000
03F000
03F000
03F000
03F000
03F000
03F000
03F000
03F000
03F000
03F000
03F000
03F000
03F000
03F000
03F000
FFFFC0
FFFFC0
FFFFC0
ENDCHAR
STARTCHAR Idieresis
ENCODING 207
SWIDTH 480 0
DWIDTH 29 0
BBX 18 45 6 0
BITMAP
FC0FC0
FC0FC0
FC0FC0
FC0FC0
FC0FC0
FC0FC0
000000
000000
000000
FFFFC0
FFFFC0
FFFFC0
03F000
03F000
03F000
03F000
03F000
03F000
03F000
03F000
03F000
03F000
03F000
03F000
03F000
03F000
03F000
03F000
03F000
03F000
03F000
03F000
03F000
03F000
03F000
03F000
03F000
03F000
03F000
03F000
03F000
03F000
FFFFC0
FFFFC0
FFFFC0
ENDCHAR
STARTCHAR Eth
ENCODING 208
SWIDTH 480 0
DWIDTH 29 0
BBX 27 39 0 0
BITMAP
1FFFF800
1FFFF800
1FFFF800
1F803F00
1F803F00
1F803F00
1F8007E0
1F8007E0
1F8007E0
1F8007E0
1F8007E0
1F8007E0
1F8007E0
1F8007E0
1F8007E0
1F8007E0
1F8007E0
1F8007E0
FFFE07E0
FFFE07E0
FFFE07E0
1F8007E0
1F8007E0
1F8007E0
1F8007E0
1F8007E0
1F8007E0
1F8007E0
1F8007E0
1F8007E0
1F8007E0
1F8007E0
1F8007E0
1F803F00
1F803F00
1F803F00
1FFFF800
1FFFF800
1FFFF800
ENDCHAR
STARTCHAR Ntilde
ENCODING 209
SWIDTH 480 0
DWIDTH 29 0
BBX 24 45 3 0
BITMAP
03F038
03F038
03F038
1FFFF8
1FFFF8
1FFFF8
1C0FC0
1C0FC0
1C0FC0
000000
000000
000000
FC003F
FC003F
FC003F
FF803F
FF803F
FF803F
FFF03F
FFF03F
FFF03F
FFF03F
FFF03F
FFF03F
FC7E3F
FC7E3F
FC7E3F
FC7E3F
FC7E3F
FC7E3F
FC0FFF
FC0FFF
FC0FFF
FC0FFF
FC0FFF
FC0FFF
FC01FF
FC01FF
FC01FF
FC003F
FC003F
FC003F
FC003F
FC003F
FC003F
ENDCHAR
STARTCHAR Ograve
ENCODING 210
SWIDTH 480 0
DWIDTH 29 0
BBX 24 45 3 0
BITMAP
03F000
03F000
03F000
007E00
007E00
007E00
000FC0
000FC0
000FC0
000000
000000
000000
03FFC0
03FFC0
03FFC0
1F81F8
1F81F8
1F81F8
FC003F
FC003F
FC003F
FC003F
FC003F
FC003F
FC003F
FC003F
FC003F
FC003F
FC003F
FC003F
FC003F
FC003F
FC003F
FC003F
FC003F
FC003F
FC003F
FC003F
FC003F
1F81F8
1F81F8
1F81F8
03FFC0
03FFC0
03FFC0
ENDCHAR
STARTCHAR Oacute
ENCODING 211
SWIDTH 480 0
DWIDTH 29 0
BBX 24 45 3 0
BITMAP
000FC0
000FC0
000FC0
007E00
007E00
007E00
03F000
03F000
03F000
000000
000000
000000
03FFC0
03FFC0
03FFC0
1F81F8
1F81F8
1F81F8
FC003F
FC003F
FC003F
FC003F
FC003F
FC003F
FC003F
FC003F
FC003F
FC003F
FC003F
FC003F
FC003F
FC003F
FC003F
FC003F
FC003F
FC003F
FC003F
FC003F
FC003F
1F81F8
1F81F8
1F81F8
03FFC0
03FFC0
03FFC0
ENDCHAR
STARTCHAR Ocircumflex
ENCODING 212
SWIDTH 480 0
DWIDTH 29 0
BBX 24 45 3 0
BITMAP
007E00
007E00
007E00
03FFC0
03FFC0
03FFC0
1F81F8
1F81F8
1F81F8
000000
000000
000000
03FFC0
03FFC0
03FFC0
1F81F8
1F81F8
1F81F8
FC003F
FC003F
FC003F
FC003F
FC003F
FC003F
FC003F
FC003F
FC003F
FC003F
FC003F
FC003F
FC003F
FC003F
FC003F
FC003F
FC003F
FC003F
FC003F
FC003F
FC003F
1F81F8
1F81F8
1F81F8
03FFC0
03FFC0
03FFC0
ENDCHAR
STARTCHAR Otilde
ENCODING 213
SWIDTH 480 0
DWIDTH 29 0
BBX 24 45 3 0
BITMAP
03F038
03F038
03F038
1FFFF8
1FFFF8
1FFFF8
1C0FC0
1C0FC0
1C0FC0
000000
000000
000000
03FFC0
03FFC0
03FFC0
1F81F8
1F81F8
1F81F8
FC003F
FC003F
FC003F
FC003F
FC003F
FC003F
FC003F
FC003F
FC003F
FC003F
FC003F
FC003F
FC003F
FC003F
FC003F
FC003F
FC003F
FC003F
FC003F
FC003F
FC003F
1F81F8
1F81F8
1F81F8
03FFC0
03FFC0
03FFC0
ENDCHAR
STARTCHAR Odieresis
ENCODING 214
SWIDTH 480 0
DWIDTH 29 0
BBX 24 45 3 0
BITMAP
1F81F8
1F81F8
1F81F8
1F81F8
1F81F8
1F81F8
000000
000000
000000
03FFC0
03FFC0
03FFC0
1F81F8
1F81F8
1F81F8
FC003F
FC003F
FC003F
FC003F
FC003F
FC003F
FC003F
FC003F
FC003F
FC003F
FC003F
FC003F
FC003F
FC003F
FC003F
FC003F
FC003F
FC003F
FC003F
FC003F
FC003F
FC003F
FC003F
FC003F
1F81F8
1F81F8
1F81F8
03FFC0
03FFC0
03FFC0
ENDCHAR
STARTCHAR multiply
ENCODING 215
SWIDTH 480 0
DWIDTH 29 0
BBX 21 24 3 0
BITMAP
E00038
E00038
E00038
FC01F8
FC01F8
FC01F8
1F8FC0
1F8FC0
1F8FC0
03FE00
03FE00
03FE00
03FE00
03FE00
03FE00
1F8FC0
1F8FC0
1F8FC0
FC01F8
FC01F8
FC01F8
E00038
E00038
E00038
ENDCHAR
STARTCHAR Oslash
ENCODING 216
SWIDTH 480 0
DWIDTH 29 0
BBX 24 45 3 -3
BITMAP
000007
000007
000007
03FFF8
03FFF8
03FFF8
1F81F8
1F81F8
1F81F8
FC01FF
FC01FF
FC01FF
FC01FF
FC01FF
FC01FF
FC0E3F
FC0E3F
FC0E3F
FC0E3F
FC0E3F
FC0E3F
FC0E3F
FC0E3F
FC0E3F
FC703F
FC703F
FC703F
FC703F
FC703F
FC703F
FC703F
FC703F
FC703F
FF803F
FF803F
FF803F
1F81F8
1F81F8
1F81F8
1FFFC0
1FFFC0
1FFFC0
E00000
E00000
E00000
ENDCHAR
STARTCHAR Ugrave
ENCODING 217
SWIDTH 480 0
DWIDTH 29 0
BBX 24 45 3 0
BITMAP
03F000
03F000
03F000
007E00
007E00
007E00
000FC0
000FC0
000FC0
000000
000000
000000
FC003F
FC003F
FC003F
FC003F
FC003F
FC003F
FC003F
FC003F
FC003F
FC003F
FC003F
FC003F
FC003F
FC003F
FC003F
FC003F
FC003F
FC003F
FC003F
FC003F
FC003F
FC003F
FC003F
FC003F
FC003F
FC003F
FC003F
1F81F8
1F81F8
1F81F8
03FFC0
03FFC0
03FFC0
ENDCHAR
STARTCHAR Uacute
ENCODING 218
SWIDTH 480 0
DWIDTH 29 0
BBX 24 45 3 0
BITMAP
000FC0
000FC0
000FC0
007E00
007E00
007E00
03F000
03F000
03F000
000000
000000
000000
FC003F
FC003F
FC003F
FC003F
FC003F
FC003F
FC003F
FC003F
FC003F
FC003F
FC003F
FC003F
FC003F
FC003F
FC003F
FC003F
FC003F
FC003F
FC003F
FC003F
FC003F
FC003F
FC003F
FC003F
FC003F
FC003F
FC003F
1F81F8
1F81F8
1F81F8
03FFC0
03FFC0
03FFC0
ENDCHAR
STARTCHAR Ucircumflex
ENCODING 219
SWIDTH 480 0
DWIDTH 29 0
BBX 24 45 3 0
BITMAP
007E00
007E00
007E00
03FFC0
03FFC0
03FFC0
1F81F8
1F81F8
1F81F8
000000
000000
000000
FC003F
FC003F
FC003F
FC003F
FC003F
FC003F
FC003F
FC003F
FC003F
FC003F
FC003F
FC003F
FC003F
FC003F
FC003F
FC003F
FC003F
FC003F
FC003F
FC003F
FC003F
FC003F
FC003F
FC003F
FC003F
FC003F
FC003F
1F81F8
1F81F8
1F81F8
03FFC0
03FFC0
03FFC0
ENDCHAR
STARTCHAR Udieresis
ENCODING 220
SWIDTH 480 0
DWIDTH 29 0
BBX 24 45 3 0
BITMAP
1F81F8
1F81F8
1F81F8
1F81F8
1F81F8
1F81F8
000000
000000
000000
FC003F
FC003F
FC003F
FC003F
FC003F
FC003F
FC003F
FC003F
FC003F
FC003F
FC003F
FC003F
FC003F
FC003F
FC003F
FC003F
FC003F
FC003F
FC003F
FC003F
FC003F
FC003F
FC003F
FC003F
FC003F
FC003F
FC003F
FC003F
FC003F
FC003F
1F81F8
1F81F8
1F81F8
03FFC0
03FFC0
03FFC0
ENDCHAR
STARTCHAR Yacute
ENCODING 221
SWIDTH 480 0
DWIDTH 29 0
BBX 24 45 3 0
BITMAP
000FC0
000FC0
000FC0
007E00
007E00
007E00
03F000
03F000
03F000
000000
000000
000000
FC003F
FC003F
FC003F
FC003F
FC003F
FC003F
1F81F8
1F81F8
1F81F8
1F81F8
1F81F8
1F81F8
03FFC0
03FFC0
03FFC0
03FFC0
03FFC0
03FFC0
007E00
007E00
007E00
007E00
007E00
007E00
007E00
007E00
007E00
007E00
007E00
007E00
007E00
007E00
007E00
ENDCHAR
STARTCHAR Thorn
ENCODING 222
SWIDTH 480 0
DWIDTH 29 0
BBX 21 39 6 0
BITMAP
FC0000
FC0000
FC0000
FC0000
FC0000
FC0000
FC0000
FC0000
FC0000
FFFFC0
FFFFC0
FFFFC0
FC01F8
FC01F8
FC01F8
FC01F8
FC01F8
FC01F8
FC01F8
FC01F8
FC01F8
FC01F8
FC01F8
FC01F8
FC01F8
FC01F8
FC01F8
FFFFC0
FFFFC0
FFFFC0
FC0000
FC0000
FC0000
FC0000
FC0000
FC0000
FC0000
FC0000
FC0000
ENDCHAR
STARTCHAR germandbls
ENCODING 223
SWIDTH 480 0
DWIDTH 29 0
BBX 24 39 3 0
BITMAP
007FC0
007FC0
007FC0
03F1F8
03F1F8
03F1F8
1F803F
1F803F
1F803F
1F803F
1F803F
1F803F
1F81F8
1F81F8
1F81F8
FF8FC0
FF8FC0
FF8FC0
1F8FC0
1F8FC0
1F8FC0
1F81F8
1F81F8
1F81F8
1F803F
1F803F
1F803F
1F803F
1F803F
1F803F
1F803F
1F803F
1F803F
1F81F8
1F81F8
1F81F8
1F8FC0
1F8FC0
1F8FC0
ENDCHAR
STARTCHAR agrave
ENCODING 224
SWIDTH 480 0
DWIDTH 29 0
BBX 24 36 3 0
BITMAP
03F000
03F000
03F000
007E00
007E00
007E00
000FC0
000FC0
000FC0
000000
000000
000000
1FFFF8
1FFFF8
1FFFF8
FC003F
FC003F
FC003F
00003F
00003F
00003F
1FFFFF
1FFFFF
1FFFFF
FC003F
FC003F
FC003F
FC003F
FC003F
FC003F
FC003F
FC003F
FC003F
1FFFC7
1FFFC7
1FFFC7
ENDCHAR
STARTCHAR aacute
ENCODING 225
SWIDTH 480 0
DWIDTH 29 0
BBX 24 36 3 0
BITMAP
000FC0
000FC0
000FC0
007E00
007E00
007E00
03F000
03F000
03F000
000000
000000
000000
1FFFF8
1FFFF8
1FFFF8
FC003F
FC003F
FC003F
00003F
00003F
00003F
1FFFFF
1FFFFF
1FFFFF
FC003F
FC003F
FC003F
FC003F
FC003F
FC003F
FC003F
FC003F
FC003F
1FFFC7
1FFFC7
1FFFC7
ENDCHAR
STARTCHAR acircumflex
ENCODING 226
SWIDTH 480 0
DWIDTH 29 0
BBX 24 36 3 0
BITMAP
007E00
007E00
007E00
03FFC0
03FFC0
03FFC0
1F81F8
1F81F8
1F81F8
000000
000000
000000
1FFFF8
1FFFF8
1FFFF8
FC003F
FC003F
FC003F
00003F
00003F
00003F
1FFFFF
1FFFFF
1FFFFF
FC003F
FC003F
FC003F
FC003F
FC003F
FC003F
FC003F
FC003F
FC003F
1FFFC7
1FFFC7
1FFFC7
ENDCHAR
STARTCHAR atilde
ENCODING 227
SWIDTH 480 0
DWIDTH 29 0
BBX 24 36 3 0
BITMAP
03F038
03F038
03F038
1FFFF8
1FFFF8
1FFFF8
1C0FC0
1C0FC0
1C0FC0
000000
000000
000000
1FFFF8
1FFFF8
1FFFF8
FC003F
FC003F
FC003F
00003F
00003F
00003F
1FFFFF
1FFFFF
1FFFFF
FC003F
FC003F
FC003F
FC003F
FC003F
FC003F
FC003F
FC003F
FC003F
1FFFC7
1FFFC7
1FFFC7
ENDCHAR
STARTCHAR adieresis
ENCODING 228
SWIDTH 480 0
DWIDTH 29 0
BBX 24 33 3 0
BITMAP
1F81F8
1F81F8
1F81F8
1F81F8
1F81F8
1F81F8
000000
000000
000000
1FFFF8
1FFFF8
1FFFF8
FC003F
FC003F
FC003F
00003F
00003F
00003F
1FFFFF
1FFFFF
1FFFFF
FC003F
FC003F
FC003F
FC003F
FC003F
FC003F
FC003F
FC003F
FC003F
1FFFC7
1FFFC7
1FFFC7
ENDCHAR
STARTCHAR aring
ENCODING 229
SWIDTH 480 0
DWIDTH 29 0
BBX 24 39 3 0
BITMAP
03FFC0
03FFC0
03FFC0
1F81F8
1F81F8
1F81F8
1F81F8
1F81F8
1F81F8
03FFC0
03FFC0
03FFC0
000000
000000
000000
1FFFF8
1FFFF8
1FFFF8
FC003F
FC003F
FC003F
00003F
00003F
00003F
1FFFFF
1FFFFF
1FFFFF
FC003F
FC003F
FC003F
FC003F
FC003F
FC003F
FC003F
FC003F
FC003F
1FFFC7
1FFFC7
1FFFC7
ENDCHAR
STARTCHAR ae
ENCODING 230
SWIDTH 480 0
DWIDTH 29 0
BBX 24 24 3 0
BITMAP
1FF1F8
1FF1F8
1FF1F8
E07E3F
E07E3F
E07E3F
007E3F
007E3F
007E3F
007FF8
007FF8
007FF8
1FFE00
1FFE00
1FFE00
FC7E00
FC7E00
FC7E00
FC7E07
FC7E07
FC7E07
1F8FF8
1F8FF8
1F8FF8
ENDCHAR
STARTCHAR ccedilla
ENCODING 231
SWIDTH 480 0
DWIDTH 29 0
BBX 24 36 3 -12
BITMAP
03FFF8
03FFF8
03FFF8
1F803F
1F803F
1F803F
FC0000
FC0000
FC0000
FC0000
FC0000
FC0000
FC0000
FC0000
FC0000
FC0000
FC0000
FC0000
1F803F
1F803F
1F803F
03FFF8
03FFF8
03FFF8
007E00
007E00
007E00
000FC0
000FC0
000FC0
1F8FC0
1F8FC0
1F8FC0
03FE00
03FE00
03FE00
ENDCHAR
STARTCHAR egrave
ENCODING 232
SWIDTH 480 0
DWIDTH 29 0
BBX 24 36 3 0
BITMAP
1F8000
1F8000
1F8000
03F000
03F000
03F000
007E00
007E00
007E00
000000
000000
000000
03FFC0
03FFC0
03FFC0
1F81F8
1F81F8
1F81F8
FC003F
FC003F
FC003F
FFFFFF
FFFFFF
FFFFFF
FC0000
FC0000
FC0000
FC0000
FC0000
FC0000
1F803F
1F803F
1F803F
03FFF8
03FFF8
03FFF8
ENDCHAR
STARTCHAR eacute
ENCODING 233
SWIDTH 480 0
DWIDTH 29 0
BBX 24 36 3 0
BITMAP
0001F8
0001F8
0001F8
000FC0
000FC0
000FC0
007E00
007E00
007E00
000000
000000
000000
03FFC0
03FFC0
03FFC0
1F81F8
1F81F8
1F81F8
FC003F
FC003F
FC003F
FFFFFF
FFFFFF
FFFFFF
FC0000
FC0000
FC0000
FC0000
FC0000
FC0000
1F803F
1F803F
1F803F
03FFF8
03FFF8
03FFF8
ENDCHAR
STARTCHAR ecircumflex
ENCODING 234
SWIDTH 480 0
DWIDTH 29 0
BBX 24 36 3 0
BITMAP
007E00
007E00
007E00
03FFC0
03FFC0
03FFC0
1F81F8
1F81F8
1F81F8
000000
000000
000000
03FFC0
03FFC0
03FFC0
1F81F8
1F81F8
1F81F8
FC003F
FC003F
FC003F
FFFFFF
FFFFFF
FFFFFF
FC0000
FC0000
FC0000
FC0000
FC0000
FC0000
1F803F
1F803F
1F803F
03FFF8
03FFF8
03FFF8
ENDCHAR
STARTCHAR edieresis
ENCODING 235
SWIDTH 480 0
DWIDTH 29 0
BBX 24 33 3 0
BITMAP
1F81F8
1F81F8
1F81F8
1F81F8
1F81F8
1F81F8
000000
000000
000000
03FFC0
03FFC0
03FFC0
1F81F8
1F81F8
1F81F8
FC003F
FC003F
FC003F
FFFFFF
FFFFFF
FFFFFF
FC0000
FC0000
FC0000
FC0000
FC0000
FC0000
1F803F
1F803F
1F803F
03FFF8
03FFF8
03FFF8
ENDCHAR
STARTCHAR igrave
ENCODING 236
SWIDTH 480 0
DWIDTH 29 0
BBX 24 36 3 0
BITMAP
1F8000
1F8000
1F8000
03F000
03F000
03F000
007E00
007E00
007E00
000000
000000
000000
1FFE00
1FFE00
1FFE00
007E00
007E00
007E00
007E00
007E00
007E00
007E00
007E00
007E00
007E00
007E00
007E00
007E00
007E00
007E00
007E00
007E00
007E00
FFFFFF
FFFFFF
FFFFFF
ENDCHAR
STARTCHAR iacute
ENCODING 237
SWIDTH 480 0
DWIDTH 29 0
BBX 24 36 3 0
BITMAP
000FC0
000FC0
000FC0
007E00
007E00
007E00
03F000
03F000
03F000
000000
000000
000000
1FFE00
1FFE00
1FFE00
007E00
007E00
007E00
007E00
007E00
007E00
007E00
007E00
007E00
007E00
007E00
007E00
007E00
007E00
007E00
007E00
007E00
007E00
FFFFFF
FFFFFF
FFFFFF
ENDCHAR
STARTCHAR icircumflex
ENCODING 238
SWIDTH 480 0
DWIDTH 29 0
BBX 24 36 3 0
BITMAP
007E00
007E00
007E00
03FFC0
03FFC0
03FFC0
1F81F8
1F81F8
1F81F8
000000
000000
000000
1FFE00
1FFE00
1FFE00
007E00
007E00
007E00
007E00
007E00
007E00
007E00
007E00
007E00
007E00
007E00
007E00
007E00
007E00
007E00
007E00
007E00
007E00
FFFFFF
FFFFFF
FFFFFF
ENDCHAR
STARTCHAR idieresis
ENCODING 239
SWIDTH 480 0
DWIDTH 29 0
BBX 24 33 3 0
BITMAP
1F81F8
1F81F8
1F81F8
1F81F8
1F81F8
1F81F8
000000
000000
000000
1FFE00
1FFE00
1FFE00
007E00
007E00
007E00
007E00
007E00
007E00
007E00
007E00
007E00
007E00
007E00
007E00
007E00
007E00
007E00
007E00
007E00
007E00
FFFFFF
FFFFFF
FFFFFF
ENDCHAR
STARTCHAR eth
ENCODING 240
SWIDTH 480 0
DWIDTH 29 0
BBX 24 39 3 0
BITMAP
E00E00
E00E00
E00E00
FC7E00
FC7E00
FC7E00
1FF000
1FF000
1FF000
1FF000
1FF000
1FF000
FC7E00
FC7E00
FC7E00
E00FC0
E00FC0
E00FC0
03FFF8
03FFF8
03FFF8
1F81FF
1F81FF
1F81FF
FC003F
FC003F
FC003F
FC003F
FC003F
FC003F
FC003F
FC003F
FC003F
1F81F8
1F81F8
1F81F8
03FFC0
03FFC0
03FFC0
ENDCHAR
STARTCHAR ntilde
ENCODING 241
SWIDTH 480 0
DWIDTH 29 0
BBX 24 36 3 0
BITMAP
03F038
03F038
03F038
1FFFF8
1FFFF8
1FFFF8
1C0FC0
1C0FC0
1C0FC0
000000
000000
000000
FC7FC0
FC7FC0
FC7FC0
FF81F8
FF81F8
FF81F8
FC003F
FC003F
FC003F
FC003F
FC003F
FC003F
FC003F
FC003F
FC003F
FC003F
FC003F
FC003F
FC003F
FC003F
FC003F
FC003F
FC003F
FC003F
ENDCHAR
STARTCHAR ograve
ENCODING 242
SWIDTH 480 0
DWIDTH 29 0
BBX 24 36 3 0
BITMAP
1F8000
1F8000
1F8000
03F000
03F000
03F000
007E00
007E00
007E00
000000
000000
000000
03FFC0
03FFC0
03FFC0
1F81F8
1F81F8
1F81F8
FC003F
FC003F
FC003F
FC003F
FC003F
FC003F
FC003F
FC003F
FC003F
FC003F
FC003F
FC003F
1F81F8
1F81F8
1F81F8
03FFC0
03FFC0
03FFC0
ENDCHAR
STARTCHAR oacute
ENCODING 243
SWIDTH 480 0
DWIDTH 29 0
BBX 24 36 3 0
BITMAP
0001F8
0001F8
0001F8
000FC0
000FC0
000FC0
007E00
007E00
007E00
000000
000000
000000
03FFC0
03FFC0
03FFC0
1F81F8
1F81F8
1F81F8
FC003F
FC003F
FC003F
FC003F
FC003F
FC003F
FC003F
FC003F
FC003F
FC003F
FC003F
FC003F
1F81F8
1F81F8
1F81F8
03FFC0
03FFC0
03FFC0
ENDCHAR
STARTCHAR ocircumflex
ENCODING 244
SWIDTH 480 0
DWIDTH 29 0
BBX 24 36 3 0
BITMAP
007E00
007E00
007E00
03FFC0
03FFC0
03FFC0
1F81F8
1F81F8
1F81F8
000000
000000
000000
03FFC0
03FFC0
03FFC0
1F81F8
1F81F8
1F81F8
FC003F
FC003F
FC003F
FC003F
FC003F
FC003F
FC003F
FC003F
FC003F
FC003F
FC003F
FC003F
1F81F8
1F81F8
1F81F8
03FFC0
03FFC0
03FFC0
ENDCHAR
STARTCHAR otilde
ENCODING 245
SWIDTH 480 0
DWIDTH 29 0
BBX 24 36 3 0
BITMAP
03F038
03F038
03F038
1FFFF8
1FFFF8
1FFFF8
1C0FC0
1C0FC0
1C0FC0
000000
000000
000000
03FFC0
03FFC0
03FFC0
1F81F8
1F81F8
1F81F8
FC003F
FC003F
FC003F
FC003F
FC003F
FC003F
FC003F
FC003F
FC003F
FC003F
FC003F
FC003F
1F81F8
1F81F8
1F81F8
03FFC0
03FFC0
03FFC0
ENDCHAR
STARTCHAR odieresis
ENCODING 246
SWIDTH 480 0
DWIDTH 29 0
BBX 24 33 3 0
BITMAP
1F81F8
1F81F8
1F81F8
1F81F8
1F81F8
1F81F8
000000
000000
000000
03FFC0
03FFC0
03FFC0
1F81F8
1F81F8
1F81F8
FC003F
FC003F
FC003F
FC003F
FC003F
FC003F
FC003F
FC003F
FC003F
FC003F
FC003F
FC003F
1F81F8
1F81F8
1F81F8
03FFC0
03FFC0
03FFC0
ENDCHAR
STARTCHAR divide
ENCODING 247
SWIDTH 480 0
DWIDTH 29 0
BBX 24 30 3 3
BITMAP
007E00
007E00
007E00
007E00
007E00
007E00
000000
000000
000000
000000
000000
000000
FFFFFF
FFFFFF
FFFFFF
FFFFFF
FFFFFF
FFFFFF
000000
000000
000000
000000
000000
000000
007E00
007E00
007E00
007E00
007E00
007E00
ENDCHAR
STARTCHAR oslash
ENCODING 248
SWIDTH 480 0
DWIDTH 29 0
BBX 24 30 3 -3
BITMAP
000007
000007
000007
03FFF8
03FFF8
03FFF8
1F81F8
1F81F8
1F81F8
FC0E3F
FC0E3F
FC0E3F
FC0E3F
FC0E3F
FC0E3F
FC703F
FC703F
FC703F
FC703F
FC703F
FC703F
1F81F8
1F81F8
1F81F8
1FFFC0
1FFFC0
1FFFC0
E00000
E00000
E00000
ENDCHAR
STARTCHAR ugrave
ENCODING 249
SWIDTH 480 0
DWIDTH 29 0
BBX 24 36 3 0
BITMAP
03F000
03F000
03F000
007E00
007E00
007E00
000FC0
000FC0
000FC0
000000
000000
000000
FC003F
FC003F
FC003F
FC003F
FC003F
FC003F
FC003F
FC003F
FC003F
FC003F
FC003F
FC003F
FC003F
FC003F
FC003F
FC003F
FC003F
FC003F
1F81FF
1F81FF
1F81FF
03FE3F
03FE3F
03FE3F
ENDCHAR
STARTCHAR uacute
ENCODING 250
SWIDTH 480 0
DWIDTH 29 0
BBX 24 36 3 0
BITMAP
0001F8
0001F8
0001F8
000FC0
000FC0
000FC0
007E00
007E00
007E00
000000
000000
000000
FC003F
FC003F
FC003F
FC003F
FC003F
FC003F
FC003F
FC003F
FC003F
FC003F
FC003F
FC003F
FC003F
FC003F
FC003F
FC003F
FC003F
FC003F
1F81FF
1F81FF
1F81FF
03FE3F
03FE3F
03FE3F
ENDCHAR
STARTCHAR ucircumflex
ENCODING 251
SWIDTH 480 0
DWIDTH 29 0
BBX 24 36 3 0
BITMAP
007E00
007E00
007E00
03FFC0
03FFC0
03FFC0
1F81F8
1F81F8
1F81F8
000000
000000
000000
FC003F
FC003F
FC003F
FC003F
FC003F
FC003F
FC003F
FC003F
FC003F
FC003F
FC003F
FC003F
FC003F
FC003F
FC003F
FC003F
FC003F
FC003F
1F81FF
1F81FF
1F81FF
03FE3F
03FE3F
03FE3F
ENDCHAR
STARTCHAR udieresis
ENCODING 252
SWIDTH 480 0
DWIDTH 29 0
BBX 24 33 3 0
BITMAP
1F81F8
1F81F8
1F81F8
1F81F8
1F81F8
1F81F8
000000
000000
000000
FC003F
FC003F
FC003F
FC003F
FC003F
FC003F
FC003F
FC003F
FC003F
FC003F
FC003F
FC003F
FC003F
FC003F
FC003F
FC003F
FC003F
FC003F
1F81FF
1F81FF
1F81FF
03FE3F
03FE3F
03FE3F
ENDCHAR
STARTCHAR yacute
ENCODING 253
SWIDTH 480 0
DWIDTH 29 0
BBX 24 48 3 -12
BITMAP
000FC0
000FC0
000FC0
007E00
007E00
007E00
03F000
03F000
03F000
000000
000000
000000
FC003F
FC003F
FC003F
FC003F
FC003F
FC003F
FC003F
FC003F
FC003F
FC003F
FC003F
FC003F
FC003F
FC003F
FC003F
FC003F
FC003F
FC003F
1F81FF
1F81FF
1F81FF
03FE3F
03FE3F
03FE3F
00003F
00003F
00003F
FC003F
FC003F
FC003F
1F81F8
1F81F8
1F81F8
03FFC0
03FFC0
03FFC0
ENDCHAR
STARTCHAR thorn
ENCODING 254
SWIDTH 480 0
DWIDTH 29 0
BBX 21 51 6 -12
BITMAP
FC0000
FC0000
FC0000
FC0000
FC0000
FC0000
FC0000
FC0000
FC0000
FC0000
FC0000
FC0000
FC0000
FC0000
FC0000
FC0000
FC0000
FC0000
FFFE00
FFFE00
FFFE00
FC0FC0
FC0FC0
FC0FC0
FC01F8
FC01F8
FC01F8
FC01F8
FC01F8
FC01F8
FC01F8
FC01F8
FC01F8
FC0FC0
FC0FC0
FC0FC0
FFFE00
FFFE00
FFFE00
FC0000
FC0000
FC0000
FC0000
FC0000
FC0000
FC0000
FC0000
FC0000
FC0000
FC0000
FC0000
ENDCHAR
STARTCHAR ydieresis
ENCODING 255
SWIDTH 480 0
DWIDTH 29 0
BBX 24 45 3 -12
BITMAP
1F81F8
1F81F8
1F81F8
1F81F8
1F81F8
1F81F8
000000
000000
000000
FC003F
FC003F
FC003F
FC003F
FC003F
FC003F
FC003F
FC003F
FC003F
FC003F
FC003F
FC003F
FC003F
FC003F
FC003F
FC003F
FC003F
FC003F
1F81FF
1F81FF
1F81FF
03FE3F
03FE3F
03FE3F
00003F
00003F
00003F
FC003F
FC003F
FC003F
1F81F8
1F81F8
1F81F8
03FFC0
03FFC0
03FFC0
ENDCHAR
STARTCHAR Amacron
ENCODING 256
SWIDTH 480 0
DWIDTH 29 0
BBX 24 45 3 0
BITMAP
FFFFFF
FFFFFF
FFFFFF
000000
000000
000000
007E00
007E00
007E00
03FFC0
03FFC0
03FFC0
1F81F8
1F81F8
1F81F8
1F81F8
1F81F8
1F81F8
FC003F
FC003F
FC003F
FC003F
FC003F
FC003F
FC003F
FC003F
FC003F
FFFFFF
FFFFFF
FFFFFF
FC003F
FC003F
FC003F
FC003F
FC003F
FC003F
FC003F
FC003F
FC003F
FC003F
FC003F
FC003F
FC003F
FC003F
FC003F
ENDCHAR
STARTCHAR amacron
ENCODING 257
SWIDTH 480 0
DWIDTH 29 0
BBX 24 30 3 0
BITMAP
FFFFFF
FFFFFF
FFFFFF
000000
000000
000000
03FFF8
03FFF8
03FFF8
1F803F
1F803F
1F803F
00003F
00003F
00003F
1FFFFF
1FFFFF
1FFFFF
FC003F
FC003F
FC003F
FC003F
FC003F
FC003F
FC003F
FC003F
FC003F
1FFFC7
1FFFC7
1FFFC7
ENDCHAR
STARTCHAR Abreve
ENCODING 258
SWIDTH 480 0
DWIDTH 29 0
BBX 24 45 3 0
BITMAP
1C0038
1C0038
1C0038
1F81F8
1F81F8
1F81F8
03FFC0
03FFC0
03FFC0
000000
000000
000000
03FFC0
03FFC0
03FFC0
1F81F8
1F81F8
1F81F8
1F81F8
1F81F8
1F81F8
FC003F
FC003F
FC003F
FC003F
FC003F
FC003F
FC003F
FC003F
FC003F
FFFFFF
FFFFFF
FFFFFF
FC003F
FC003F
FC003F
FC003F
FC003F
FC003F
FC003F
FC003F
FC003F
FC003F
FC003F
FC003F
ENDCHAR
STARTCHAR abreve
ENCODING 259
SWIDTH 480 0
DWIDTH 29 0
BBX 24 36 3 0
BITMAP
1C0038
1C0038
1C0038
1F81F8
1F81F8
1F81F8
03FFC0
03FFC0
03FFC0
000000
000000
000000
03FFF8
03FFF8
03FFF8
1F803F
1F803F
1F803F
00003F
00003F
00003F
1FFFFF
1FFFFF
1FFFFF
FC003F
FC003F
FC003F
FC003F
FC003F
FC003F
FC003F
FC003F
FC003F
1FFFC7
1FFFC7
1FFFC7
ENDCHAR
STARTCHAR Aogonek
ENCODING 260
SWIDTH 480 0
DWIDTH 29 0
BBX 27 48 3 -9
BITMAP
007E0000
007E0000
007E0000
03FFC000
03FFC000
03FFC000
1F81F800
1F81F800
1F81F800
1F81F800
1F81F800
1F81F800
FC003F00
FC003F00
FC003F00
FC003F00
FC003F00
FC003F00
FC003F00
FC003F00
FC003F00
FFFFFF00
FFFFFF00
FFFFFF00
FC003F00
FC003F00
FC003F00
FC003F00
FC003F00
FC003F00
FC003F00
FC003F00
FC003F00
FC003F00
FC003F00
FC003F00
FC003F00
FC003F00
FC003F00
0001FF00
0001FF00
0001FF00
0001F800
0001F800
0001F800
00003FE0
00003FE0
00003FE0
ENDCHAR
STARTCHAR aogonek
ENCODING 261
SWIDTH 480 0
DWIDTH 29 0
BBX 27 36 3 -12
BITMAP
03FFF800
03FFF800
03FFF800
1F803F00
1F803F00
1F803F00
00003F00
00003F00
00003F00
1FFFFF00
1FFFFF00
1FFFFF00
FC003F00
FC003F00
FC003F00
FC003F00
FC003F00
FC003F00
FC003F00
FC003F00
FC003F00
1FFFC700
1FFFC700
1FFFC700
000007E0
000007E0
000007E0
00003FE0
00003FE0
00003FE0
00003F00
00003F00
00003F00
000007E0
000007E0
000007E0
ENDCHAR
STARTCHAR Cacute
ENCODING 262
SWIDTH 480 0
DWIDTH 29 0
BBX 24 45 3 0
BITMAP
0001F8
0001F8
0001F8
000FC0
000FC0
000FC0
007E00
007E00
007E00
000000
000000
000000
03FFC0
03FFC0
03FFC0
1F81F8
1F81F8
1F81F8
FC003F
FC003F
FC003F
FC0000
FC0000
FC0000
FC0000
FC0000
FC0000
FC0000
FC0000
FC0000
FC0000
FC0000
FC0000
FC0000
FC0000
FC0000
FC003F
FC003F
FC003F
1F81F8
1F81F8
1F81F8
03FFC0
03FFC0
03FFC0
ENDCHAR
STARTCHAR cacute
ENCODING 263
SWIDTH 480 0
DWIDTH 29 0
BBX 24 36 3 0
BITMAP
0001F8
0001F8
0001F8
000FC0
000FC0
000FC0
007E00
007E00
007E00
000000
000000
000000
03FFF8
03FFF8
03FFF8
1F803F
1F803F
1F803F
FC0000
FC0000
FC0000
FC0000
FC0000
FC0000
FC0000
FC0000
FC0000
FC0000
FC0000
FC0000
1F803F
1F803F
1F803F
03FFF8
03FFF8
03FFF8
ENDCHAR
STARTCHAR Ccircumflex
ENCODING 264
SWIDTH 480 0
DWIDTH 29 0
BBX 24 45 3 0
BITMAP
007E00
007E00
007E00
03FFC0
03FFC0
03FFC0
1F81F8
1F81F8
1F81F8
000000
000000
000000
03FFC0
03FFC0
03FFC0
1F81F8
1F81F8
1F81F8
FC003F
FC003F
FC003F
FC0000
FC0000
FC0000
FC0000
FC0000
FC0000
FC0000
FC0000
FC0000
FC0000
FC0000
FC0000
FC0000
FC0000
FC0000
FC003F
FC003F
FC003F
1F81F8
1F81F8
1F81F8
03FFC0
03FFC0
03FFC0
ENDCHAR
STARTCHAR ccircumflex
ENCODING 265
SWIDTH 480 0
DWIDTH 29 0
BBX 24 36 3 0
BITMAP
007E00
007E00
007E00
03FFC0
03FFC0
03FFC0
1F81F8
1F81F8
1F81F8
000000
000000
000000
03FFF8
03FFF8
03FFF8
1F803F
1F803F
1F803F
FC0000
FC0000
FC0000
FC0000
FC0000
FC0000
FC0000
FC0000
FC0000
FC0000
FC0000
FC0000
1F803F
1F803F
1F803F
03FFF8
03FFF8
03FFF8
ENDCHAR
STARTCHAR Cdotaccent
ENCODING 266
SWIDTH 480 0
DWIDTH 29 0
BBX 24 45 3 0
BITMAP
007E00
007E00
007E00
007E00
007E00
007E00
000000
000000
000000
03FFC0
03FFC0
03FFC0
1F81F8
1F81F8
1F81F8
FC003F
FC003F
FC003F
FC0000
FC0000
FC0000
FC0000
FC0000
FC0000
FC0000
FC0000
FC0000
FC0000
FC0000
FC0000
FC0000
FC0000
FC0000
FC0000
FC0000
FC0000
FC003F
FC003F
FC003F
1F81F8
1F81F8
1F81F8
03FFC0
03FFC0
03FFC0
ENDCHAR
STARTCHAR cdotaccent
ENCODING 267
SWIDTH 480 0
DWIDTH 29 0
BBX 24 33 3 0
BITMAP
007E00
007E00
007E00
007E00
007E00
007E00
000000
000000
000000
03FFF8
03FFF8
03FFF8
1F803F
1F803F
1F803F
FC0000
FC0000
FC0000
FC0000
FC0000
FC0000
FC0000
FC0000
FC0000
FC0000
FC0000
FC0000
1F803F
1F803F
1F803F
03FFF8
03FFF8
03FFF8
ENDCHAR
STARTCHAR Ccaron
ENCODING 268
SWIDTH 480 0
DWIDTH 29 0
BBX 24 45 3 0
BITMAP
1F81F8
1F81F8
1F81F8
03FFC0
03FFC0
03FFC0
007E00
007E00
007E00
000000
000000
000000
03FFC0
03FFC0
03FFC0
1F81F8
1F81F8
1F81F8
FC003F
FC003F
FC003F
FC0000
FC0000
FC0000
FC0000
FC0000
FC0000
FC0000
FC0000
FC0000
FC0000
FC0000
FC0000
FC0000
FC0000
FC0000
FC003F
FC003F
FC003F
1F81F8
1F81F8
1F81F8
03FFC0
03FFC0
03FFC0
ENDCHAR
STARTCHAR ccaron
ENCODING 269
SWIDTH 480 0
DWIDTH 29 0
BBX 24 36 3 0
BITMAP
1F81F8
1F81F8
1F81F8
03FFC0
03FFC0
03FFC0
007E00
007E00
007E00
000000
000000
000000
03FFF8
03FFF8
03FFF8
1F803F
1F803F
1F803F
FC0000
FC0000
FC0000
FC0000
FC0000
FC0000
FC0000
FC0000
FC0000
FC0000
FC0000
FC0000
1F803F
1F803F
1F803F
03FFF8
03FFF8
03FFF8
ENDCHAR
STARTCHAR Dcaron
ENCODING 270
SWIDTH 480 0
DWIDTH 29 0
BBX 24 45 3 0
BITMAP
1F81F8
1F81F8
1F81F8
03FFC0
03FFC0
03FFC0
007E00
007E00
007E00
000000
000000
000000
FFFFC0
FFFFC0
FFFFC0
FC01F8
FC01F8
FC01F8
FC003F
FC003F
FC003F
FC003F
FC003F
FC003F
FC003F
FC003F
FC003F
FC003F
FC003F
FC003F
FC003F
FC003F
FC003F
FC003F
FC003F
FC003F
FC003F
FC003F
FC003F
FC01F8
FC01F8
FC01F8
FFFFC0
FFFFC0
FFFFC0
ENDCHAR
STARTCHAR dcaron
ENCODING 271
SWIDTH 480 0
DWIDTH 29 0
BBX 24 45 3 0
BITMAP
FC0FC0
FC0FC0
FC0FC0
1FFE00
1FFE00
1FFE00
03F03F
03F03F
03F03F
00003F
00003F
00003F
00003F
00003F
00003F
00003F
00003F
00003F
00003F
00003F
00003F
03FE3F
03FE3F
03FE3F
1F81FF
1F81FF
1F81FF
FC003F
FC003F
FC003F
FC003F
FC003F
FC003F
FC003F
FC003F
FC003F
FC003F
FC003F
FC003F
1F81FF
1F81FF
1F81FF
03FE3F
03FE3F
03FE3F
ENDCHAR
STARTCHAR Dcroat
ENCODING 272
SWIDTH 480 0
DWIDTH 29 0
BBX 27 39 0 0
BITMAP
1FFFF800
1FFFF800
1FFFF800
1F803F00
1F803F00
1F803F00
1F8007E0
1F8007E0
1F8007E0
1F8007E0
1F8007E0
1F8007E0
1F8007E0
1F8007E0
1F8007E0
1F8007E0
1F8007E0
1F8007E0
FFFE07E0
FFFE07E0
FFFE07E0
1F8007E0
1F8007E0
1F8007E0
1F8007E0
1F8007E0
1F8007E0
1F8007E0
1F8007E0
1F8007E0
1F8007E0
1F8007E0
1F8007E0
1F803F00
1F803F00
1F803F00
1FFFF800
1FFFF800
1FFFF800
ENDCHAR
STARTCHAR dcroat
ENCODING 273
SWIDTH 480 0
DWIDTH 29 0
BBX 27 39 3 0
BITMAP
00003F00
00003F00
00003F00
00003F00
00003F00
00003F00
00003F00
00003F00
00003F00
000FFFE0
000FFFE0
000FFFE0
00003F00
00003F00
00003F00
03FE3F00
03FE3F00
03FE3F00
1F81FF00
1F81FF00
1F81FF00
FC003F00
FC003F00
FC003F00
FC003F00
FC003F00
FC003F00
FC003F00
FC003F00
FC003F00
FC003F00
FC003F00
FC003F00
1F81FF00
1F81FF00
1F81FF00
03FE3F00
03FE3F00
03FE3F00
ENDCHAR
STARTCHAR Emacron
ENCODING 274
SWIDTH 480 0
DWIDTH 29 0
BBX 24 45 3 0
BITMAP
FFFFFF
FFFFFF
FFFFFF
000000
000000
000000
FFFFFF
FFFFFF
FFFFFF
FC0000
FC0000
FC0000
FC0000
FC0000
FC0000
FC0000
FC0000
FC0000
FC0000
FC0000
FC0000
FC0000
FC0000
FC0000
FFFFC0
FFFFC0
FFFFC0
FC0000
FC0000
FC0000
FC0000
FC0000
FC0000
FC0000
FC0000
FC0000
FC0000
FC0000
FC0000
FC0000
FC0000
FC0000
FFFFFF
FFFFFF
FFFFFF
ENDCHAR
STARTCHAR emacron
ENCODING 275
SWIDTH 480 0
DWIDTH 29 0
BBX 24 30 3 0
BITMAP
FFFFFF
FFFFFF
FFFFFF
000000
000000
000000
03FFC0
03FFC0
03FFC0
1F81F8
1F81F8
1F81F8
FC003F
FC003F
FC003F
FFFFFF
FFFFFF
FFFFFF
FC0000
FC0000
FC0000
FC0000
FC0000
FC0000
1F803F
1F803F
1F803F
03FFF8
03FFF8
03FFF8
ENDCHAR
STARTCHAR Ebreve
ENCODING 276
SWIDTH 480 0
DWIDTH 29 0
BBX 24 45 3 0
BITMAP
1C0038
1C0038
1C0038
1F81F8
1F81F8
1F81F8
03FFC0
03FFC0
03FFC0
000000
000000
000000
FFFFFF
FFFFFF
FFFFFF
FC0000
FC0000
FC0000
FC0000
FC0000
FC0000
FC0000
FC0000
FC0000
FC0000
FC0000
FC0000
FFFFC0
FFFFC0
FFFFC0
FC0000
FC0000
FC0000
FC0000
FC0000
FC0000
FC0000
FC0000
FC0000
FC0000
FC0000
FC0000
FFFFFF
FFFFFF
FFFFFF
ENDCHAR
STARTCHAR ebreve
ENCODING 277
SWIDTH 480 0
DWIDTH 29 0
BBX 24 36 3 0
BITMAP
1C0038
1C0038
1C0038
1F81F8
1F81F8
1F81F8
03FFC0
03FFC0
03FFC0
000000
000000
000000
03FFC0
03FFC0
03FFC0
1F81F8
1F81F8
1F81F8
FC003F
FC003F
FC003F
FFFFFF
FFFFFF
FFFFFF
FC0000
FC0000
FC0000
FC0000
FC0000
FC0000
1F803F
1F803F
1F803F
03FFF8
03FFF8
03FFF8
ENDCHAR
STARTCHAR Edotaccent
ENCODING 278
SWIDTH 480 0
DWIDTH 29 0
BBX 24 45 3 0
BITMAP
007E00
007E00
007E00
007E00
007E00
007E00
000000
000000
000000
FFFFFF
FFFFFF
FFFFFF
FC0000
FC0000
FC0000
FC0000
FC0000
FC0000
FC0000
FC0000
FC0000
FC0000
FC0000
FC0000
FFFFC0
FFFFC0
FFFFC0
FC0000
FC0000
FC0000
FC0000
FC0000
FC0000
FC0000
FC0000
FC0000
FC0000
FC0000
FC0000
FC0000
FC0000
FC0000
FFFFFF
FFFFFF
FFFFFF
ENDCHAR
STARTCHAR edotaccent
ENCODING 279
SWIDTH 480 0
DWIDTH 29 0
BBX 24 33 3 0
BITMAP
007E00
007E00
007E00
007E00
007E00
007E00
000000
000000
000000
03FFC0
03FFC0
03FFC0
1F81F8
1F81F8
1F81F8
FC003F
FC003F
FC003F
FFFFFF
FFFFFF
FFFFFF
FC0000
FC0000
FC0000
FC0000
FC0000
FC0000
1F803F
1F803F
1F803F
03FFF8
03FFF8
03FFF8
ENDCHAR
STARTCHAR Eogonek
ENCODING 280
SWIDTH 480 0
DWIDTH 29 0
BBX 24 51 3 -12
BITMAP
FFFFFF
FFFFFF
FFFFFF
FC0000
FC0000
FC0000
FC0000
FC0000
FC0000
FC0000
FC0000
FC0000
FC0000
FC0000
FC0000
FC0000
FC0000
FC0000
FFFFC0
FFFFC0
FFFFC0
FC0000
FC0000
FC0000
FC0000
FC0000
FC0000
FC0000
FC0000
FC0000
FC0000
FC0000
FC0000
FC0000
FC0000
FC0000
FFFFFF
FFFFFF
FFFFFF
0001F8
0001F8
0001F8
000FF8
000FF8
000FF8
000FC0
000FC0
000FC0
0001FF
0001FF
0001FF
ENDCHAR
STARTCHAR eogonek
ENCODING 281
SWIDTH 480 0
DWIDTH 29 0
BBX 24 36 3 -12
BITMAP
03FFC0
03FFC0
03FFC0
1F81F8
1F81F8
1F81F8
FC003F
FC003F
FC003F
FFFFFF
FFFFFF
FFFFFF
FC0000
FC0000
FC0000
FC0000
FC0000
FC0000
1F803F
1F803F
1F803F
03FFF8
03FFF8
03FFF8
000FC0
000FC0
000FC0
007FC0
007FC0
007FC0
007E00
007E00
007E00
000FF8
000FF8
000FF8
ENDCHAR
STARTCHAR Ecaron
ENCODING 282
SWIDTH 480 0
DWIDTH 29 0
BBX 24 45 3 0
BITMAP
1F81F8
1F81F8
1F81F8
03FFC0
03FFC0
03FFC0
007E00
007E00
007E00
000000
000000
000000
FFFFFF
FFFFFF
FFFFFF
FC0000
FC0000
FC0000
FC0000
FC0000
FC0000
FC0000
FC0000
FC0000
FC0000
FC0000
FC0000
FFFFC0
FFFFC0
FFFFC0
FC0000
FC0000
FC0000
FC0000
FC0000
FC0000
FC0000
FC0000
FC0000
FC0000
FC0000
FC0000
FFFFFF
FFFFFF
FFFFFF
ENDCHAR
STARTCHAR ecaron
ENCODING 283
SWIDTH 480 0
DWIDTH 29 0
BBX 24 36 3 0
BITMAP
1F81F8
1F81F8
1F81F8
03FFC0
03FFC0
03FFC0
007E00
007E00
007E00
000000
000000
000000
03FFC0
03FFC0
03FFC0
1F81F8
1F81F8
1F81F8
FC003F
FC003F
FC003F
FFFFFF
FFFFFF
FFFFFF
FC0000
FC0000
FC0000
FC0000
FC0000
FC0000
1F803F
1F803F
1F803F
03FFF8
03FFF8
03FFF8
ENDCHAR
STARTCHAR Gcircumflex
ENCODING 284
SWIDTH 480 0
DWIDTH 29 0
BBX 24 45 3 0
BITMAP
007E00
007E00
007E00
03FFC0
03FFC0
03FFC0
1F81F8
1F81F8
1F81F8
000000
000000
000000
03FFC0
03FFC0
03FFC0
1F81F8
1F81F8
1F81F8
FC003F
FC003F
FC003F
FC0000
FC0000
FC0000
FC0000
FC0000
FC0000
FC0FFF
FC0FFF
FC0FFF
FC003F
FC003F
FC003F
FC003F
FC003F
FC003F
FC003F
FC003F
FC003F
1F81FF
1F81FF
1F81FF
03FFC7
03FFC7
03FFC7
ENDCHAR
STARTCHAR gcircumflex
ENCODING 285
SWIDTH 480 0
DWIDTH 29 0
BBX 24 48 3 -12
BITMAP
007E00
007E00
007E00
03FFC0
03FFC0
03FFC0
1F81F8
1F81F8
1F81F8
000000
000000
000000
1FFFC7
1FFFC7
1FFFC7
FC01FF
FC01FF
FC01FF
FC01F8
FC01F8
FC01F8
FC01F8
FC01F8
FC01F8
FC01F8
FC01F8
FC01F8
1FFFC0
1FFFC0
1FFFC0
FC0000
FC0000
FC0000
1FFFF8
1FFFF8
1FFFF8
FC003F
FC003F
FC003F
FC003F
FC003F
FC003F
FC003F
FC003F
FC003F
1FFFF8
1FFFF8
1FFFF8
ENDCHAR
STARTCHAR Gbreve
ENCODING 286
SWIDTH 480 0
DWIDTH 29 0
BBX 24 45 3 0
BITMAP
1C0038
1C0038
1C0038
1F81F8
1F81F8
1F81F8
03FFC0
03FFC0
03FFC0
000000
000000
000000
03FFC0
03FFC0
03FFC0
1F81F8
1F81F8
1F81F8
FC003F
FC003F
FC003F
FC0000
FC0000
FC0000
FC0000
FC0000
FC0000
FC0FFF
FC0FFF
FC0FFF
FC003F
FC003F
FC003F
FC003F
FC003F
FC003F
FC003F
FC003F
FC003F
1F81FF
1F81FF
1F81FF
03FFC7
03FFC7
03FFC7
ENDCHAR
STARTCHAR gbreve
ENCODING 287
SWIDTH 480 0
DWIDTH 29 0
BBX 24 48 3 -12
BITMAP
1C0038
1C0038
1C0038
1F81F8
1F81F8
1F81F8
03FFC0
03FFC0
03FFC0
000000
000000
000000
1FFFC7
1FFFC7
1FFFC7
FC01FF
FC01FF
FC01FF
FC01F8
FC01F8
FC01F8
FC01F8
FC01F8
FC01F8
FC01F8
FC01F8
FC01F8
1FFFC0
1FFFC0
1FFFC0
FC0000
FC0000
FC0000
1FFFF8
1FFFF8
1FFFF8
FC003F
FC003F
FC003F
FC003F
FC003F
FC003F
FC003F
FC003F
FC003F
1FFFF8
1FFFF8
1FFFF8
ENDCHAR
STARTCHAR Gdotaccent
ENCODING 288
SWIDTH 480 0
DWIDTH 29 0
BBX 24 45 3 0
BITMAP
007E00
007E00
007E00
007E00
007E00
007E00
000000
000000
000000
03FFC0
03FFC0
03FFC0
1F81F8
1F81F8
1F81F8
FC003F
FC003F
FC003F
FC0000
FC0000
FC0000
FC0000
FC0000
FC0000
FC0FFF
FC0FFF
FC0FFF
FC003F
FC003F
FC003F
FC003F
FC003F
FC003F
FC003F
FC003F
FC003F
FC003F
FC003F
FC003F
1F81FF
1F81FF
1F81FF
03FFC7
03FFC7
03FFC7
ENDCHAR
STARTCHAR gdotaccent
ENCODING 289
SWIDTH 480 0
DWIDTH 29 0
BBX 24 45 3 -12
BITMAP
007E00
007E00
007E00
007E00
007E00
007E00
000000
000000
000000
1FFFC7
1FFFC7
1FFFC7
FC01FF
FC01FF
FC01FF
FC01F8
FC01F8
FC01F8
FC01F8
FC01F8
FC01F8
FC01F8
FC01F8
FC01F8
1FFFC0
1FFFC0
1FFFC0
FC0000
FC0000
FC0000
1FFFF8
1FFFF8
1FFFF8
FC003F
FC003F
FC003F
FC003F
FC003F
FC003F
FC003F
FC003F
FC003F
1FFFF8
1FFFF8
1FFFF8
ENDCHAR
STARTCHAR Gcommaaccent
ENCODING 290
SWIDTH 480 0
DWIDTH 29 0
BBX 24 48 3 -9
BITMAP
03FFC0
03FFC0
03FFC0
1F81F8
1F81F8
1F81F8
FC003F
FC003F
FC003F
FC0000
FC0000
FC0000
FC0000
FC0000
FC0000
FC0000
FC0000
FC0000
FC0FFF
FC0FFF
FC0FFF
FC003F
FC003F
FC003F
FC003F
FC003F
FC003F
FC003F
FC003F
FC003F
FC003F
FC003F
FC003F
1F81FF
1F81FF
1F81FF
03FFC7
03FFC7
03FFC7
007E00
007E00
007E00
000FC0
000FC0
000FC0
03FE00
03FE00
03FE00
ENDCHAR
STARTCHAR gcommaaccent
ENCODING 291
SWIDTH 480 0
DWIDTH 29 0
BBX 24 51 3 -12
BITMAP
007000
007000
007000
038000
038000
038000
03F000
03F000
03F000
03F000
03F000
03F000
000000
000000
000000
1FFFC7
1FFFC7
1FFFC7
FC01FF
FC01FF
FC01FF
FC01F8
FC01F8
FC01F8
FC01F8
FC01F8
FC01F8
FC01F8
FC01F8
FC01F8
1FFFC0
1FFFC0
1FFFC0
FC0000
FC0000
FC0000
1FFFF8
1FFFF8
1FFFF8
FC003F
FC003F
FC003F
FC003F
FC003F
FC003F
FC003F
FC003F
FC003F
1FFFF8
1FFFF8
1FFFF8
ENDCHAR
STARTCHAR Hcircumflex
ENCODING 292
SWIDTH 480 0
DWIDTH 29 0
BBX 24 45 3 0
BITMAP
007E00
007E00
007E00
03FFC0
03FFC0
03FFC0
1F81F8
1F81F8
1F81F8
000000
000000
000000
FC003F
FC003F
FC003F
FC003F
FC003F
FC003F
FC003F
FC003F
FC003F
FC003F
FC003F
FC003F
FFFFFF
FFFFFF
FFFFFF
FC003F
FC003F
FC003F
FC003F
FC003F
FC003F
FC003F
FC003F
FC003F
FC003F
FC003F
FC003F
FC003F
FC003F
FC003F
FC003F
FC003F
FC003F
ENDCHAR
STARTCHAR hcircumflex
ENCODING 293
SWIDTH 480 0
DWIDTH 29 0
BBX 24 48 3 0
BITMAP
007E00
007E00
007E00
03FFC0
03FFC0
03FFC0
1F81F8
1F81F8
1F81F8
000000
000000
000000
FC0000
FC0000
FC0000
FC0000
FC0000
FC0000
FC0000
FC0000
FC0000
FC0000
FC0000
FC0000
FC7FC0
FC7FC0
FC7FC0
FF81F8
FF81F8
FF81F8
FC003F
FC003F
FC003F
FC003F
FC003F
FC003F
FC003F
FC003F
FC003F
FC003F
FC003F
FC003F
FC003F
FC003F
FC003F
FC003F
FC003F
FC003F
ENDCHAR
STARTCHAR Hbar
ENCODING 294
SWIDTH 480 0
DWIDTH 29 0
BBX 30 39 0 0
BITMAP
1F8007E0
1F8007E0
1F8007E0
1F8007E0
1F8007E0
1F8007E0
FFFFFFFC
FFFFFFFC
FFFFFFFC
1F8007E0
1F8007E0
1F8007E0
1F8007E0
1F8007E0
1F8007E0
1F8007E0
1F8007E0
1F8007E0
1FFFFFE0
1FFFFFE0
1FFFFFE0
1F8007E0
1F8007E0
1F8007E0
1F8007E0
1F8007E0
1F8007E0
1F8007E0
1F8007E0
1F8007E0
1F8007E0
1F8007E0
1F8007E0
1F8007E0
1F8007E0
1F8007E0
1F8007E0
1F8007E0
1F8007E0
ENDCHAR
STARTCHAR hbar
ENCODING 295
SWIDTH 480 0
DWIDTH 29 0
BBX 27 39 0 0
BITMAP
1F800000
1F800000
1F800000
1F800000
1F800000
1F800000
1F800000
1F800000
1F800000
FFFE0000
FFFE0000
FFFE0000
1F800000
1F800000
1F800000
1F8FF800
1F8FF800
1F8FF800
1FF03F00
1FF03F00
1FF03F00
1F8007E0
1F8007E0
1F8007E0
1F8007E0
1F8007E0
1F8007E0
1F8007E0
1F8007E0
1F8007E0
1F8007E0
1F8007E0
1F8007E0
1F8007E0
1F8007E0
1F8007E0
1F8007E0
1F8007E0
1F8007E0
ENDCHAR
STARTCHAR Itilde
ENCODING 296
SWIDTH 480 0
DWIDTH 29 0
BBX 24 45 3 0
BITMAP
03F038
03F038
03F038
1FFFF8
1FFFF8
1FFFF8
1C0FC0
1C0FC0
1C0FC0
000000
000000
000000
FFFFFF
FFFFFF
FFFFFF
007E00
007E00
007E00
007E00
007E00
007E00
007E00
007E00
007E00
007E00
007E00
007E00
007E00
007E00
007E00
007E00
007E00
007E00
007E00
007E00
007E00
007E00
007E00
007E00
007E00
007E00
007E00
FFFFFF
FFFFFF
FFFFFF
ENDCHAR
STARTCHAR itilde
ENCODING 297
SWIDTH 480 0
DWIDTH 29 0
BBX 24 36 3 0
BITMAP
03F038
03F038
03F038
1FFFF8
1FFFF8
1FFFF8
1C0FC0
1C0FC0
1C0FC0
000000
000000
000000
1FFE00
1FFE00
1FFE00
007E00
007E00
007E00
007E00
007E00
007E00
007E00
007E00
007E00
007E00
007E00
007E00
007E00
007E00
007E00
007E00
007E00
007E00
FFFFFF
FFFFFF
FFFFFF
ENDCHAR
STARTCHAR Imacron
ENCODING 298
SWIDTH 480 0
DWIDTH 29 0
BBX 24 45 3 0
BITMAP
FFFFFF
FFFFFF
FFFFFF
000000
000000
000000
FFFFFF
FFFFFF
FFFFFF
007E00
007E00
007E00
007E00
007E00
007E00
007E00
007E00
007E00
007E00
007E00
007E00
007E00
007E00
007E00
007E00
007E00
007E00
007E00
007E00
007E00
007E00
007E00
007E00
007E00
007E00
007E00
007E00
007E00
007E00
007E00
007E00
007E00
FFFFFF
FFFFFF
FFFFFF
ENDCHAR
STARTCHAR imacron
ENCODING 299
SWIDTH 480 0
DWIDTH 29 0
BBX 24 30 3 0
BITMAP
FFFFF8
FFFFF8
FFFFF8
000000
000000
000000
1FFE00
1FFE00
1FFE00
007E00
007E00
007E00
007E00
007E00
007E00
007E00
007E00
007E00
007E00
007E00
007E00
007E00
007E00
007E00
007E00
007E00
007E00
FFFFFF
FFFFFF
FFFFFF
ENDCHAR
STARTCHAR Ibreve
ENCODING 300
SWIDTH 480 0
DWIDTH 29 0
BBX 24 45 3 0
BITMAP
1C0038
1C0038
1C0038
1F81F8
1F81F8
1F81F8
03FFC0
03FFC0
03FFC0
000000
000000
000000
FFFFFF
FFFFFF
FFFFFF
007E00
007E00
007E00
007E00
007E00
007E00
007E00
007E00
007E00
007E00
007E00
007E00
007E00
007E00
007E00
007E00
007E00
007E00
007E00
007E00
007E00
007E00
007E00
007E00
007E00
007E00
007E00
FFFFFF
FFFFFF
FFFFFF
ENDCHAR
STARTCHAR ibreve
ENCODING 301
SWIDTH 480 0
DWIDTH 29 0
BBX 24 36 3 0
BITMAP
1C0038
1C0038
1C0038
1F81F8
1F81F8
1F81F8
03FFC0
03FFC0
03FFC0
000000
000000
000000
1FFE00
1FFE00
1FFE00
007E00
007E00
007E00
007E00
007E00
007E00
007E00
007E00
007E00
007E00
007E00
007E00
007E00
007E00
007E00
007E00
007E00
007E00
FFFFFF
FFFFFF
FFFFFF
ENDCHAR
STARTCHAR Iogonek
ENCODING 302
SWIDTH 480 0
DWIDTH 29 0
BBX 24 51 3 -12
BITMAP
FFFFFF
FFFFFF
FFFFFF
007E00
007E00
007E00
007E00
007E00
007E00
007E00
007E00
007E00
007E00
007E00
007E00
007E00
007E00
007E00
007E00
007E00
007E00
007E00
007E00
007E00
007E00
007E00
007E00
007E00
007E00
007E00
007E00
007E00
007E00
007E00
007E00
007E00
FFFFFF
FFFFFF
FFFFFF
0001F8
0001F8
0001F8
000FF8
000FF8
000FF8
000FC0
000FC0
000FC0
0001FF
0001FF
0001FF
ENDCHAR
STARTCHAR iogonek
ENCODING 303
SWIDTH 480 0
DWIDTH 29 0
BBX 24 45 3 -12
BITMAP
007E00
007E00
007E00
007E00
007E00
007E00
000000
000000
000000
1FFE00
1FFE00
1FFE00
007E00
007E00
007E00
007E00
007E00
007E00
007E00
007E00
007E00
007E00
007E00
007E00
007E00
007E00
007E00
007E00
007E00
007E00
FFFFFF
FFFFFF
FFFFFF
00003F
00003F
00003F
0001FF
0001FF
0001FF
0001F8
0001F8
0001F8
00003F
00003F
00003F
ENDCHAR
STARTCHAR Idotaccent
ENCODING 304
SWIDTH 480 0
DWIDTH 29 0
BBX 24 45 3 0
BITMAP
007E00
007E00
007E00
007E00
007E00
007E00
000000
000000
000000
FFFFFF
FFFFFF
FFFFFF
007E00
007E00
007E00
007E00
007E00
007E00
007E00
007E00
007E00
007E00
007E00
007E00
007E00
007E00
007E00
007E00
007E00
007E00
007E00
007E00
007E00
007E00
007E00
007E00
007E00
007E00
007E00
007E00
007E00
007E00
FFFFFF
FFFFFF
FFFFFF
ENDCHAR
STARTCHAR dotlessi
ENCODING 305
SWIDTH 480 0
DWIDTH 29 0
BBX 24 24 3 0
BITMAP
1FFE00
1FFE00
1FFE00
007E00
007E00
007E00
007E00
007E00
007E00
007E00
007E00
007E00
007E00
007E00
007E00
007E00
007E00
007E00
007E00
007E00
007E00
FFFFFF
FFFFFF
FFFFFF
ENDCHAR
STARTCHAR IJ
ENCODING 306
SWIDTH 480 0
DWIDTH 29 0
BBX 27 48 0 -9
BITMAP
FFFFFFE0
FFFFFFE0
FFFFFFE0
03F007E0
03F007E0
03F007E0
03F007E0
03F007E0
03F007E0
03F007E0
03F007E0
03F007E0
03F007E0
03F007E0
03F007E0
03F007E0
03F007E0
03F007E0
03F007E0
03F007E0
03F007E0
03F007E0
03F007E0
03F007E0
03F007E0
03F007E0
03F007E0
03F007E0
03F007E0
03F007E0
03F007E0
03F007E0
03F007E0
03F007E0
03F007E0
03F007E0
FFFFC7E0
FFFFC7E0
FFFFC7E0
000007E0
000007E0
000007E0
03F007E0
03F007E0
03F007E0
007FFF00
007FFF00
007FFF00
ENDCHAR
STARTCHAR ij
ENCODING 307
SWIDTH 480 0
DWIDTH 29 0
BBX 27 45 0 -12
BITMAP
03F007E0
03F007E0
03F007E0
03F007E0
03F007E0
03F007E0
00000000
00000000
00000000
FFF1FFE0
FFF1FFE0
FFF1FFE0
03F007E0
03F007E0
03F007E0
03F007E0
03F007E0
03F007E0
03F007E0
03F007E0
03F007E0
03F007E0
03F007E0
03F007E0
03F007E0
03F007E0
03F007E0
03F007E0
03F007E0
03F007E0
FFFFC7E0
FFFFC7E0
FFFFC7E0
000007E0
000007E0
000007E0
03F007E0
03F007E0
03F007E0
03F007E0
03F007E0
03F007E0
007FFF00
007FFF00
007FFF00
ENDCHAR
STARTCHAR Jcircumflex
ENCODING 308
SWIDTH 480 0
DWIDTH 29 0
BBX 27 45 0 0
BITMAP
0001F800
0001F800
0001F800
000FFF00
000FFF00
000FFF00
007E07E0
007E07E0
007E07E0
00000000
00000000
00000000
007FFF00
007FFF00
007FFF00
00003F00
00003F00
00003F00
00003F00
00003F00
00003F00
00003F00
00003F00
00003F00
00003F00
00003F00
00003F00
00003F00
00003F00
00003F00
00003F00
00003F00
00003F00
FC003F00
FC003F00
FC003F00
FC003F00
FC003F00
FC003F00
1F81F800
1F81F800
1F81F800
03FFC000
03FFC000
03FFC000
ENDCHAR
STARTCHAR jcircumflex
ENCODING 309
SWIDTH 480 0
DWIDTH 29 0
BBX 24 48 3 -12
BITMAP
000FC0
000FC0
000FC0
007FF8
007FF8
007FF8
03F03F
03F03F
03F03F
000000
000000
000000
007FF8
007FF8
007FF8
0001F8
0001F8
0001F8
0001F8
0001F8
0001F8
0001F8
0001F8
0001F8
0001F8
0001F8
0001F8
0001F8
0001F8
0001F8
0001F8
0001F8
0001F8
0001F8
0001F8
0001F8
FC01F8
FC01F8
FC01F8
FC01F8
FC01F8
FC01F8
FC01F8
FC01F8
FC01F8
1FFFC0
1FFFC0
1FFFC0
ENDCHAR
STARTCHAR Kcommaaccent
ENCODING 310
SWIDTH 480 0
DWIDTH 29 0
BBX 24 51 3 -12
BITMAP
FC003F
FC003F
FC003F
FC003F
FC003F
FC003F
FC01F8
FC01F8
FC01F8
FC01F8
FC01F8
FC01F8
FC0FC0
FC0FC0
FC0FC0
FC0FC0
FC0FC0
FC0FC0
FFFE00
FFFE00
FFFE00
FC0FC0
FC0FC0
FC0FC0
FC0FC0
FC0FC0
FC0FC0
FC01F8
FC01F8
FC01F8
FC01F8
FC01F8
FC01F8
FC003F
FC003F
FC003F
FC003F
FC003F
FC003F
FF8000
FF8000
FF8000
03F000
03F000
03F000
03F000
03F000
03F000
FF8000
FF8000
FF8000
ENDCHAR
STARTCHAR kcommaaccent
ENCODING 311
SWIDTH 480 0
DWIDTH 29 0
BBX 24 51 3 -12
BITMAP
FC0000
FC0000
FC0000
FC0000
FC0000
FC0000
FC0000
FC0000
FC0000
FC0000
FC0000
FC0000
FC0000
FC0000
FC0000
FC01F8
FC01F8
FC01F8
FC0FC0
FC0FC0
FC0FC0
FC7E00
FC7E00
FC7E00
FFF000
FFF000
FFF000
FFFE00
FFFE00
FFFE00
FC0FC0
FC0FC0
FC0FC0
FC01F8
FC01F8
FC01F8
FC003F
FC003F
FC003F
FF8000
FF8000
FF8000
03F000
03F000
03F000
03F000
03F000
03F000
FF8000
FF8000
FF8000
ENDCHAR
STARTCHAR kgreenlandic
ENCODING 312
SWIDTH 480 0
DWIDTH 29 0
BBX 21 24 3 0
BITMAP
FC0FC0
FC0FC0
FC0FC0
FC7E00
FC7E00
FC7E00
FFF000
FFF000
FFF000
FF8000
FF8000
FF8000
FFF000
FFF000
FFF000
FC7E00
FC7E00
FC7E00
FC0FC0
FC0FC0
FC0FC0
FC01F8
FC01F8
FC01F8
ENDCHAR
STARTCHAR Lacute
ENCODING 313
SWIDTH 480 0
DWIDTH 29 0
BBX 24 45 3 0
BITMAP
03F000
03F000
03F000
1F8000
1F8000
1F8000
FC0000
FC0000
FC0000
000000
000000
000000
FC0000
FC0000
FC0000
FC0000
FC0000
FC0000
FC0000
FC0000
FC0000
FC0000
FC0000
FC0000
FC0000
FC0000
FC0000
FC0000
FC0000
FC0000
FC0000
FC0000
FC0000
FC0000
FC0000
FC0000
FC0000
FC0000
FC0000
FC0000
FC0000
FC0000
FFFFFF
FFFFFF
FFFFFF
ENDCHAR
STARTCHAR lacute
ENCODING 314
SWIDTH 480 0
DWIDTH 29 0
BBX 24 45 3 0
BITMAP
000FC0
000FC0
000FC0
007E00
007E00
007E00
03F000
03F000
03F000
000000
000000
000000
1FFE00
1FFE00
1FFE00
007E00
007E00
007E00
007E00
007E00
007E00
007E00
007E00
007E00
007E00
007E00
007E00
007E00
007E00
007E00
007E00
007E00
007E00
007E00
007E00
007E00
007E00
007E00
007E00
007E00
007E00
007E00
FFFFFF
FFFFFF
FFFFFF
ENDCHAR
STARTCHAR Lcommaaccent
ENCODING 315
SWIDTH 480 0
DWIDTH 29 0
BBX 24 51 3 -12
BITMAP
FC0000
FC0000
FC0000
FC0000
FC0000
FC0000
FC0000
FC0000
FC0000
FC0000
FC0000
FC0000
FC0000
FC0000
FC0000
FC0000
FC0000
FC0000
FC0000
FC0000
FC0000
FC0000
FC0000
FC0000
FC0000
FC0000
FC0000
FC0000
FC0000
FC0000
FC0000
FC0000
FC0000
FC0000
FC0000
FC0000
FFFFFF
FFFFFF
FFFFFF
1F8000
1F8000
1F8000
03F000
03F000
03F000
03F000
03F000
03F000
FF8000
FF8000
FF8000
ENDCHAR
STARTCHAR lcommaaccent
ENCODING 316
SWIDTH 480 0
DWIDTH 29 0
BBX 24 51 3 -12
BITMAP
1FFE00
1FFE00
1FFE00
007E00
007E00
007E00
007E00
007E00
007E00
007E00
007E00
007E00
007E00
007E00
007E00
007E00
007E00
007E00
007E00
007E00
007E00
007E00
007E00
007E00
007E00
007E00
007E00
007E00
007E00
007E00
007E00
007E00
007E00
007E00
007E00
007E00
FFFFFF
FFFFFF
FFFFFF
007E00
007E00
007E00
000FC0
000FC0
000FC0
000FC0
000FC0
000FC0
03FE00
03FE00
03FE00
ENDCHAR
STARTCHAR Lcaron
ENCODING 317
SWIDTH 480 0
DWIDTH 29 0
BBX 27 45 0 0
BITMAP
FC0FC000
FC0FC000
FC0FC000
1FFE0000
1FFE0000
1FFE0000
03F00000
03F00000
03F00000
00000000
00000000
00000000
1F800000
1F800000
1F800000
1F800000
1F800000
1F800000
1F800000
1F800000
1F800000
1F800000
1F800000
1F800000
1F800000
1F800000
1F800000
1F800000
1F800000
1F800000
1F800000
1F800000
1F800000
1F800000
1F800000
1F800000
1F800000
1F800000
1F800000
1F800000
1F800000
1F800000
1FFFFFE0
1FFFFFE0
1FFFFFE0
ENDCHAR
STARTCHAR lcaron
ENCODING 318
SWIDTH 480 0
DWIDTH 29 0
BBX 24 45 3 0
BITMAP
1F81F8
1F81F8
1F81F8
03FFC0
03FFC0
03FFC0
007E00
007E00
007E00
000000
000000
000000
1FFE00
1FFE00
1FFE00
007E00
007E00
007E00
007E00
007E00
007E00
007E00
007E00
007E00
007E00
007E00
007E00
007E00
007E00
007E00
007E00
007E00
007E00
007E00
007E00
007E00
007E00
007E00
007E00
007E00
007E00
007E00
FFFFFF
FFFFFF
FFFFFF
ENDCHAR
STARTCHAR Ldot
ENCODING 319
SWIDTH 480 0
DWIDTH 29 0
BBX 24 39 3 0
BITMAP
FC0000
FC0000
FC0000
FC0000
FC0000
FC0000
FC0000
FC0000
FC0000
FC0000
FC0000
FC0000
FC0000
FC0000
FC0000
FC0FC0
FC0FC0
FC0FC0
FC0FC0
FC0FC0
FC0FC0
FC0000
FC0000
FC0000
FC0000
FC0000
FC0000
FC0000
FC0000
FC0000
FC0000
FC0000
FC0000
FC0000
FC0000
FC0000
FFFFFF
FFFFFF
FFFFFF
ENDCHAR
STARTCHAR ldot
ENCODING 320
SWIDTH 480 0
DWIDTH 29 0
BBX 27 39 0 0
BITMAP
1FFE0000
1FFE0000
1FFE0000
007E0000
007E0000
007E0000
007E0000
007E0000
007E0000
007E0000
007E0000
007E0000
007E0000
007E0000
007E0000
007E0000
007E0000
007E0000
007E07E0
007E07E0
007E07E0
007E07E0
007E07E0
007E07E0
007E0000
007E0000
007E0000
007E0000
007E0000
007E0000
007E0000
007E0000
007E0000
007E0000
007E0000
007E0000
FFFFFF00
FFFFFF00
FFFFFF00
ENDCHAR
STARTCHAR Lslash
ENCODING 321
SWIDTH 480 0
DWIDTH 29 0
BBX 27 39 0 0
BITMAP
1F800000
1F800000
1F800000
1F800000
1F800000
1F800000
1F800000
1F800000
1F800000
1F800000
1F800000
1F800000
1F800000
1F800000
1F800000
1F8FC000
1F8FC000
1F8FC000
1FF00000
1FF00000
1FF00000
FF800000
FF800000
FF800000
1F800000
1F800000
1F800000
1F800000
1F800000
1F800000
1F800000
1F800000
1F800000
1F800000
1F800000
1F800000
1FFFFFE0
1FFFFFE0
1FFFFFE0
ENDCHAR
STARTCHAR lslash
ENCODING 322
SWIDTH 480 0
DWIDTH 29 0
BBX 24 39 3 0
BITMAP
1FFE00
1FFE00
1FFE00
007E00
007E00
007E00
007E00
007E00
007E00
007E00
007E00
007E00
007E00
007E00
007E00
007E00
007E00
007E00
007FF8
007FF8
007FF8
1FFE00
1FFE00
1FFE00
007E00
007E00
007E00
007E00
007E00
007E00
007E00
007E00
007E00
007E00
007E00
007E00
FFFFFF
FFFFFF
FFFFFF
ENDCHAR
STARTCHAR Nacute
ENCODING 323
SWIDTH 480 0
DWIDTH 29 0
BBX 24 45 3 0
BITMAP
0001F8
0001F8
0001F8
000FC0
000FC0
000FC0
007E00
007E00
007E00
FC003F
FC003F
FC003F
FF803F
FF803F
FF803F
FF803F
FF803F
FF803F
FFF03F
FFF03F
FFF03F
FFF03F
FFF03F
FFF03F
FC7E3F
FC7E3F
FC7E3F
FC7E3F
FC7E3F
FC7E3F
FC0FFF
FC0FFF
FC0FFF
FC0FFF
FC0FFF
FC0FFF
FC01FF
FC01FF
FC01FF
FC01FF
FC01FF
FC01FF
FC003F
FC003F
FC003F
ENDCHAR
STARTCHAR nacute
ENCODING 324
SWIDTH 480 0
DWIDTH 29 0
BBX 24 36 3 0
BITMAP
0001F8
0001F8
0001F8
000FC0
000FC0
000FC0
007E00
007E00
007E00
000000
000000
000000
FC7FC0
FC7FC0
FC7FC0
FF81F8
FF81F8
FF81F8
FC003F
FC003F
FC003F
FC003F
FC003F
FC003F
FC003F
FC003F
FC003F
FC003F
FC003F
FC003F
FC003F
FC003F
FC003F
FC003F
FC003F
FC003F
ENDCHAR
STARTCHAR Ncommaaccent
ENCODING 325
SWIDTH 480 0
DWIDTH 29 0
BBX 24 51 3 -12
BITMAP
FC003F
FC003F
FC003F
FF803F
FF803F
FF803F
FF803F
FF803F
FF803F
FFF03F
FFF03F
FFF03F
FFF03F
FFF03F
FFF03F
FC7E3F
FC7E3F
FC7E3F
FC7E3F
FC7E3F
FC7E3F
FC0FFF
FC0FFF
FC0FFF
FC0FFF
FC0FFF
FC0FFF
FC01FF
FC01FF
FC01FF
FC01FF
FC01FF
FC01FF
FC003F
FC003F
FC003F
FC003F
FC003F
FC003F
FF8000
FF8000
FF8000
03F000
03F000
03F000
03F000
03F000
03F000
FF8000
FF8000
FF8000
ENDCHAR
STARTCHAR ncommaaccent
ENCODING 326
SWIDTH 480 0
DWIDTH 29 0
BBX 24 36 3 -12
BITMAP
FC7FC0
FC7FC0
FC7FC0
FF81F8
FF81F8
FF81F8
FC003F
FC003F
FC003F
FC003F
FC003F
FC003F
FC003F
FC003F
FC003F
FC003F
FC003F
FC003F
FC003F
FC003F
FC003F
FC003F
FC003F
FC003F
FF8000
FF8000
FF8000
03F000
03F000
03F000
03F000
03F000
03F000
FF8000
FF8000
FF8000
ENDCHAR
STARTCHAR Ncaron
ENCODING 327
SWIDTH 480 0
DWIDTH 29 0
BBX 24 45 3 0
BITMAP
1F81F8
1F81F8
1F81F8
03FFC0
03FFC0
03FFC0
007E00
007E00
007E00
FC003F
FC003F
FC003F
FF803F
FF803F
FF803F
FF803F
FF803F
FF803F
FFF03F
FFF03F
FFF03F
FFF03F
FFF03F
FFF03F
FC7E3F
FC7E3F
FC7E3F
FC7E3F
FC7E3F
FC7E3F
FC0FFF
FC0FFF
FC0FFF
FC0FFF
FC0FFF
FC0FFF
FC01FF
FC01FF
FC01FF
FC01FF
FC01FF
FC01FF
FC003F
FC003F
FC003F
ENDCHAR
STARTCHAR ncaron
ENCODING 328
SWIDTH 480 0
DWIDTH 29 0
BBX 24 36 3 0
BITMAP
1F81F8
1F81F8
1F81F8
03FFC0
03FFC0
03FFC0
007E00
007E00
007E00
000000
000000
000000
FC7FC0
FC7FC0
FC7FC0
FF81F8
FF81F8
FF81F8
FC003F
FC003F
FC003F
FC003F
FC003F
FC003F
FC003F
FC003F
FC003F
FC003F
FC003F
FC003F
FC003F
FC003F
FC003F
FC003F
FC003F
FC003F
ENDCHAR
STARTCHAR napostrophe
ENCODING 329
SWIDTH 480 0
DWIDTH 29 0
BBX 27 39 0 0
BITMAP
FC000000
FC000000
FC000000
FC000000
FC000000
FC000000
1C000000
1C000000
1C000000
E0000000
E0000000
E0000000
00000000
00000000
00000000
1F8FF800
1F8FF800
1F8FF800
1FF03F00
1FF03F00
1FF03F00
1F8007E0
1F8007E0
1F8007E0
1F8007E0
1F8007E0
1F8007E0
1F8007E0
1F8007E0
1F8007E0
1F8007E0
1F8007E0
1F8007E0
1F8007E0
1F8007E0
1F8007E0
1F8007E0
1F8007E0
1F8007E0
ENDCHAR
STARTCHAR Eng
ENCODING 330
SWIDTH 480 0
DWIDTH 29 0
BBX 24 51 3 -12
BITMAP
FC003F
FC003F
FC003F
FF803F
FF803F
FF803F
FF803F
FF803F
FF803F
FFF03F
FFF03F
FFF03F
FFF03F
FFF03F
FFF03F
FC7E3F
FC7E3F
FC7E3F
FC7E3F
FC7E3F
FC7E3F
FC0FFF
FC0FFF
FC0FFF
FC0FFF
FC0FFF
FC0FFF
FC01FF
FC01FF
FC01FF
FC01FF
FC01FF
FC01FF
FC003F
FC003F
FC003F
FC003F
FC003F
FC003F
00003F
00003F
00003F
00003F
00003F
00003F
00003F
00003F
00003F
0001F8
0001F8
0001F8
ENDCHAR
STARTCHAR eng
ENCODING 331
SWIDTH 480 0
DWIDTH 29 0
BBX 24 36 3 -12
BITMAP
FC7FC0
FC7FC0
FC7FC0
FF81F8
FF81F8
FF81F8
FC003F
FC003F
FC003F
FC003F
FC003F
FC003F
FC003F
FC003F
FC003F
FC003F
FC003F
FC003F
FC003F
FC003F
FC003F
FC003F
FC003F
FC003F
00003F
00003F
00003F
00003F
00003F
00003F
00003F
00003F
00003F
0001F8
0001F8
0001F8
ENDCHAR
STARTCHAR Omacron
ENCODING 332
SWIDTH 480 0
DWIDTH 29 0
BBX 24 45 3 0
BITMAP
FFFFFF
FFFFFF
FFFFFF
000000
000000
000000
03FFC0
03FFC0
03FFC0
1F81F8
1F81F8
1F81F8
FC003F
FC003F
FC003F
FC003F
FC003F
FC003F
FC003F
FC003F
FC003F
FC003F
FC003F
FC003F
FC003F
FC003F
FC003F
FC003F
FC003F
FC003F
FC003F
FC003F
FC003F
FC003F
FC003F
FC003F
FC003F
FC003F
FC003F
1F81F8
1F81F8
1F81F8
03FFC0
03FFC0
03FFC0
ENDCHAR
STARTCHAR omacron
ENCODING 333
SWIDTH 480 0
DWIDTH 29 0
BBX 24 30 3 0
BITMAP
FFFFFF
FFFFFF
FFFFFF
000000
000000
000000
03FFC0
03FFC0
03FFC0
1F81F8
1F81F8
1F81F8
FC003F
FC003F
FC003F
FC003F
FC003F
FC003F
FC003F
FC003F
FC003F
FC003F
FC003F
FC003F
1F81F8
1F81F8
1F81F8
03FFC0
03FFC0
03FFC0
ENDCHAR
STARTCHAR Obreve
ENCODING 334
SWIDTH 480 0
DWIDTH 29 0
BBX 24 45 3 0
BITMAP
1C0038
1C0038
1C0038
1F81F8
1F81F8
1F81F8
03FFC0
03FFC0
03FFC0
000000
000000
000000
03FFC0
03FFC0
03FFC0
1F81F8
1F81F8
1F81F8
FC003F
FC003F
FC003F
FC003F
FC003F
FC003F
FC003F
FC003F
FC003F
FC003F
FC003F
FC003F
FC003F
FC003F
FC003F
FC003F
FC003F
FC003F
FC003F
FC003F
FC003F
1F81F8
1F81F8
1F81F8
03FFC0
03FFC0
03FFC0
ENDCHAR
STARTCHAR obreve
ENCODING 335
SWIDTH 480 0
DWIDTH 29 0
BBX 24 36 3 0
BITMAP
1C0038
1C0038
1C0038
1F81F8
1F81F8
1F81F8
03FFC0
03FFC0
03FFC0
000000
000000
000000
03FFC0
03FFC0
03FFC0
1F81F8
1F81F8
1F81F8
FC003F
FC003F
FC003F
FC003F
FC003F
FC003F
FC003F
FC003F
FC003F
FC003F
FC003F
FC003F
1F81F8
1F81F8
1F81F8
03FFC0
03FFC0
03FFC0
ENDCHAR
STARTCHAR Ohungarumlaut
ENCODING 336
SWIDTH 480 0
DWIDTH 29 0
BBX 24 45 3 0
BITMAP
03F03F
03F03F
03F03F
1F81F8
1F81F8
1F81F8
000000
000000
000000
03FFC0
03FFC0
03FFC0
1F81F8
1F81F8
1F81F8
FC003F
FC003F
FC003F
FC003F
FC003F
FC003F
FC003F
FC003F
FC003F
FC003F
FC003F
FC003F
FC003F
FC003F
FC003F
FC003F
FC003F
FC003F
FC003F
FC003F
FC003F
FC003F
FC003F
FC003F
1F81F8
1F81F8
1F81F8
03FFC0
03FFC0
03FFC0
ENDCHAR
STARTCHAR ohungarumlaut
ENCODING 337
SWIDTH 480 0
DWIDTH 29 0
BBX 24 33 3 0
BITMAP
03F03F
03F03F
03F03F
1F81F8
1F81F8
1F81F8
000000
000000
000000
03FFC0
03FFC0
03FFC0
1F81F8
1F81F8
1F81F8
FC003F
FC003F
FC003F
FC003F
FC003F
FC003F
FC003F
FC003F
FC003F
FC003F
FC003F
FC003F
1F81F8
1F81F8
1F81F8
03FFC0
03FFC0
03FFC0
ENDCHAR
STARTCHAR OE
ENCODING 338
SWIDTH 480 0
DWIDTH 29 0
BBX 24 39 3 0
BITMAP
03FFFF
03FFFF
03FFFF
1F8FC0
1F8FC0
1F8FC0
FC0FC0
FC0FC0
FC0FC0
FC0FC0
FC0FC0
FC0FC0
FC0FC0
FC0FC0
FC0FC0
FC0FC0
FC0FC0
FC0FC0
FC0FFF
FC0FFF
FC0FFF
FC0FC0
FC0FC0
FC0FC0
FC0FC0
FC0FC0
FC0FC0
FC0FC0
FC0FC0
FC0FC0
FC0FC0
FC0FC0
FC0FC0
1F8FC0
1F8FC0
1F8FC0
03FFFF
03FFFF
03FFFF
ENDCHAR
STARTCHAR oe
ENCODING 339
SWIDTH 480 0
DWIDTH 29 0
BBX 24 24 3 0
BITMAP
1FFFF8
1FFFF8
1FFFF8
FC7E3F
FC7E3F
FC7E3F
FC7E3F
FC7E3F
FC7E3F
FC7FFF
FC7FFF
FC7FFF
FC7E00
FC7E00
FC7E00
FC7E00
FC7E00
FC7E00
FC7E3F
FC7E3F
FC7E3F
1FFFF8
1FFFF8
1FFFF8
ENDCHAR
STARTCHAR Racute
ENCODING 340
SWIDTH 480 0
DWIDTH 29 0
BBX 24 45 3 0
BITMAP
000FC0
000FC0
000FC0
007E00
007E00
007E00
03F000
03F000
03F000
000000
000000
000000
FFFFC0
FFFFC0
FFFFC0
FC01F8
FC01F8
FC01F8
FC003F
FC003F
FC003F
FC003F
FC003F
FC003F
FC01F8
FC01F8
FC01F8
FFFFC0
FFFFC0
FFFFC0
FC0FC0
FC0FC0
FC0FC0
FC01F8
FC01F8
FC01F8
FC01F8
FC01F8
FC01F8
FC003F
FC003F
FC003F
FC003F
FC003F
FC003F
ENDCHAR
STARTCHAR racute
ENCODING 341
SWIDTH 480 0
DWIDTH 29 0
BBX 24 36 3 0
BITMAP
0001F8
0001F8
0001F8
000FC0
000FC0
000FC0
007E00
007E00
007E00
000000
000000
000000
FC7FF8
FC7FF8
FC7FF8
1FF03F
1FF03F
1FF03F
1F8000
1F8000
1F8000
1F8000
1F8000
1F8000
1F8000
1F8000
1F8000
1F8000
1F8000
1F8000
1F8000
1F8000
1F8000
1F8000
1F8000
1F8000
ENDCHAR
STARTCHAR Rcommaaccent
ENCODING 342
SWIDTH 480 0
DWIDTH 29 0
BBX 24 51 3 -12
BITMAP
FFFFC0
FFFFC0
FFFFC0
FC01F8
FC01F8
FC01F8
FC003F
FC003F
FC003F
FC003F
FC003F
FC003F
FC003F
FC003F
FC003F
FC003F
FC003F
FC003F
FC01F8
FC01F8
FC01F8
FFFFC0
FFFFC0
FFFFC0
FC0FC0
FC0FC0
FC0FC0
FC01F8
FC01F8
FC01F8
FC01F8
FC01F8
FC01F8
FC003F
FC003F
FC003F
FC003F
FC003F
FC003F
FF8000
FF8000
FF8000
03F000
03F000
03F000
03F000
03F000
03F000
FF8000
FF8000
FF8000
ENDCHAR
STARTCHAR rcommaaccent
ENCODING 343
SWIDTH 480 0
DWIDTH 29 0
BBX 24 36 3 -12
BITMAP
FC7FF8
FC7FF8
FC7FF8
1FF03F
1FF03F
1FF03F
1F8000
1F8000
1F8000
1F8000
1F8000
1F8000
1F8000
1F8000
1F8000
1F8000
1F8000
1F8000
1F8000
1F8000
1F8000
1F8000
1F8000
1F8000
1FF000
1FF000
1FF000
007E00
007E00
007E00
007E00
007E00
007E00
1FF000
1FF000
1FF000
ENDCHAR
STARTCHAR Rcaron
ENCODING 344
SWIDTH 480 0
DWIDTH 29 0
BBX 24 45 3 0
BITMAP
1F81F8
1F81F8
1F81F8
03FFC0
03FFC0
03FFC0
007E00
007E00
007E00
000000
000000
000000
FFFFC0
FFFFC0
FFFFC0
FC01F8
FC01F8
FC01F8
FC003F
FC003F
FC003F
FC003F
FC003F
FC003F
FC01F8
FC01F8
FC01F8
FFFFC0
FFFFC0
FFFFC0
FC0FC0
FC0FC0
FC0FC0
FC01F8
FC01F8
FC01F8
FC01F8
FC01F8
FC01F8
FC003F
FC003F
FC003F
FC003F
FC003F
FC003F
ENDCHAR
STARTCHAR rcaron
ENCODING 345
SWIDTH 480 0
DWIDTH 29 0
BBX 24 36 3 0
BITMAP
1F81F8
1F81F8
1F81F8
03FFC0
03FFC0
03FFC0
007E00
007E00
007E00
000000
000000
000000
FC7FF8
FC7FF8
FC7FF8
1FF03F
1FF03F
1FF03F
1F8000
1F8000
1F8000
1F8000
1F8000
1F8000
1F8000
1F8000
1F8000
1F8000
1F8000
1F8000
1F8000
1F8000
1F8000
1F8000
1F8000
1F8000
ENDCHAR
STARTCHAR Sacute
ENCODING 346
SWIDTH 480 0
DWIDTH 29 0
BBX 24 45 3 0
BITMAP
0001F8
0001F8
0001F8
000FC0
000FC0
000FC0
007E00
007E00
007E00
000000
000000
000000
03FFC0
03FFC0
03FFC0
1F81F8
1F81F8
1F81F8
FC003F
FC003F
FC003F
FC0000
FC0000
FC0000
1F8000
1F8000
1F8000
03FFC0
03FFC0
03FFC0
0001F8
0001F8
0001F8
00003F
00003F
00003F
FC003F
FC003F
FC003F
1F81F8
1F81F8
1F81F8
03FFC0
03FFC0
03FFC0
ENDCHAR
STARTCHAR sacute
ENCODING 347
SWIDTH 480 0
DWIDTH 29 0
BBX 24 36 3 0
BITMAP
0001F8
0001F8
0001F8
000FC0
000FC0
000FC0
007E00
007E00
007E00
000000
000000
000000
1FFFF8
1FFFF8
1FFFF8
FC003F
FC003F
FC003F
FC0000
FC0000
FC0000
1FFFF8
1FFFF8
1FFFF8
00003F
00003F
00003F
00003F
00003F
00003F
FC003F
FC003F
FC003F
1FFFF8
1FFFF8
1FFFF8
ENDCHAR
STARTCHAR Scircumflex
ENCODING 348
SWIDTH 480 0
DWIDTH 29 0
BBX 24 45 3 0
BITMAP
007E00
007E00
007E00
03FFC0
03FFC0
03FFC0
1F81F8
1F81F8
1F81F8
000000
000000
000000
03FFC0
03FFC0
03FFC0
1F81F8
1F81F8
1F81F8
FC003F
FC003F
FC003F
FC0000
FC0000
FC0000
1F8000
1F8000
1F8000
03FFC0
03FFC0
03FFC0
0001F8
0001F8
0001F8
00003F
00003F
00003F
FC003F
FC003F
FC003F
1F81F8
1F81F8
1F81F8
03FFC0
03FFC0
03FFC0
ENDCHAR
STARTCHAR scircumflex
ENCODING 349
SWIDTH 480 0
DWIDTH 29 0
BBX 24 36 3 0
BITMAP
007E00
007E00
007E00
03FFC0
03FFC0
03FFC0
1F81F8
1F81F8
1F81F8
000000
000000
000000
1FFFF8
1FFFF8
1FFFF8
FC003F
FC003F
FC003F
FC0000
FC0000
FC0000
1FFFF8
1FFFF8
1FFFF8
00003F
00003F
00003F
00003F
00003F
00003F
FC003F
FC003F
FC003F
1FFFF8
1FFFF8
1FFFF8
ENDCHAR
STARTCHAR Scedilla
ENCODING 350
SWIDTH 480 0
DWIDTH 29 0
BBX 24 51 3 -12
BITMAP
03FFC0
03FFC0
03FFC0
1F81F8
1F81F8
1F81F8
FC003F
FC003F
FC003F
FC0000
FC0000
FC0000
FC0000
FC0000
FC0000
1F8000
1F8000
1F8000
03FFC0
03FFC0
03FFC0
0001F8
0001F8
0001F8
00003F
00003F
00003F
00003F
00003F
00003F
FC003F
FC003F
FC003F
1F81F8
1F81F8
1F81F8
03FFC0
03FFC0
03FFC0
007E00
007E00
007E00
000FC0
000FC0
000FC0
000FC0
000FC0
000FC0
03FE00
03FE00
03FE00
ENDCHAR
STARTCHAR scedilla
ENCODING 351
SWIDTH 480 0
DWIDTH 29 0
BBX 24 36 3 -12
BITMAP
1FFFF8
1FFFF8
1FFFF8
FC003F
FC003F
FC003F
FC0000
FC0000
FC0000
1FFFF8
1FFFF8
1FFFF8
00003F
00003F
00003F
00003F
00003F
00003F
FC003F
FC003F
FC003F
1FFFF8
1FFFF8
1FFFF8
007E00
007E00
007E00
000FC0
000FC0
000FC0
000FC0
000FC0
000FC0
03FE00
03FE00
03FE00
ENDCHAR
STARTCHAR Scaron
ENCODING 352
SWIDTH 480 0
DWIDTH 29 0
BBX 24 45 3 0
BITMAP
1F81F8
1F81F8
1F81F8
03FFC0
03FFC0
03FFC0
007E00
007E00
007E00
000000
000000
000000
03FFC0
03FFC0
03FFC0
1F81F8
1F81F8
1F81F8
FC003F
FC003F
FC003F
FC0000
FC0000
FC0000
1F8000
1F8000
1F8000
03FFC0
03FFC0
03FFC0
0001F8
0001F8
0001F8
00003F
00003F
00003F
FC003F
FC003F
FC003F
1F81F8
1F81F8
1F81F8
03FFC0
03FFC0
03FFC0
ENDCHAR
STARTCHAR scaron
ENCODING 353
SWIDTH 480 0
DWIDTH 29 0
BBX 24 36 3 0
BITMAP
1F81F8
1F81F8
1F81F8
03FFC0
03FFC0
03FFC0
007E00
007E00
007E00
000000
000000
000000
1FFFF8
1FFFF8
1FFFF8
FC003F
FC003F
FC003F
FC0000
FC0000
FC0000
1FFFF8
1FFFF8
1FFFF8
00003F
00003F
00003F
00003F
00003F
00003F
FC003F
FC003F
FC003F
1FFFF8
1FFFF8
1FFFF8
ENDCHAR
STARTCHAR Tcommaaccent
ENCODING 354
SWIDTH 480 0
DWIDTH 29 0
BBX 24 51 3 -12
BITMAP
FFFFFF
FFFFFF
FFFFFF
007E00
007E00
007E00
007E00
007E00
007E00
007E00
007E00
007E00
007E00
007E00
007E00
007E00
007E00
007E00
007E00
007E00
007E00
007E00
007E00
007E00
007E00
007E00
007E00
007E00
007E00
007E00
007E00
007E00
007E00
007E00
007E00
007E00
007E00
007E00
007E00
007E00
007E00
007E00
000FC0
000FC0
000FC0
000FC0
000FC0
000FC0
03FE00
03FE00
03FE00
ENDCHAR
STARTCHAR tcommaaccent
ENCODING 355
SWIDTH 480 0
DWIDTH 29 0
BBX 24 45 3 -12
BITMAP
03F000
03F000
03F000
03F000
03F000
03F000
03F000
03F000
03F000
FFFFC0
FFFFC0
FFFFC0
03F000
03F000
03F000
03F000
03F000
03F000
03F000
03F000
03F000
03F000
03F000
03F000
03F000
03F000
03F000
03F03F
03F03F
03F03F
007FF8
007FF8
007FF8
000FC0
000FC0
000FC0
0001F8
0001F8
0001F8
0001F8
0001F8
0001F8
007FC0
007FC0
007FC0
ENDCHAR
STARTCHAR Tcaron
ENCODING 356
SWIDTH 480 0
DWIDTH 29 0
BBX 24 45 3 0
BITMAP
1F81F8
1F81F8
1F81F8
03FFC0
03FFC0
03FFC0
007E00
007E00
007E00
000000
000000
000000
FFFFFF
FFFFFF
FFFFFF
007E00
007E00
007E00
007E00
007E00
007E00
007E00
007E00
007E00
007E00
007E00
007E00
007E00
007E00
007E00
007E00
007E00
007E00
007E00
007E00
007E00
007E00
007E00
007E00
007E00
007E00
007E00
007E00
007E00
007E00
ENDCHAR
STARTCHAR tcaron
ENCODING 357
SWIDTH 480 0
DWIDTH 29 0
BBX 24 45 3 0
BITMAP
FC0FC0
FC0FC0
FC0FC0
1FFE00
1FFE00
1FFE00
03F000
03F000
03F000
000000
000000
000000
03F000
03F000
03F000
03F000
03F000
03F000
03F000
03F000
03F000
FFFFC0
FFFFC0
FFFFC0
03F000
03F000
03F000
03F000
03F000
03F000
03F000
03F000
03F000
03F000
03F000
03F000
03F000
03F000
03F000
03F03F
03F03F
03F03F
007FF8
007FF8
007FF8
ENDCHAR
STARTCHAR Tbar
ENCODING 358
SWIDTH 480 0
DWIDTH 29 0
BBX 24 39 3 0
BITMAP
FFFFFF
FFFFFF
FFFFFF
007E00
007E00
007E00
007E00
007E00
007E00
007E00
007E00
007E00
007E00
007E00
007E00
1FFFF8
1FFFF8
1FFFF8
007E00
007E00
007E00
007E00
007E00
007E00
007E00
007E00
007E00
007E00
007E00
007E00
007E00
007E00
007E00
007E00
007E00
007E00
007E00
007E00
007E00
ENDCHAR
STARTCHAR tbar
ENCODING 359
SWIDTH 480 0
DWIDTH 29 0
BBX 24 33 3 0
BITMAP
03F000
03F000
03F000
03F000
03F000
03F000
03F000
03F000
03F000
FFFFC0
FFFFC0
FFFFC0
03F000
03F000
03F000
1FFE00
1FFE00
1FFE00
03F000
03F000
03F000
03F000
03F000
03F000
03F000
03F000
03F000
03F03F
03F03F
03F03F
007FF8
007FF8
007FF8
ENDCHAR
STARTCHAR Utilde
ENCODING 360
SWIDTH 480 0
DWIDTH 29 0
BBX 24 45 3 0
BITMAP
03F038
03F038
03F038
1FFFF8
1FFFF8
1FFFF8
1C0FC0
1C0FC0
1C0FC0
000000
000000
000000
FC003F
FC003F
FC003F
FC003F
FC003F
FC003F
FC003F
FC003F
FC003F
FC003F
FC003F
FC003F
FC003F
FC003F
FC003F
FC003F
FC003F
FC003F
FC003F
FC003F
FC003F
FC003F
FC003F
FC003F
FC003F
FC003F
FC003F
1F81F8
1F81F8
1F81F8
03FFC0
03FFC0
03FFC0
ENDCHAR
STARTCHAR utilde
ENCODING 361
SWIDTH 480 0
DWIDTH 29 0
BBX 24 36 3 0
BITMAP
03F038
03F038
03F038
1FFFF8
1FFFF8
1FFFF8
1C0FC0
1C0FC0
1C0FC0
000000
000000
000000
FC003F
FC003F
FC003F
FC003F
FC003F
FC003F
FC003F
FC003F
FC003F
FC003F
FC003F
FC003F
FC003F
FC003F
FC003F
FC003F
FC003F
FC003F
1F81FF
1F81FF
1F81FF
03FE3F
03FE3F
03FE3F
ENDCHAR
STARTCHAR Umacron
ENCODING 362
SWIDTH 480 0
DWIDTH 29 0
BBX 24 45 3 0
BITMAP
FFFFFF
FFFFFF
FFFFFF
000000
000000
000000
FC003F
FC003F
FC003F
FC003F
FC003F
FC003F
FC003F
FC003F
FC003F
FC003F
FC003F
FC003F
FC003F
FC003F
FC003F
FC003F
FC003F
FC003F
FC003F
FC003F
FC003F
FC003F
FC003F
FC003F
FC003F
FC003F
FC003F
FC003F
FC003F
FC003F
FC003F
FC003F
FC003F
1F81F8
1F81F8
1F81F8
03FFC0
03FFC0
03FFC0
ENDCHAR
STARTCHAR umacron
ENCODING 363
SWIDTH 480 0
DWIDTH 29 0
BBX 24 30 3 0
BITMAP
FFFFFF
FFFFFF
FFFFFF
000000
000000
000000
FC003F
FC003F
FC003F
FC003F
FC003F
FC003F
FC003F
FC003F
FC003F
FC003F
FC003F
FC003F
FC003F
FC003F
FC003F
FC003F
FC003F
FC003F
1F81FF
1F81FF
1F81FF
03FE3F
03FE3F
03FE3F
ENDCHAR
STARTCHAR Ubreve
ENCODING 364
SWIDTH 480 0
DWIDTH 29 0
BBX 24 45 3 0
BITMAP
1C0038
1C0038
1C0038
1F81F8
1F81F8
1F81F8
03FFC0
03FFC0
03FFC0
000000
000000
000000
FC003F
FC003F
FC003F
FC003F
FC003F
FC003F
FC003F
FC003F
FC003F
FC003F
FC003F
FC003F
FC003F
FC003F
FC003F
FC003F
FC003F
FC003F
FC003F
FC003F
FC003F
FC003F
FC003F
FC003F
FC003F
FC003F
FC003F
1F81F8
1F81F8
1F81F8
03FFC0
03FFC0
03FFC0
ENDCHAR
STARTCHAR ubreve
ENCODING 365
SWIDTH 480 0
DWIDTH 29 0
BBX 24 36 3 0
BITMAP
1C0038
1C0038
1C0038
1F81F8
1F81F8
1F81F8
03FFC0
03FFC0
03FFC0
000000
000000
000000
FC003F
FC003F
FC003F
FC003F
FC003F
FC003F
FC003F
FC003F
FC003F
FC003F
FC003F
FC003F
FC003F
FC003F
FC003F
FC003F
FC003F
FC003F
1F81FF
1F81FF
1F81FF
03FE3F
03FE3F
03FE3F
ENDCHAR
STARTCHAR Uring
ENCODING 366
SWIDTH 480 0
DWIDTH 29 0
BBX 24 48 3 0
BITMAP
007E00
007E00
007E00
0381C0
0381C0
0381C0
0381C0
0381C0
0381C0
007E00
007E00
007E00
000000
000000
000000
FC003F
FC003F
FC003F
FC003F
FC003F
FC003F
FC003F
FC003F
FC003F
FC003F
FC003F
FC003F
FC003F
FC003F
FC003F
FC003F
FC003F
FC003F
FC003F
FC003F
FC003F
FC003F
FC003F
FC003F
FC003F
FC003F
FC003F
1F81F8
1F81F8
1F81F8
03FFC0
03FFC0
03FFC0
ENDCHAR
STARTCHAR uring
ENCODING 367
SWIDTH 480 0
DWIDTH 29 0
BBX 24 39 3 0
BITMAP
007E00
007E00
007E00
0381C0
0381C0
0381C0
0381C0
0381C0
0381C0
007E00
007E00
007E00
000000
000000
000000
FC003F
FC003F
FC003F
FC003F
FC003F
FC003F
FC003F
FC003F
FC003F
FC003F
FC003F
FC003F
FC003F
FC003F
FC003F
FC003F
FC003F
FC003F
1F81FF
1F81FF
1F81FF
03FE3F
03FE3F
03FE3F
ENDCHAR
STARTCHAR Uhungarumlaut
ENCODING 368
SWIDTH 480 0
DWIDTH 29 0
BBX 24 45 3 0
BITMAP
03F03F
03F03F
03F03F
1F81F8
1F81F8
1F81F8
000000
000000
000000
FC003F
FC003F
FC003F
FC003F
FC003F
FC003F
FC003F
FC003F
FC003F
FC003F
FC003F
FC003F
FC003F
FC003F
FC003F
FC003F
FC003F
FC003F
FC003F
FC003F
FC003F
FC003F
FC003F
FC003F
FC003F
FC003F
FC003F
FC003F
FC003F
FC003F
1F81F8
1F81F8
1F81F8
03FFC0
03FFC0
03FFC0
ENDCHAR
STARTCHAR uhungarumlaut
ENCODING 369
SWIDTH 480 0
DWIDTH 29 0
BBX 24 33 3 0
BITMAP
03F03F
03F03F
03F03F
1F81F8
1F81F8
1F81F8
000000
000000
000000
FC003F
FC003F
FC003F
FC003F
FC003F
FC003F
FC003F
FC003F
FC003F
FC003F
FC003F
FC003F
FC003F
FC003F
FC003F
FC003F
FC003F
FC003F
1F81FF
1F81FF
1F81FF
03FE3F
03FE3F
03FE3F
ENDCHAR
STARTCHAR Uogonek
ENCODING 370
SWIDTH 480 0
DWIDTH 29 0
BBX 24 51 3 -12
BITMAP
FC003F
FC003F
FC003F
FC003F
FC003F
FC003F
FC003F
FC003F
FC003F
FC003F
FC003F
FC003F
FC003F
FC003F
FC003F
FC003F
FC003F
FC003F
FC003F
FC003F
FC003F
FC003F
FC003F
FC003F
FC003F
FC003F
FC003F
FC003F
FC003F
FC003F
FC003F
FC003F
FC003F
1F81F8
1F81F8
1F81F8
03FFC0
03FFC0
03FFC0
000FC0
000FC0
000FC0
007FC0
007FC0
007FC0
007E00
007E00
007E00
000FF8
000FF8
000FF8
ENDCHAR
STARTCHAR uogonek
ENCODING 371
SWIDTH 480 0
DWIDTH 29 0
BBX 24 36 3 -12
BITMAP
FC003F
FC003F
FC003F
FC003F
FC003F
FC003F
FC003F
FC003F
FC003F
FC003F
FC003F
FC003F
FC003F
FC003F
FC003F
FC003F
FC003F
FC003F
1F81FF
1F81FF
1F81FF
03FE3F
03FE3F
03FE3F
0001FF
0001FF
0001FF
000FC0
000FC0
000FC0
000FC0
000FC0
000FC0
0001FF
0001FF
0001FF
ENDCHAR
STARTCHAR Wcircumflex
ENCODING 372
SWIDTH 480 0
DWIDTH 29 0
BBX 24 48 3 0
BITMAP
007E00
007E00
007E00
03FFC0
03FFC0
03FFC0
1F81F8
1F81F8
1F81F8
000000
000000
000000
FC003F
FC003F
FC003F
FC003F
FC003F
FC003F
FC003F
FC003F
FC003F
FC003F
FC003F
FC003F
FC7E3F
FC7E3F
FC7E3F
FC7E3F
FC7E3F
FC7E3F
FC7E3F
FC7E3F
FC7E3F
FC7E3F
FC7E3F
FC7E3F
FF81FF
FF81FF
FF81FF
FF81FF
FF81FF
FF81FF
FC003F
FC003F
FC003F
FC003F
FC003F
FC003F
ENDCHAR
STARTCHAR wcircumflex
ENCODING 373
SWIDTH 480 0
DWIDTH 29 0
BBX 24 36 3 0
BITMAP
007E00
007E00
007E00
03FFC0
03FFC0
03FFC0
1F81F8
1F81F8
1F81F8
000000
000000
000000
FC003F
FC003F
FC003F
FC003F
FC003F
FC003F
FC003F
FC003F
FC003F
FC7E3F
FC7E3F
FC7E3F
FC7E3F
FC7E3F
FC7E3F
FC7E3F
FC7E3F
FC7E3F
FFFFFF
FFFFFF
FFFFFF
1F81F8
1F81F8
1F81F8
ENDCHAR
STARTCHAR Ycircumflex
ENCODING 374
SWIDTH 480 0
DWIDTH 29 0
BBX 24 48 3 0
BITMAP
007E00
007E00
007E00
03FFC0
03FFC0
03FFC0
1F81F8
1F81F8
1F81F8
000000
000000
000000
FC003F
FC003F
FC003F
1F81F8
1F81F8
1F81F8
1F81F8
1F81F8
1F81F8
03FFC0
03FFC0
03FFC0
03FFC0
03FFC0
03FFC0
007E00
007E00
007E00
007E00
007E00
007E00
007E00
007E00
007E00
007E00
007E00
007E00
007E00
007E00
007E00
007E00
007E00
007E00
007E00
007E00
007E00
ENDCHAR
STARTCHAR ycircumflex
ENCODING 375
SWIDTH 480 0
DWIDTH 29 0
BBX 24 48 3 -12
BITMAP
007E00
007E00
007E00
03FFC0
03FFC0
03FFC0
1F81F8
1F81F8
1F81F8
000000
000000
000000
FC003F
FC003F
FC003F
FC003F
FC003F
FC003F
FC003F
FC003F
FC003F
FC003F
FC003F
FC003F
FC003F
FC003F
FC003F
FC003F
FC003F
FC003F
1F81FF
1F81FF
1F81FF
03FE3F
03FE3F
03FE3F
00003F
00003F
00003F
FC003F
FC003F
FC003F
1F81F8
1F81F8
1F81F8
03FFC0
03FFC0
03FFC0
ENDCHAR
STARTCHAR Ydieresis
ENCODING 376
SWIDTH 480 0
DWIDTH 29 0
BBX 24 45 3 0
BITMAP
1F81F8
1F81F8
1F81F8
1F81F8
1F81F8
1F81F8
000000
000000
000000
FC003F
FC003F
FC003F
FC003F
FC003F
FC003F
1F81F8
1F81F8
1F81F8
1F81F8
1F81F8
1F81F8
03FFC0
03FFC0
03FFC0
03FFC0
03FFC0
03FFC0
007E00
007E00
007E00
007E00
007E00
007E00
007E00
007E00
007E00
007E00
007E00
007E00
007E00
007E00
007E00
007E00
007E00
007E00
ENDCHAR
STARTCHAR Zacute
ENCODING 377
SWIDTH 480 0
DWIDTH 29 0
BBX 24 48 3 0
BITMAP
0001F8
0001F8
0001F8
000FC0
000FC0
000FC0
007E00
007E00
007E00
000000
000000
000000
FFFFFF
FFFFFF
FFFFFF
00003F
00003F
00003F
0001F8
0001F8
0001F8
000FC0
000FC0
000FC0
000FC0
000FC0
000FC0
007E00
007E00
007E00
03F000
03F000
03F000
03F000
03F000
03F000
1F8000
1F8000
1F8000
FC0000
FC0000
FC0000
FC0000
FC0000
FC0000
FFFFFF
FFFFFF
FFFFFF
ENDCHAR
STARTCHAR zacute
ENCODING 378
SWIDTH 480 0
DWIDTH 29 0
BBX 21 36 6 0
BITMAP
000FC0
000FC0
000FC0
007E00
007E00
007E00
03F000
03F000
03F000
000000
000000
000000
FFFFF8
FFFFF8
FFFFF8
0001F8
0001F8
0001F8
000FC0
000FC0
000FC0
007E00
007E00
007E00
03F000
03F000
03F000
1F8000
1F8000
1F8000
FC0000
FC0000
FC0000
FFFFF8
FFFFF8
FFFFF8
ENDCHAR
STARTCHAR Zdotaccent
ENCODING 379
SWIDTH 480 0
DWIDTH 29 0
BBX 24 45 3 0
BITMAP
007E00
007E00
007E00
007E00
007E00
007E00
000000
000000
000000
FFFFFF
FFFFFF
FFFFFF
00003F
00003F
00003F
0001F8
0001F8
0001F8
000FC0
000FC0
000FC0
000FC0
000FC0
000FC0
007E00
007E00
007E00
03F000
03F000
03F000
03F000
03F000
03F000
1F8000
1F8000
1F8000
FC0000
FC0000
FC0000
FC0000
FC0000
FC0000
FFFFFF
FFFFFF
FFFFFF
ENDCHAR
STARTCHAR zdotaccent
ENCODING 380
SWIDTH 480 0
DWIDTH 29 0
BBX 21 33 6 0
BITMAP
007E00
007E00
007E00
007E00
007E00
007E00
000000
000000
000000
FFFFF8
FFFFF8
FFFFF8
0001F8
0001F8
0001F8
000FC0
000FC0
000FC0
007E00
007E00
007E00
03F000
03F000
03F000
1F8000
1F8000
1F8000
FC0000
FC0000
FC0000
FFFFF8
FFFFF8
FFFFF8
ENDCHAR
STARTCHAR Zcaron
ENCODING 381
SWIDTH 480 0
DWIDTH 29 0
BBX 24 45 3 0
BITMAP
1F81F8
1F81F8
1F81F8
03FFC0
03FFC0
03FFC0
007E00
007E00
007E00
000000
000000
000000
FFFFFF
FFFFFF
FFFFFF
00003F
00003F
00003F
0001F8
0001F8
0001F8
000FC0
000FC0
000FC0
000FC0
000FC0
000FC0
007E00
007E00
007E00
03F000
03F000
03F000
03F000
03F000
03F000
1F8000
1F8000
1F8000
FC0000
FC0000
FC0000
FFFFFF
FFFFFF
FFFFFF
ENDCHAR
STARTCHAR zcaron
ENCODING 382
SWIDTH 480 0
DWIDTH 29 0
BBX 21 36 6 0
BITMAP
FC0FC0
FC0FC0
FC0FC0
1FFE00
1FFE00
1FFE00
03F000
03F000
03F000
000000
000000
000000
FFFFF8
FFFFF8
FFFFF8
0001F8
0001F8
0001F8
000FC0
000FC0
000FC0
007E00
007E00
007E00
03F000
03F000
03F000
1F8000
1F8000
1F8000
FC0000
FC0000
FC0000
FFFFF8
FFFFF8
FFFFF8
ENDCHAR
STARTCHAR longs
ENCODING 383
SWIDTH 480 0
DWIDTH 29 0
BBX 24 39 3 0
BITMAP
007FF8
007FF8
007FF8
03F03F
03F03F
03F03F
03F000
03F000
03F000
03F000
03F000
03F000
03F000
03F000
03F000
FFF000
FFF000
FFF000
03F000
03F000
03F000
03F000
03F000
03F000
03F000
03F000
03F000
03F000
03F000
03F000
03F000
03F000
03F000
03F000
03F000
03F000
03F000
03F000
03F000
ENDCHAR
STARTCHAR uni0180
ENCODING 384
SWIDTH 480 0
DWIDTH 29 0
BBX 27 39 0 0
BITMAP
1F800000
1F800000
1F800000
1F800000
1F800000
1F800000
FFFE0000
FFFE0000
FFFE0000
1F800000
1F800000
1F800000
1F800000
1F800000
1F800000
1F8FF800
1F8FF800
1F8FF800
1FF03F00
1FF03F00
1FF03F00
1F8007E0
1F8007E0
1F8007E0
1F8007E0
1F8007E0
1F8007E0
1F8007E0
1F8007E0
1F8007E0
1F8007E0
1F8007E0
1F8007E0
1FF03F00
1FF03F00
1FF03F00
1F8FF800
1F8FF800
1F8FF800
ENDCHAR
STARTCHAR uni0181
ENCODING 385
SWIDTH 480 0
DWIDTH 29 0
BBX 27 39 0 0
BITMAP
1FFFC000
1FFFC000
1FFFC000
E3F1F800
E3F1F800
E3F1F800
E3F03F00
E3F03F00
E3F03F00
03F03F00
03F03F00
03F03F00
03F03F00
03F03F00
03F03F00
03F1F800
03F1F800
03F1F800
03FFF800
03FFF800
03FFF800
03F03F00
03F03F00
03F03F00
03F007E0
03F007E0
03F007E0
03F007E0
03F007E0
03F007E0
03F007E0
03F007E0
03F007E0
03F03F00
03F03F00
03F03F00
03FFF800
03FFF800
03FFF800
ENDCHAR
STARTCHAR uni0182
ENCODING 386
SWIDTH 480 0
DWIDTH 29 0
BBX 24 39 3 0
BITMAP
FFFFF8
FFFFF8
FFFFF8
FC0000
FC0000
FC0000
FC0000
FC0000
FC0000
FC0000
FC0000
FC0000
FC0000
FC0000
FC0000
FFFFC0
FFFFC0
FFFFC0
FC01F8
FC01F8
FC01F8
FC003F
FC003F
FC003F
FC003F
FC003F
FC003F
FC003F
FC003F
FC003F
FC003F
FC003F
FC003F
FC01F8
FC01F8
FC01F8
FFFFC0
FFFFC0
FFFFC0
ENDCHAR
STARTCHAR uni0183
ENCODING 387
SWIDTH 480 0
DWIDTH 29 0
BBX 21 39 3 0
BITMAP
FFFFC0
FFFFC0
FFFFC0
FC0000
FC0000
FC0000
FC0000
FC0000
FC0000
FC0000
FC0000
FC0000
FC0000
FC0000
FC0000
FC7E00
FC7E00
FC7E00
FF8FC0
FF8FC0
FF8FC0
FC01F8
FC01F8
FC01F8
FC01F8
FC01F8
FC01F8
FC01F8
FC01F8
FC01F8
FC01F8
FC01F8
FC01F8
FF8FC0
FF8FC0
FF8FC0
FC7E00
FC7E00
FC7E00
ENDCHAR
STARTCHAR uni0184
ENCODING 388
SWIDTH 480 0
DWIDTH 29 0
BBX 27 39 0 0
BITMAP
1F800000
1F800000
1F800000
FF800000
FF800000
FF800000
FF800000
FF800000
FF800000
1F800000
1F800000
1F800000
1F800000
1F800000
1F800000
1FFFF800
1FFFF800
1FFFF800
1F803F00
1F803F00
1F803F00
1F8007E0
1F8007E0
1F8007E0
1F8007E0
1F8007E0
1F8007E0
1F8007E0
1F8007E0
1F8007E0
1F8007E0
1F8007E0
1F8007E0
1F803F00
1F803F00
1F803F00
1FFFF800
1FFFF800
1FFFF800
ENDCHAR
STARTCHAR uni0185
ENCODING 389
SWIDTH 480 0
DWIDTH 29 0
BBX 24 36 3 0
BITMAP
1F8000
1F8000
1F8000
FF8000
FF8000
FF8000
FF8000
FF8000
FF8000
1F8000
1F8000
1F8000
1F8FC0
1F8FC0
1F8FC0
1FF1F8
1FF1F8
1FF1F8
1F803F
1F803F
1F803F
1F803F
1F803F
1F803F
1F803F
1F803F
1F803F
1F803F
1F803F
1F803F
1FF1F8
1FF1F8
1FF1F8
1F8FC0
1F8FC0
1F8FC0
ENDCHAR
STARTCHAR uni0186
ENCODING 390
SWIDTH 480 0
DWIDTH 29 0
BBX 24 39 3 0
BITMAP
03FFC0
03FFC0
03FFC0
1F81F8
1F81F8
1F81F8
FC003F
FC003F
FC003F
00003F
00003F
00003F
00003F
00003F
00003F
00003F
00003F
00003F
00003F
00003F
00003F
00003F
00003F
00003F
00003F
00003F
00003F
00003F
00003F
00003F
FC003F
FC003F
FC003F
1F81F8
1F81F8
1F81F8
03FFC0
03FFC0
03FFC0
ENDCHAR
STARTCHAR uni0187
ENCODING 391
SWIDTH 480 0
DWIDTH 29 0
BBX 27 45 3 0
BITMAP
000007E0
000007E0
000007E0
00003F00
00003F00
00003F00
03FFF800
03FFF800
03FFF800
1F81F800
1F81F800
1F81F800
FC003800
FC003800
FC003800
FC000000
FC000000
FC000000
FC000000
FC000000
FC000000
FC000000
FC000000
FC000000
FC000000
FC000000
FC000000
FC000000
FC000000
FC000000
FC000000
FC000000
FC000000
FC000000
FC000000
FC000000
FC003F00
FC003F00
FC003F00
1F81F800
1F81F800
1F81F800
03FFC000
03FFC000
03FFC000
ENDCHAR
STARTCHAR uni0188
ENCODING 392
SWIDTH 480 0
DWIDTH 29 0
BBX 27 33 3 0
BITMAP
000007E0
000007E0
000007E0
00003F00
00003F00
00003F00
00003800
00003800
00003800
03FFF800
03FFF800
03FFF800
1F803800
1F803800
1F803800
FC000000
FC000000
FC000000
FC000000
FC000000
FC000000
FC000000
FC000000
FC000000
FC000000
FC000000
FC000000
1F803F00
1F803F00
1F803F00
03FFF800
03FFF800
03FFF800
ENDCHAR
STARTCHAR uni0189
ENCODING 393
SWIDTH 480 0
DWIDTH 29 0
BBX 27 39 0 0
BITMAP
1FFFF800
1FFFF800
1FFFF800
1F803F00
1F803F00
1F803F00
1F8007E0
1F8007E0
1F8007E0
1F8007E0
1F8007E0
1F8007E0
1F8007E0
1F8007E0
1F8007E0
1F8007E0
1F8007E0
1F8007E0
FFF007E0
FFF007E0
FFF007E0
1F8007E0
1F8007E0
1F8007E0
1F8007E0
1F8007E0
1F8007E0
1F8007E0
1F8007E0
1F8007E0
1F8007E0
1F8007E0
1F8007E0
1F803F00
1F803F00
1F803F00
1FFFF800
1FFFF800
1FFFF800
ENDCHAR
STARTCHAR uni018A
ENCODING 394
SWIDTH 480 0
DWIDTH 29 0
BBX 27 39 0 0
BITMAP
1FFFF800
1FFFF800
1FFFF800
E3F03F00
E3F03F00
E3F03F00
E3F007E0
E3F007E0
E3F007E0
03F007E0
03F007E0
03F007E0
03F007E0
03F007E0
03F007E0
03F007E0
03F007E0
03F007E0
03F007E0
03F007E0
03F007E0
03F007E0
03F007E0
03F007E0
03F007E0
03F007E0
03F007E0
03F007E0
03F007E0
03F007E0
03F007E0
03F007E0
03F007E0
03F03F00
03F03F00
03F03F00
03FFF800
03FFF800
03FFF800
ENDCHAR
STARTCHAR uni018B
ENCODING 395
SWIDTH 480 0
DWIDTH 29 0
BBX 24 39 3 0
BITMAP
1FFFFF
1FFFFF
1FFFFF
00003F
00003F
00003F
00003F
00003F
00003F
00003F
00003F
00003F
00003F
00003F
00003F
03FFFF
03FFFF
03FFFF
1F803F
1F803F
1F803F
FC003F
FC003F
FC003F
FC003F
FC003F
FC003F
FC003F
FC003F
FC003F
FC003F
FC003F
FC003F
1F803F
1F803F
1F803F
03FFFF
03FFFF
03FFFF
ENDCHAR
STARTCHAR uni018C
ENCODING 396
SWIDTH 480 0
DWIDTH 29 0
BBX 21 39 3 0
BITMAP
1FFFF8
1FFFF8
1FFFF8
0001F8
0001F8
0001F8
0001F8
0001F8
0001F8
0001F8
0001F8
0001F8
0001F8
0001F8
0001F8
03F1F8
03F1F8
03F1F8
1F8FF8
1F8FF8
1F8FF8
FC01F8
FC01F8
FC01F8
FC01F8
FC01F8
FC01F8
FC01F8
FC01F8
FC01F8
FC01F8
FC01F8
FC01F8
1F8FF8
1F8FF8
1F8FF8
03F1F8
03F1F8
03F1F8
ENDCHAR
STARTCHAR uni018D
ENCODING 397
SWIDTH 480 0
DWIDTH 29 0
BBX 24 36 3 -12
BITMAP
03FFC0
03FFC0
03FFC0
1F81F8
1F81F8
1F81F8
FC003F
FC003F
FC003F
FC003F
FC003F
FC003F
FC003F
FC003F
FC003F
FC003F
FC003F
FC003F
1F81F8
1F81F8
1F81F8
03FFC0
03FFC0
03FFC0
000FC0
000FC0
000FC0
0001F8
0001F8
0001F8
1F803F
1F803F
1F803F
03FFF8
03FFF8
03FFF8
ENDCHAR
STARTCHAR uni018E
ENCODING 398
SWIDTH 480 0
DWIDTH 29 0
BBX 24 39 3 0
BITMAP
FFFFFF
FFFFFF
FFFFFF
00003F
00003F
00003F
00003F
00003F
00003F
00003F
00003F
00003F
00003F
00003F
00003F
00003F
00003F
00003F
03FFFF
03FFFF
03FFFF
00003F
00003F
00003F
00003F
00003F
00003F
00003F
00003F
00003F
00003F
00003F
00003F
00003F
00003F
00003F
FFFFFF
FFFFFF
FFFFFF
ENDCHAR
STARTCHAR uni018F
ENCODING 399
SWIDTH 480 0
DWIDTH 29 0
BBX 24 39 3 0
BITMAP
03FFC0
03FFC0
03FFC0
1F81F8
1F81F8
1F81F8
FC003F
FC003F
FC003F
00003F
00003F
00003F
00003F
00003F
00003F
00003F
00003F
00003F
FFFFFF
FFFFFF
FFFFFF
FC003F
FC003F
FC003F
FC003F
FC003F
FC003F
FC003F
FC003F
FC003F
FC003F
FC003F
FC003F
1F81F8
1F81F8
1F81F8
03FFC0
03FFC0
03FFC0
ENDCHAR
STARTCHAR uni0190
ENCODING 400
SWIDTH 480 0
DWIDTH 29 0
BBX 24 39 3 0
BITMAP
03FFF8
03FFF8
03FFF8
1F803F
1F803F
1F803F
FC0000
FC0000
FC0000
FC0000
FC0000
FC0000
FC0000
FC0000
FC0000
1F8000
1F8000
1F8000
03FFF8
03FFF8
03FFF8
1F8000
1F8000
1F8000
FC0000
FC0000
FC0000
FC0000
FC0000
FC0000
FC0000
FC0000
FC0000
1F803F
1F803F
1F803F
03FFF8
03FFF8
03FFF8
ENDCHAR
STARTCHAR uni0191
ENCODING 401
SWIDTH 480 0
DWIDTH 29 0
BBX 27 48 0 -9
BITMAP
1FFFFFE0
1FFFFFE0
1FFFFFE0
1F800000
1F800000
1F800000
1F800000
1F800000
1F800000
1F800000
1F800000
1F800000
1F800000
1F800000
1F800000
1F800000
1F800000
1F800000
1FFFF800
1FFFF800
1FFFF800
1F800000
1F800000
1F800000
1F800000
1F800000
1F800000
1F800000
1F800000
1F800000
1F800000
1F800000
1F800000
1F800000
1F800000
1F800000
1F800000
1F800000
1F800000
1F800000
1F800000
1F800000
1F800000
1F800000
1F800000
FC000000
FC000000
FC000000
ENDCHAR
STARTCHAR florin
ENCODING 402
SWIDTH 480 0
DWIDTH 29 0
BBX 27 48 0 -9
BITMAP
000FFF00
000FFF00
000FFF00
007E07E0
007E07E0
007E07E0
007E07E0
007E07E0
007E07E0
007E0000
007E0000
007E0000
007E0000
007E0000
007E0000
1FFFF800
1FFFF800
1FFFF800
007E0000
007E0000
007E0000
007E0000
007E0000
007E0000
007E0000
007E0000
007E0000
007E0000
007E0000
007E0000
007E0000
007E0000
007E0000
007E0000
007E0000
007E0000
007E0000
007E0000
007E0000
007E0000
007E0000
007E0000
FC7E0000
FC7E0000
FC7E0000
1FF00000
1FF00000
1FF00000
ENDCHAR
STARTCHAR uni0193
ENCODING 403
SWIDTH 480 0
DWIDTH 29 0
BBX 27 45 3 0
BITMAP
000007E0
000007E0
000007E0
00003F00
00003F00
00003F00
03FFF800
03FFF800
03FFF800
1F81F800
1F81F800
1F81F800
FC000000
FC000000
FC000000
FC000000
FC000000
FC000000
FC000000
FC000000
FC000000
FC000000
FC000000
FC000000
FC0FFF00
FC0FFF00
FC0FFF00
FC003F00
FC003F00
FC003F00
FC003F00
FC003F00
FC003F00
FC003F00
FC003F00
FC003F00
FC003F00
FC003F00
FC003F00
1F81FF00
1F81FF00
1F81FF00
03FFC700
03FFC700
03FFC700
ENDCHAR
STARTCHAR uni0194
ENCODING 404
SWIDTH 480 0
DWIDTH 29 0
BBX 24 39 3 0
BITMAP
FC003F
FC003F
FC003F
FC003F
FC003F
FC003F
FC003F
FC003F
FC003F
1F81F8
1F81F8
1F81F8
1F81F8
1F81F8
1F81F8
1F81F8
1F81F8
1F81F8
03FFC0
03FFC0
03FFC0
03FFC0
03FFC0
03FFC0
007E00
007E00
007E00
03FFC0
03FFC0
03FFC0
1F81F8
1F81F8
1F81F8
1F81F8
1F81F8
1F81F8
03FFC0
03FFC0
03FFC0
ENDCHAR
STARTCHAR uni0195
ENCODING 405
SWIDTH 480 0
DWIDTH 29 0
BBX 24 39 3 0
BITMAP
FC0000
FC0000
FC0000
FC0000
FC0000
FC0000
FC0000
FC0000
FC0000
FC0000
FC0000
FC0000
FC0000
FC0000
FC0000
FFF03F
FFF03F
FFF03F
FC7E3F
FC7E3F
FC7E3F
FC7E3F
FC7E3F
FC7E3F
FC7E3F
FC7E3F
FC7E3F
FC7E3F
FC7E3F
FC7E3F
FC7E3F
FC7E3F
FC7E3F
FC7E3F
FC7E3F
FC7E3F
FC0FF8
FC0FF8
FC0FF8
ENDCHAR
STARTCHAR uni0196
ENCODING 406
SWIDTH 480 0
DWIDTH 29 0
BBX 21 39 6 0
BITMAP
FFF000
FFF000
FFF000
03F000
03F000
03F000
03F000
03F000
03F000
03F000
03F000
03F000
03F000
03F000
03F000
03F000
03F000
03F000
03F000
03F000
03F000
03F000
03F000
03F000
03F000
03F000
03F000
03F000
03F000
03F000
03F000
03F000
03F000
03F1F8
03F1F8
03F1F8
007FC0
007FC0
007FC0
ENDCHAR
STARTCHAR uni0197
ENCODING 407
SWIDTH 480 0
DWIDTH 29 0
BBX 24 39 3 0
BITMAP
FFFFFF
FFFFFF
FFFFFF
007E00
007E00
007E00
007E00
007E00
007E00
007E00
007E00
007E00
007E00
007E00
007E00
1FFFF8
1FFFF8
1FFFF8
007E00
007E00
007E00
007E00
007E00
007E00
007E00
007E00
007E00
007E00
007E00
007E00
007E00
007E00
007E00
007E00
007E00
007E00
FFFFFF
FFFFFF
FFFFFF
ENDCHAR
STARTCHAR uni0198
ENCODING 408
SWIDTH 480 0
DWIDTH 29 0
BBX 27 39 3 0
BITMAP
FC01FF00
FC01FF00
FC01FF00
FC0FC7E0
FC0FC7E0
FC0FC7E0
FC0FC000
FC0FC000
FC0FC000
FC7E0000
FC7E0000
FC7E0000
FC7E0000
FC7E0000
FC7E0000
FC7E0000
FC7E0000
FC7E0000
FFF00000
FFF00000
FFF00000
FC7E0000
FC7E0000
FC7E0000
FC7E0000
FC7E0000
FC7E0000
FC0FC000
FC0FC000
FC0FC000
FC0FC000
FC0FC000
FC0FC000
FC01F800
FC01F800
FC01F800
FC01F800
FC01F800
FC01F800
ENDCHAR
STARTCHAR uni0199
ENCODING 409
SWIDTH 480 0
DWIDTH 29 0
BBX 24 39 3 0
BITMAP
1FF000
1FF000
1FF000
FC0000
FC0000
FC0000
FC0000
FC0000
FC0000
FC0000
FC0000
FC0000
FC0000
FC0000
FC0000
FC01F8
FC01F8
FC01F8
FC0FC0
FC0FC0
FC0FC0
FC7E00
FC7E00
FC7E00
FFF000
FFF000
FFF000
FFFE00
FFFE00
FFFE00
FC0FC0
FC0FC0
FC0FC0
FC01F8
FC01F8
FC01F8
FC003F
FC003F
FC003F
ENDCHAR
STARTCHAR uni019A
ENCODING 410
SWIDTH 480 0
DWIDTH 29 0
BBX 24 39 3 0
BITMAP
1FFE00
1FFE00
1FFE00
007E00
007E00
007E00
007E00
007E00
007E00
007E00
007E00
007E00
007E00
007E00
007E00
1FFFF8
1FFFF8
1FFFF8
007E00
007E00
007E00
007E00
007E00
007E00
007E00
007E00
007E00
007E00
007E00
007E00
007E00
007E00
007E00
007E00
007E00
007E00
FFFFFF
FFFFFF
FFFFFF
ENDCHAR
STARTCHAR uni019B
ENCODING 411
SWIDTH 480 0
DWIDTH 29 0
BBX 27 39 0 0
BITMAP
1F800000
1F800000
1F800000
1F81F800
1F81F800
1F81F800
03FFC000
03FFC000
03FFC000
03FE0000
03FE0000
03FE0000
1FFE0000
1FFE0000
1FFE0000
FC0FC000
FC0FC000
FC0FC000
000FC000
000FC000
000FC000
007FF800
007FF800
007FF800
007FF800
007FF800
007FF800
03F03F00
03F03F00
03F03F00
03F03F00
03F03F00
03F03F00
1F8007E0
1F8007E0
1F8007E0
1F8007E0
1F8007E0
1F8007E0
ENDCHAR
STARTCHAR uni019C
ENCODING 412
SWIDTH 480 0
DWIDTH 29 0
BBX 24 39 3 0
BITMAP
FC7E3F
FC7E3F
FC7E3F
FC7E3F
FC7E3F
FC7E3F
FC7E3F
FC7E3F
FC7E3F
FC7E3F
FC7E3F
FC7E3F
FC7E3F
FC7E3F
FC7E3F
FC7E3F
FC7E3F
FC7E3F
FC7E3F
FC7E3F
FC7E3F
FC7E3F
FC7E3F
FC7E3F
FC7E3F
FC7E3F
FC7E3F
FC7E3F
FC7E3F
FC7E3F
FC7E3F
FC7E3F
FC7E3F
FFFFFF
FFFFFF
FFFFFF
1F8FC7
1F8FC7
1F8FC7
ENDCHAR
STARTCHAR uni019D
ENCODING 413
SWIDTH 480 0
DWIDTH 29 0
BBX 27 51 0 -12
BITMAP
1F8007E0
1F8007E0
1F8007E0
1FF007E0
1FF007E0
1FF007E0
1FF007E0
1FF007E0
1FF007E0
1FFE07E0
1FFE07E0
1FFE07E0
1FFE07E0
1FFE07E0
1FFE07E0
1F8FC7E0
1F8FC7E0
1F8FC7E0
1F8FC7E0
1F8FC7E0
1F8FC7E0
1F81FFE0
1F81FFE0
1F81FFE0
1F81FFE0
1F81FFE0
1F81FFE0
1F803FE0
1F803FE0
1F803FE0
1F803FE0
1F803FE0
1F803FE0
1F8007E0
1F8007E0
1F8007E0
1F8007E0
1F8007E0
1F8007E0
1F800000
1F800000
1F800000
1F800000
1F800000
1F800000
1F800000
1F800000
1F800000
FC000000
FC000000
FC000000
ENDCHAR
STARTCHAR uni019E
ENCODING 414
SWIDTH 480 0
DWIDTH 29 0
BBX 24 36 3 -12
BITMAP
FC7FC0
FC7FC0
FC7FC0
FF81F8
FF81F8
FF81F8
FC003F
FC003F
FC003F
FC003F
FC003F
FC003F
FC003F
FC003F
FC003F
FC003F
FC003F
FC003F
FC003F
FC003F
FC003F
FC003F
FC003F
FC003F
00003F
00003F
00003F
00003F
00003F
00003F
00003F
00003F
00003F
00003F
00003F
00003F
ENDCHAR
STARTCHAR uni019F
ENCODING 415
SWIDTH 480 0
DWIDTH 29 0
BBX 24 39 3 0
BITMAP
03FFC0
03FFC0
03FFC0
1F81F8
1F81F8
1F81F8
FC003F
FC003F
FC003F
FC003F
FC003F
FC003F
FC003F
FC003F
FC003F
FC003F
FC003F
FC003F
FFFFFF
FFFFFF
FFFFFF
FC003F
FC003F
FC003F
FC003F
FC003F
FC003F
FC003F
FC003F
FC003F
FC003F
FC003F
FC003F
1F81F8
1F81F8
1F81F8
03FFC0
03FFC0
03FFC0
ENDCHAR
STARTCHAR Ohorn
ENCODING 416
SWIDTH 480 0
DWIDTH 29 0
BBX 27 39 3 0
BITMAP
03FE07E0
03FE07E0
03FE07E0
1F8FC7E0
1F8FC7E0
1F8FC7E0
FC01FF00
FC01FF00
FC01FF00
FC01F800
FC01F800
FC01F800
FC01F800
FC01F800
FC01F800
FC01F800
FC01F800
FC01F800
FC01F800
FC01F800
FC01F800
FC01F800
FC01F800
FC01F800
FC01F800
FC01F800
FC01F800
FC01F800
FC01F800
FC01F800
FC01F800
FC01F800
FC01F800
1F8FC000
1F8FC000
1F8FC000
03FE0000
03FE0000
03FE0000
ENDCHAR
STARTCHAR ohorn
ENCODING 417
SWIDTH 480 0
DWIDTH 29 0
BBX 27 24 3 0
BITMAP
03FE07E0
03FE07E0
03FE07E0
1F8FC7E0
1F8FC7E0
1F8FC7E0
FC01FF00
FC01FF00
FC01FF00
FC01F800
FC01F800
FC01F800
FC01F800
FC01F800
FC01F800
FC01F800
FC01F800
FC01F800
1F8FC000
1F8FC000
1F8FC000
03FE0000
03FE0000
03FE0000
ENDCHAR
STARTCHAR uni01A2
ENCODING 418
SWIDTH 480 0
DWIDTH 29 0
BBX 27 51 0 -12
BITMAP
03F1FF00
03F1FF00
03F1FF00
1FFFC7E0
1FFFC7E0
1FFFC7E0
FC0FC7E0
FC0FC7E0
FC0FC7E0
FC0FC7E0
FC0FC7E0
FC0FC7E0
FC0FC7E0
FC0FC7E0
FC0FC7E0
FC0FC7E0
FC0FC7E0
FC0FC7E0
FC0FC7E0
FC0FC7E0
FC0FC7E0
FC0FC7E0
FC0FC7E0
FC0FC7E0
FC0FC7E0
FC0FC7E0
FC0FC7E0
FC0FC7E0
FC0FC7E0
FC0FC7E0
FC0FC7E0
FC0FC7E0
FC0FC7E0
1FFE07E0
1FFE07E0
1FFE07E0
03F007E0
03F007E0
03F007E0
000007E0
000007E0
000007E0
000007E0
000007E0
000007E0
000007E0
000007E0
000007E0
000007E0
000007E0
000007E0
ENDCHAR
STARTCHAR uni01A3
ENCODING 419
SWIDTH 480 0
DWIDTH 29 0
BBX 27 36 0 -12
BITMAP
03F1FF00
03F1FF00
03F1FF00
1FFFC7E0
1FFFC7E0
1FFFC7E0
FC0FC7E0
FC0FC7E0
FC0FC7E0
FC0FC7E0
FC0FC7E0
FC0FC7E0
FC0FC7E0
FC0FC7E0
FC0FC7E0
FC0FC7E0
FC0FC7E0
FC0FC7E0
1FFE07E0
1FFE07E0
1FFE07E0
03F007E0
03F007E0
03F007E0
000007E0
000007E0
000007E0
000007E0
000007E0
000007E0
000007E0
000007E0
000007E0
000007E0
000007E0
000007E0
ENDCHAR
STARTCHAR uni01A4
ENCODING 420
SWIDTH 480 0
DWIDTH 29 0
BBX 27 39 0 0
BITMAP
1FFFF800
1FFFF800
1FFFF800
E3F03F00
E3F03F00
E3F03F00
E3F007E0
E3F007E0
E3F007E0
03F007E0
03F007E0
03F007E0
03F007E0
03F007E0
03F007E0
03F007E0
03F007E0
03F007E0
03F03F00
03F03F00
03F03F00
03FFF800
03FFF800
03FFF800
03F00000
03F00000
03F00000
03F00000
03F00000
03F00000
03F00000
03F00000
03F00000
03F00000
03F00000
03F00000
03F00000
03F00000
03F00000
ENDCHAR
STARTCHAR uni01A5
ENCODING 421
SWIDTH 480 0
DWIDTH 29 0
BBX 24 51 3 -12
BITMAP
1FF000
1FF000
1FF000
FC7E00
FC7E00
FC7E00
FC0000
FC0000
FC0000
FC0000
FC0000
FC0000
FC0000
FC0000
FC0000
FC7FC0
FC7FC0
FC7FC0
FF81F8
FF81F8
FF81F8
FC003F
FC003F
FC003F
FC003F
FC003F
FC003F
FC003F
FC003F
FC003F
FC003F
FC003F
FC003F
FF81F8
FF81F8
FF81F8
FC7FC0
FC7FC0
FC7FC0
FC0000
FC0000
FC0000
FC0000
FC0000
FC0000
FC0000
FC0000
FC0000
FC0000
FC0000
FC0000
ENDCHAR
STARTCHAR uni01A6
ENCODING 422
SWIDTH 480 0
DWIDTH 29 0
BBX 27 51 3 -6
BITMAP
FC000000
FC000000
FC000000
FC000000
FC000000
FC000000
FFFFC000
FFFFC000
FFFFC000
FC01F800
FC01F800
FC01F800
FC003F00
FC003F00
FC003F00
FC003F00
FC003F00
FC003F00
FC003F00
FC003F00
FC003F00
FC003F00
FC003F00
FC003F00
FC01F800
FC01F800
FC01F800
FFFFC000
FFFFC000
FFFFC000
FC0FC000
FC0FC000
FC0FC000
FC01F800
FC01F800
FC01F800
FC01F800
FC01F800
FC01F800
FC003F00
FC003F00
FC003F00
FC003F00
FC003F00
FC003F00
000007E0
000007E0
000007E0
000007E0
000007E0
000007E0
ENDCHAR
STARTCHAR uni01A7
ENCODING 423
SWIDTH 480 0
DWIDTH 29 0
BBX 24 39 3 0
BITMAP
03FFC0
03FFC0
03FFC0
1F81F8
1F81F8
1F81F8
FC003F
FC003F
FC003F
00003F
00003F
00003F
00003F
00003F
00003F
0001F8
0001F8
0001F8
03FFC0
03FFC0
03FFC0
1F8000
1F8000
1F8000
FC0000
FC0000
FC0000
FC0000
FC0000
FC0000
FC003F
FC003F
FC003F
1F81F8
1F81F8
1F81F8
03FFC0
03FFC0
03FFC0
ENDCHAR
STARTCHAR uni01A8
ENCODING 424
SWIDTH 480 0
DWIDTH 29 0
BBX 24 24 3 0
BITMAP
1FFFF8
1FFFF8
1FFFF8
FC003F
FC003F
FC003F
00003F
00003F
00003F
1FFFF8
1FFFF8
1FFFF8
FC0000
FC0000
FC0000
FC0000
FC0000
FC0000
FC003F
FC003F
FC003F
1FFFF8
1FFFF8
1FFFF8
ENDCHAR
STARTCHAR uni01A9
ENCODING 425
SWIDTH 480 0
DWIDTH 29 0
BBX 24 39 3 0
BITMAP
FFFFFF
FFFFFF
FFFFFF
FC0000
FC0000
FC0000
1F8000
1F8000
1F8000
03F000
03F000
03F000
007E00
007E00
007E00
000FC0
000FC0
000FC0
000FC0
000FC0
000FC0
007E00
007E00
007E00
03F000
03F000
03F000
03F000
03F000
03F000
1F8000
1F8000
1F8000
FC0000
FC0000
FC0000
FFFFFF
FFFFFF
FFFFFF
ENDCHAR
STARTCHAR uni01AA
ENCODING 426
SWIDTH 480 0
DWIDTH 29 0
BBX 24 51 3 -12
BITMAP
1FF000
1FF000
1FF000
FC7E00
FC7E00
FC7E00
E00E00
E00E00
E00E00
FC7E00
FC7E00
FC7E00
1FFE00
1FFE00
1FFE00
007E00
007E00
007E00
007E00
007E00
007E00
007E00
007E00
007E00
007E00
007E00
007E00
007E00
007E00
007E00
007E00
007E00
007E00
007E00
007E00
007E00
007E00
007E00
007E00
007E00
007E00
007E00
007E00
007E00
007E00
000FC0
000FC0
000FC0
0001FF
0001FF
0001FF
ENDCHAR
STARTCHAR uni01AB
ENCODING 427
SWIDTH 480 0
DWIDTH 29 0
BBX 24 45 3 -12
BITMAP
03F000
03F000
03F000
03F000
03F000
03F000
03F000
03F000
03F000
FFFFC0
FFFFC0
FFFFC0
03F000
03F000
03F000
03F000
03F000
03F000
03F000
03F000
03F000
03F000
03F000
03F000
03F000
03F000
03F000
03F000
03F000
03F000
007FFF
007FFF
007FFF
00003F
00003F
00003F
00003F
00003F
00003F
0001F8
0001F8
0001F8
03FFC0
03FFC0
03FFC0
ENDCHAR
STARTCHAR uni01AC
ENCODING 428
SWIDTH 480 0
DWIDTH 29 0
BBX 27 39 0 0
BITMAP
1FFFFFE0
1FFFFFE0
1FFFFFE0
FC0FC000
FC0FC000
FC0FC000
FC0FC000
FC0FC000
FC0FC000
FC0FC000
FC0FC000
FC0FC000
000FC000
000FC000
000FC000
000FC000
000FC000
000FC000
000FC000
000FC000
000FC000
000FC000
000FC000
000FC000
000FC000
000FC000
000FC000
000FC000
000FC000
000FC000
000FC000
000FC000
000FC000
000FC000
000FC000
000FC000
000FC000
000FC000
000FC000
ENDCHAR
STARTCHAR uni01AD
ENCODING 429
SWIDTH 480 0
DWIDTH 29 0
BBX 24 36 3 0
BITMAP
007FF8
007FF8
007FF8
03F03F
03F03F
03F03F
03F000
03F000
03F000
03F000
03F000
03F000
FFFFC0
FFFFC0
FFFFC0
03F000
03F000
03F000
03F000
03F000
03F000
03F000
03F000
03F000
03F000
03F000
03F000
03F000
03F000
03F000
03F03F
03F03F
03F03F
007FF8
007FF8
007FF8
ENDCHAR
STARTCHAR uni01AE
ENCODING 430
SWIDTH 480 0
DWIDTH 29 0
BBX 24 51 3 -12
BITMAP
FFFFFF
FFFFFF
FFFFFF
007E00
007E00
007E00
007E00
007E00
007E00
007E00
007E00
007E00
007E00
007E00
007E00
007E00
007E00
007E00
007E00
007E00
007E00
007E00
007E00
007E00
007E00
007E00
007E00
007E00
007E00
007E00
007E00
007E00
007E00
007E00
007E00
007E00
007E00
007E00
007E00
007E00
007E00
007E00
007E00
007E00
007E00
007E00
007E00
007E00
000FF8
000FF8
000FF8
ENDCHAR
STARTCHAR Uhorn
ENCODING 431
SWIDTH 480 0
DWIDTH 29 0
BBX 27 39 3 0
BITMAP
FC0FC7E0
FC0FC7E0
FC0FC7E0
FC0FC7E0
FC0FC7E0
FC0FC7E0
FC0FFF00
FC0FFF00
FC0FFF00
FC0FC000
FC0FC000
FC0FC000
FC0FC000
FC0FC000
FC0FC000
FC0FC000
FC0FC000
FC0FC000
FC0FC000
FC0FC000
FC0FC000
FC0FC000
FC0FC000
FC0FC000
FC0FC000
FC0FC000
FC0FC000
FC0FC000
FC0FC000
FC0FC000
FC0FC000
FC0FC000
FC0FC000
1FFE0000
1FFE0000
1FFE0000
03F00000
03F00000
03F00000
ENDCHAR
STARTCHAR uhorn
ENCODING 432
SWIDTH 480 0
DWIDTH 29 0
BBX 27 24 3 0
BITMAP
FC0FC7E0
FC0FC7E0
FC0FC7E0
FC0FC7E0
FC0FC7E0
FC0FC7E0
FC0FFF00
FC0FFF00
FC0FFF00
FC0FC000
FC0FC000
FC0FC000
FC0FC000
FC0FC000
FC0FC000
FC0FC000
FC0FC000
FC0FC000
1FFFC000
1FFFC000
1FFFC000
03FFC000
03FFC000
03FFC000
ENDCHAR
STARTCHAR uni01B1
ENCODING 433
SWIDTH 480 0
DWIDTH 29 0
BBX 24 39 3 0
BITMAP
FF81FF
FF81FF
FF81FF
0381C0
0381C0
0381C0
1F81F8
1F81F8
1F81F8
FC003F
FC003F
FC003F
FC003F
FC003F
FC003F
FC003F
FC003F
FC003F
FC003F
FC003F
FC003F
FC003F
FC003F
FC003F
FC003F
FC003F
FC003F
FC003F
FC003F
FC003F
FC003F
FC003F
FC003F
1F81F8
1F81F8
1F81F8
03FFC0
03FFC0
03FFC0
ENDCHAR
STARTCHAR uni01B2
ENCODING 434
SWIDTH 480 0
DWIDTH 29 0
BBX 24 39 3 0
BITMAP
FC0FC0
FC0FC0
FC0FC0
FC0FC0
FC0FC0
FC0FC0
FC01F8
FC01F8
FC01F8
FC01F8
FC01F8
FC01F8
FC003F
FC003F
FC003F
FC003F
FC003F
FC003F
FC003F
FC003F
FC003F
FC003F
FC003F
FC003F
FC003F
FC003F
FC003F
FC003F
FC003F
FC003F
FC003F
FC003F
FC003F
1F81F8
1F81F8
1F81F8
03FFC0
03FFC0
03FFC0
ENDCHAR
STARTCHAR uni01B3
ENCODING 435
SWIDTH 480 0
DWIDTH 29 0
BBX 27 39 0 0
BITMAP
1FFE07E0
1FFE07E0
1FFE07E0
FC7E07E0
FC7E07E0
FC7E07E0
FC7E07E0
FC7E07E0
FC7E07E0
007E07E0
007E07E0
007E07E0
000FFF00
000FFF00
000FFF00
000FFF00
000FFF00
000FFF00
0001F800
0001F800
0001F800
0001F800
0001F800
0001F800
0001F800
0001F800
0001F800
0001F800
0001F800
0001F800
0001F800
0001F800
0001F800
0001F800
0001F800
0001F800
0001F800
0001F800
0001F800
ENDCHAR
STARTCHAR uni01B4
ENCODING 436
SWIDTH 480 0
DWIDTH 29 0
BBX 27 45 3 -12
BITMAP
00003FE0
00003FE0
00003FE0
0001F800
0001F800
0001F800
0001F800
0001F800
0001F800
FC01F800
FC01F800
FC01F800
FC01F800
FC01F800
FC01F800
FC01F800
FC01F800
FC01F800
FC01F800
FC01F800
FC01F800
FC01F800
FC01F800
FC01F800
FC01F800
FC01F800
FC01F800
1F8FF800
1F8FF800
1F8FF800
03F1F800
03F1F800
03F1F800
0001F800
0001F800
0001F800
FC01F800
FC01F800
FC01F800
1F8FC000
1F8FC000
1F8FC000
03FE0000
03FE0000
03FE0000
ENDCHAR
STARTCHAR uni01B5
ENCODING 437
SWIDTH 480 0
DWIDTH 29 0
BBX 24 39 3 0
BITMAP
FFFFFF
FFFFFF
FFFFFF
00003F
00003F
00003F
00003F
00003F
00003F
0001F8
0001F8
0001F8
0001F8
0001F8
0001F8
000FC0
000FC0
000FC0
1FFFF8
1FFFF8
1FFFF8
03F000
03F000
03F000
1F8000
1F8000
1F8000
1F8000
1F8000
1F8000
FC0000
FC0000
FC0000
FC0000
FC0000
FC0000
FFFFFF
FFFFFF
FFFFFF
ENDCHAR
STARTCHAR uni01B6
ENCODING 438
SWIDTH 480 0
DWIDTH 29 0
BBX 21 24 6 0
BITMAP
FFFFF8
FFFFF8
FFFFF8
0001F8
0001F8
0001F8
000FC0
000FC0
000FC0
1FFFF8
1FFFF8
1FFFF8
03F000
03F000
03F000
1F8000
1F8000
1F8000
FC0000
FC0000
FC0000
FFFFF8
FFFFF8
FFFFF8
ENDCHAR
STARTCHAR uni01B7
ENCODING 439
SWIDTH 480 0
DWIDTH 29 0
BBX 24 39 3 0
BITMAP
FFFFFF
FFFFFF
FFFFFF
00003F
00003F
00003F
0001F8
0001F8
0001F8
000FC0
000FC0
000FC0
007E00
007E00
007E00
03FFC0
03FFC0
03FFC0
0001F8
0001F8
0001F8
00003F
00003F
00003F
00003F
00003F
00003F
FC003F
FC003F
FC003F
FC003F
FC003F
FC003F
1F81F8
1F81F8
1F81F8
03FFC0
03FFC0
03FFC0
ENDCHAR
STARTCHAR uni01B8
ENCODING 440
SWIDTH 480 0
DWIDTH 29 0
BBX 24 39 3 0
BITMAP
FFFFFF
FFFFFF
FFFFFF
FC0000
FC0000
FC0000
1F8000
1F8000
1F8000
03F000
03F000
03F000
007E00
007E00
007E00
03FFC0
03FFC0
03FFC0
1F8000
1F8000
1F8000
FC0000
FC0000
FC0000
FC0000
FC0000
FC0000
FC003F
FC003F
FC003F
FC003F
FC003F
FC003F
1F81F8
1F81F8
1F81F8
03FFC0
03FFC0
03FFC0
ENDCHAR
STARTCHAR uni01B9
ENCODING 441
SWIDTH 480 0
DWIDTH 29 0
BBX 24 36 3 -12
BITMAP
FFFFF8
FFFFF8
FFFFF8
FC0000
FC0000
FC0000
1F8000
1F8000
1F8000
03F000
03F000
03F000
007E00
007E00
007E00
03FFC0
03FFC0
03FFC0
1F8000
1F8000
1F8000
FC0000
FC0000
FC0000
FC003F
FC003F
FC003F
FC003F
FC003F
FC003F
1F81F8
1F81F8
1F81F8
03FFC0
03FFC0
03FFC0
ENDCHAR
STARTCHAR uni01BA
ENCODING 442
SWIDTH 480 0
DWIDTH 29 0
BBX 21 36 6 -12
BITMAP
FFFFF8
FFFFF8
FFFFF8
0001F8
0001F8
0001F8
000FC0
000FC0
000FC0
007E00
007E00
007E00
1FFFC0
1FFFC0
1FFFC0
0001F8
0001F8
0001F8
0001F8
0001F8
0001F8
007FC0
007FC0
007FC0
03F000
03F000
03F000
1F8000
1F8000
1F8000
1F8FC0
1F8FC0
1F8FC0
03FE00
03FE00
03FE00
ENDCHAR
STARTCHAR uni01BB
ENCODING 443
SWIDTH 480 0
DWIDTH 29 0
BBX 24 39 3 0
BITMAP
03FFC0
03FFC0
03FFC0
1F81F8
1F81F8
1F81F8
FC003F
FC003F
FC003F
FC003F
FC003F
FC003F
00003F
00003F
00003F
00003F
00003F
00003F
0001F8
0001F8
0001F8
FFFFFF
FFFFFF
FFFFFF
03F000
03F000
03F000
1F8000
1F8000
1F8000
FC0000
FC0000
FC0000
FC0000
FC0000
FC0000
FFFFFF
FFFFFF
FFFFFF
ENDCHAR
STARTCHAR uni01BC
ENCODING 444
SWIDTH 480 0
DWIDTH 29 0
BBX 24 39 3 0
BITMAP
FFFFFF
FFFFFF
FFFFFF
FC0007
FC0007
FC0007
FC0000
FC0000
FC0000
FC0000
FC0000
FC0000
FC0000
FC0000
FC0000
FC7FC0
FC7FC0
FC7FC0
FF81F8
FF81F8
FF81F8
00003F
00003F
00003F
00003F
00003F
00003F
00003F
00003F
00003F
FC003F
FC003F
FC003F
1F81F8
1F81F8
1F81F8
03FFC0
03FFC0
03FFC0
ENDCHAR
STARTCHAR uni01BD
ENCODING 445
SWIDTH 480 0
DWIDTH 29 0
BBX 18 39 6 0
BITMAP
FFFFC0
FFFFC0
FFFFC0
FC01C0
FC01C0
FC01C0
FC0000
FC0000
FC0000
FC0000
FC0000
FC0000
FC0000
FC0000
FC0000
FFFE00
FFFE00
FFFE00
FF8FC0
FF8FC0
FF8FC0
000FC0
000FC0
000FC0
000FC0
000FC0
000FC0
000FC0
000FC0
000FC0
FC0FC0
FC0FC0
FC0FC0
1FFE00
1FFE00
1FFE00
03F000
03F000
03F000
ENDCHAR
STARTCHAR uni01BE
ENCODING 446
SWIDTH 480 0
DWIDTH 29 0
BBX 21 33 3 0
BITMAP
03F000
03F000
03F000
03F000
03F000
03F000
03F000
03F000
03F000
FFFFC0
FFFFC0
FFFFC0
03F000
03F000
03F000
03F000
03F000
03F000
007E00
007E00
007E00
000FC0
000FC0
000FC0
0001F8
0001F8
0001F8
1F81F8
1F81F8
1F81F8
03FFC0
03FFC0
03FFC0
ENDCHAR
STARTCHAR uni01BF
ENCODING 447
SWIDTH 480 0
DWIDTH 29 0
BBX 24 36 3 -12
BITMAP
FC7FC0
FC7FC0
FC7FC0
FF81F8
FF81F8
FF81F8
FC003F
FC003F
FC003F
FC003F
FC003F
FC003F
FC003F
FC003F
FC003F
FC003F
FC003F
FC003F
FC01F8
FC01F8
FC01F8
FC7FC0
FC7FC0
FC7FC0
FFF000
FFF000
FFF000
FC0000
FC0000
FC0000
FC0000
FC0000
FC0000
FC0000
FC0000
FC0000
ENDCHAR
STARTCHAR uni01C0
ENCODING 448
SWIDTH 480 0
DWIDTH 29 0
BBX 6 45 12 -6
BITMAP
FC
FC
FC
FC
FC
FC
FC
FC
FC
FC
FC
FC
FC
FC
FC
FC
FC
FC
FC
FC
FC
FC
FC
FC
FC
FC
FC
FC
FC
FC
FC
FC
FC
FC
FC
FC
FC
FC
FC
FC
FC
FC
FC
FC
FC
ENDCHAR
STARTCHAR uni01C1
ENCODING 449
SWIDTH 480 0
DWIDTH 29 0
BBX 18 45 6 -6
BITMAP
FC0FC0
FC0FC0
FC0FC0
FC0FC0
FC0FC0
FC0FC0
FC0FC0
FC0FC0
FC0FC0
FC0FC0
FC0FC0
FC0FC0
FC0FC0
FC0FC0
FC0FC0
FC0FC0
FC0FC0
FC0FC0
FC0FC0
FC0FC0
FC0FC0
FC0FC0
FC0FC0
FC0FC0
FC0FC0
FC0FC0
FC0FC0
FC0FC0
FC0FC0
FC0FC0
FC0FC0
FC0FC0
FC0FC0
FC0FC0
FC0FC0
FC0FC0
FC0FC0
FC0FC0
FC0FC0
FC0FC0
FC0FC0
FC0FC0
FC0FC0
FC0FC0
FC0FC0
ENDCHAR
STARTCHAR uni01C2
ENCODING 450
SWIDTH 480 0
DWIDTH 29 0
BBX 24 27 3 0
BITMAP
007E00
007E00
007E00
007E00
007E00
007E00
FFFFFF
FFFFFF
FFFFFF
007E00
007E00
007E00
007E00
007E00
007E00
007E00
007E00
007E00
FFFFFF
FFFFFF
FFFFFF
007E00
007E00
007E00
007E00
007E00
007E00
ENDCHAR
STARTCHAR uni01C3
ENCODING 451
SWIDTH 480 0
DWIDTH 29 0
BBX 6 39 12 0
BITMAP
FC
FC
FC
FC
FC
FC
FC
FC
FC
FC
FC
FC
FC
FC
FC
FC
FC
FC
FC
FC
FC
FC
FC
FC
FC
FC
FC
00
00
00
00
00
00
FC
FC
FC
FC
FC
FC
ENDCHAR
STARTCHAR uni01C4
ENCODING 452
SWIDTH 480 0
DWIDTH 29 0
BBX 30 45 0 0
BITMAP
0001F8FC
0001F8FC
0001F8FC
00003FE0
00003FE0
00003FE0
00000000
00000000
00000000
FFF03FFC
FFF03FFC
FFF03FFC
FC7E00FC
FC7E00FC
FC7E00FC
FC7E00FC
FC7E00FC
FC7E00FC
FC7E00FC
FC7E00FC
FC7E00FC
FC7E07E0
FC7E07E0
FC7E07E0
FC7E07E0
FC7E07E0
FC7E07E0
FC7E07E0
FC7E07E0
FC7E07E0
FC7E07E0
FC7E07E0
FC7E07E0
FC7E3F00
FC7E3F00
FC7E3F00
FC7E3F00
FC7E3F00
FC7E3F00
FC7E3F00
FC7E3F00
FC7E3F00
FFF03FFC
FFF03FFC
FFF03FFC
ENDCHAR
STARTCHAR uni01C5
ENCODING 453
SWIDTH 480 0
DWIDTH 29 0
BBX 30 39 0 0
BITMAP
FFF00000
FFF00000
FFF00000
FC7E0000
FC7E0000
FC7E0000
FC7FF8FC
FC7FF8FC
FC7FF8FC
FC7E3FE0
FC7E3FE0
FC7E3FE0
FC7E0000
FC7E0000
FC7E0000
FC7E3FFC
FC7E3FFC
FC7E3FFC
FC7E00FC
FC7E00FC
FC7E00FC
FC7E00FC
FC7E00FC
FC7E00FC
FC7E07E0
FC7E07E0
FC7E07E0
FC7E07E0
FC7E07E0
FC7E07E0
FC7E3F00
FC7E3F00
FC7E3F00
FC7E3F00
FC7E3F00
FC7E3F00
FFF03FFC
FFF03FFC
FFF03FFC
ENDCHAR
STARTCHAR uni01C6
ENCODING 454
SWIDTH 480 0
DWIDTH 29 0
BBX 30 39 0 0
BITMAP
007E0000
007E0000
007E0000
007E0000
007E0000
007E0000
007FF8FC
007FF8FC
007FF8FC
007E3FE0
007E3FE0
007E3FE0
007E0000
007E0000
007E0000
1FFE3FFC
1FFE3FFC
1FFE3FFC
FC7E00FC
FC7E00FC
FC7E00FC
FC7E00FC
FC7E00FC
FC7E00FC
FC7E07E0
FC7E07E0
FC7E07E0
FC7E07E0
FC7E07E0
FC7E07E0
FC7E3F00
FC7E3F00
FC7E3F00
FC7E3F00
FC7E3F00
FC7E3F00
1FFE3FFC
1FFE3FFC
1FFE3FFC
ENDCHAR
STARTCHAR uni01C7
ENCODING 455
SWIDTH 480 0
DWIDTH 29 0
BBX 27 39 0 0
BITMAP
FC01FFE0
FC01FFE0
FC01FFE0
FC0007E0
FC0007E0
FC0007E0
FC0007E0
FC0007E0
FC0007E0
FC0007E0
FC0007E0
FC0007E0
FC0007E0
FC0007E0
FC0007E0
FC0007E0
FC0007E0
FC0007E0
FC0007E0
FC0007E0
FC0007E0
FC0007E0
FC0007E0
FC0007E0
FC0007E0
FC0007E0
FC0007E0
FC0007E0
FC0007E0
FC0007E0
FC0007E0
FC0007E0
FC0007E0
FC0FC7E0
FC0FC7E0
FC0FC7E0
FFF1FF00
FFF1FF00
FFF1FF00
ENDCHAR
STARTCHAR uni01C8
ENCODING 456
SWIDTH 480 0
DWIDTH 29 0
BBX 27 51 0 -12
BITMAP
FC000000
FC000000
FC000000
FC000000
FC000000
FC000000
FC0007E0
FC0007E0
FC0007E0
FC0007E0
FC0007E0
FC0007E0
FC000000
FC000000
FC000000
FC01FFE0
FC01FFE0
FC01FFE0
FC0007E0
FC0007E0
FC0007E0
FC0007E0
FC0007E0
FC0007E0
FC0007E0
FC0007E0
FC0007E0
FC0007E0
FC0007E0
FC0007E0
FC0007E0
FC0007E0
FC0007E0
FC0007E0
FC0007E0
FC0007E0
FFFE07E0
FFFE07E0
FFFE07E0
000007E0
000007E0
000007E0
03F007E0
03F007E0
03F007E0
03F007E0
03F007E0
03F007E0
007FFF00
007FFF00
007FFF00
ENDCHAR
STARTCHAR uni01C9
ENCODING 457
SWIDTH 480 0
DWIDTH 29 0
BBX 27 51 0 -12
BITMAP
1FF00000
1FF00000
1FF00000
03F00000
03F00000
03F00000
03F007E0
03F007E0
03F007E0
03F007E0
03F007E0
03F007E0
03F00000
03F00000
03F00000
03F1FFE0
03F1FFE0
03F1FFE0
03F007E0
03F007E0
03F007E0
03F007E0
03F007E0
03F007E0
03F007E0
03F007E0
03F007E0
03F007E0
03F007E0
03F007E0
03F007E0
03F007E0
03F007E0
03F007E0
03F007E0
03F007E0
FFFFC7E0
FFFFC7E0
FFFFC7E0
000007E0
000007E0
000007E0
03F007E0
03F007E0
03F007E0
03F007E0
03F007E0
03F007E0
007FFF00
007FFF00
007FFF00
ENDCHAR
STARTCHAR uni01CA
ENCODING 458
SWIDTH 480 0
DWIDTH 29 0
BBX 27 48 0 -9
BITMAP
FC0FC7E0
FC0FC7E0
FC0FC7E0
FC0FC7E0
FC0FC7E0
FC0FC7E0
FC0FC7E0
FC0FC7E0
FC0FC7E0
FF8FC7E0
FF8FC7E0
FF8FC7E0
FF8FC7E0
FF8FC7E0
FF8FC7E0
FF8FC7E0
FF8FC7E0
FF8FC7E0
FFFFC7E0
FFFFC7E0
FFFFC7E0
FC7FC7E0
FC7FC7E0
FC7FC7E0
FC7FC7E0
FC7FC7E0
FC7FC7E0
FC7FC7E0
FC7FC7E0
FC7FC7E0
FC0FC7E0
FC0FC7E0
FC0FC7E0
FC0FC7E0
FC0FC7E0
FC0FC7E0
FC0FC7E0
FC0FC7E0
FC0FC7E0
000007E0
000007E0
000007E0
03F03F00
03F03F00
03F03F00
007FF800
007FF800
007FF800
ENDCHAR
STARTCHAR uni01CB
ENCODING 459
SWIDTH 480 0
DWIDTH 29 0
BBX 27 51 0 -12
BITMAP
FC0FC000
FC0FC000
FC0FC000
FC0FC000
FC0FC000
FC0FC000
FC0FC7E0
FC0FC7E0
FC0FC7E0
FF8FC7E0
FF8FC7E0
FF8FC7E0
FF8FC000
FF8FC000
FF8FC000
FF8FC7E0
FF8FC7E0
FF8FC7E0
FFFFC7E0
FFFFC7E0
FFFFC7E0
FC7FC7E0
FC7FC7E0
FC7FC7E0
FC7FC7E0
FC7FC7E0
FC7FC7E0
FC7FC7E0
FC7FC7E0
FC7FC7E0
FC0FC7E0
FC0FC7E0
FC0FC7E0
FC0FC7E0
FC0FC7E0
FC0FC7E0
FC0FC7E0
FC0FC7E0
FC0FC7E0
000007E0
000007E0
000007E0
03F007E0
03F007E0
03F007E0
03F007E0
03F007E0
03F007E0
007FFF00
007FFF00
007FFF00
ENDCHAR
STARTCHAR uni01CC
ENCODING 460
SWIDTH 480 0
DWIDTH 29 0
BBX 27 45 0 -12
BITMAP
000007E0
000007E0
000007E0
000007E0
000007E0
000007E0
00000000
00000000
00000000
FC7E07E0
FC7E07E0
FC7E07E0
FF8FC7E0
FF8FC7E0
FF8FC7E0
FC0FC7E0
FC0FC7E0
FC0FC7E0
FC0FC7E0
FC0FC7E0
FC0FC7E0
FC0FC7E0
FC0FC7E0
FC0FC7E0
FC0FC7E0
FC0FC7E0
FC0FC7E0
FC0FC7E0
FC0FC7E0
FC0FC7E0
FC0FC7E0
FC0FC7E0
FC0FC7E0
000007E0
000007E0
000007E0
03F007E0
03F007E0
03F007E0
03F007E0
03F007E0
03F007E0
007FFF00
007FFF00
007FFF00
ENDCHAR
STARTCHAR uni01CD
ENCODING 461
SWIDTH 480 0
DWIDTH 29 0
BBX 24 45 3 0
BITMAP
1F81F8
1F81F8
1F81F8
03FFC0
03FFC0
03FFC0
007E00
007E00
007E00
000000
000000
000000
007E00
007E00
007E00
03FFC0
03FFC0
03FFC0
1F81F8
1F81F8
1F81F8
1F81F8
1F81F8
1F81F8
FC003F
FC003F
FC003F
FC003F
FC003F
FC003F
FFFFFF
FFFFFF
FFFFFF
FC003F
FC003F
FC003F
FC003F
FC003F
FC003F
FC003F
FC003F
FC003F
FC003F
FC003F
FC003F
ENDCHAR
STARTCHAR uni01CE
ENCODING 462
SWIDTH 480 0
DWIDTH 29 0
BBX 24 36 3 0
BITMAP
1F81F8
1F81F8
1F81F8
03FFC0
03FFC0
03FFC0
007E00
007E00
007E00
000000
000000
000000
03FFF8
03FFF8
03FFF8
1F803F
1F803F
1F803F
00003F
00003F
00003F
1FFFFF
1FFFFF
1FFFFF
FC003F
FC003F
FC003F
FC003F
FC003F
FC003F
FC003F
FC003F
FC003F
1FFFC7
1FFFC7
1FFFC7
ENDCHAR
STARTCHAR uni01CF
ENCODING 463
SWIDTH 480 0
DWIDTH 29 0
BBX 24 45 3 0
BITMAP
1F81F8
1F81F8
1F81F8
03FFC0
03FFC0
03FFC0
007E00
007E00
007E00
000000
000000
000000
FFFFFF
FFFFFF
FFFFFF
007E00
007E00
007E00
007E00
007E00
007E00
007E00
007E00
007E00
007E00
007E00
007E00
007E00
007E00
007E00
007E00
007E00
007E00
007E00
007E00
007E00
007E00
007E00
007E00
007E00
007E00
007E00
FFFFFF
FFFFFF
FFFFFF
ENDCHAR
STARTCHAR uni01D0
ENCODING 464
SWIDTH 480 0
DWIDTH 29 0
BBX 24 36 3 0
BITMAP
1F81F8
1F81F8
1F81F8
03FFC0
03FFC0
03FFC0
007E00
007E00
007E00
000000
000000
000000
1FFE00
1FFE00
1FFE00
007E00
007E00
007E00
007E00
007E00
007E00
007E00
007E00
007E00
007E00
007E00
007E00
007E00
007E00
007E00
007E00
007E00
007E00
FFFFFF
FFFFFF
FFFFFF
ENDCHAR
STARTCHAR uni01D1
ENCODING 465
SWIDTH 480 0
DWIDTH 29 0
BBX 24 45 3 0
BITMAP
1F81F8
1F81F8
1F81F8
03FFC0
03FFC0
03FFC0
007E00
007E00
007E00
000000
000000
000000
03FFC0
03FFC0
03FFC0
1F81F8
1F81F8
1F81F8
FC003F
FC003F
FC003F
FC003F
FC003F
FC003F
FC003F
FC003F
FC003F
FC003F
FC003F
FC003F
FC003F
FC003F
FC003F
FC003F
FC003F
FC003F
FC003F
FC003F
FC003F
1F81F8
1F81F8
1F81F8
03FFC0
03FFC0
03FFC0
ENDCHAR
STARTCHAR uni01D2
ENCODING 466
SWIDTH 480 0
DWIDTH 29 0
BBX 24 36 3 0
BITMAP
1F81F8
1F81F8
1F81F8
03FFC0
03FFC0
03FFC0
007E00
007E00
007E00
000000
000000
000000
03FFC0
03FFC0
03FFC0
1F81F8
1F81F8
1F81F8
FC003F
FC003F
FC003F
FC003F
FC003F
FC003F
FC003F
FC003F
FC003F
FC003F
FC003F
FC003F
1F81F8
1F81F8
1F81F8
03FFC0
03FFC0
03FFC0
ENDCHAR
STARTCHAR uni01D3
ENCODING 467
SWIDTH 480 0
DWIDTH 29 0
BBX 24 45 3 0
BITMAP
1F81F8
1F81F8
1F81F8
03FFC0
03FFC0
03FFC0
007E00
007E00
007E00
FC003F
FC003F
FC003F
FC003F
FC003F
FC003F
FC003F
FC003F
FC003F
FC003F
FC003F
FC003F
FC003F
FC003F
FC003F
FC003F
FC003F
FC003F
FC003F
FC003F
FC003F
FC003F
FC003F
FC003F
FC003F
FC003F
FC003F
FC003F
FC003F
FC003F
1F81F8
1F81F8
1F81F8
03FFC0
03FFC0
03FFC0
ENDCHAR
STARTCHAR uni01D4
ENCODING 468
SWIDTH 480 0
DWIDTH 29 0
BBX 24 36 3 0
BITMAP
1F81F8
1F81F8
1F81F8
03FFC0
03FFC0
03FFC0
007E00
007E00
007E00
000000
000000
000000
FC003F
FC003F
FC003F
FC003F
FC003F
FC003F
FC003F
FC003F
FC003F
FC003F
FC003F
FC003F
FC003F
FC003F
FC003F
FC003F
FC003F
FC003F
1F81FF
1F81FF
1F81FF
03FE3F
03FE3F
03FE3F
ENDCHAR
STARTCHAR uni01D5
ENCODING 469
SWIDTH 480 0
DWIDTH 29 0
BBX 24 45 3 0
BITMAP
FFFFFF
FFFFFF
FFFFFF
000000
000000
000000
1F81F8
1F81F8
1F81F8
1F81F8
1F81F8
1F81F8
000000
000000
000000
FC003F
FC003F
FC003F
FC003F
FC003F
FC003F
FC003F
FC003F
FC003F
FC003F
FC003F
FC003F
FC003F
FC003F
FC003F
FC003F
FC003F
FC003F
FC003F
FC003F
FC003F
FC003F
FC003F
FC003F
1F81F8
1F81F8
1F81F8
03FFC0
03FFC0
03FFC0
ENDCHAR
STARTCHAR uni01D6
ENCODING 470
SWIDTH 480 0
DWIDTH 29 0
BBX 24 39 3 0
BITMAP
FFFFFF
FFFFFF
FFFFFF
000000
000000
000000
1F81F8
1F81F8
1F81F8
1F81F8
1F81F8
1F81F8
000000
000000
000000
FC003F
FC003F
FC003F
FC003F
FC003F
FC003F
FC003F
FC003F
FC003F
FC003F
FC003F
FC003F
FC003F
FC003F
FC003F
FC003F
FC003F
FC003F
1F81FF
1F81FF
1F81FF
03FE3F
03FE3F
03FE3F
ENDCHAR
STARTCHAR uni01D7
ENCODING 471
SWIDTH 480 0
DWIDTH 29 0
BBX 24 48 3 0
BITMAP
000FC0
000FC0
000FC0
007E00
007E00
007E00
000000
000000
000000
1F81F8
1F81F8
1F81F8
1F81F8
1F81F8
1F81F8
000000
000000
000000
FC003F
FC003F
FC003F
FC003F
FC003F
FC003F
FC003F
FC003F
FC003F
FC003F
FC003F
FC003F
FC003F
FC003F
FC003F
FC003F
FC003F
FC003F
FC003F
FC003F
FC003F
FC003F
FC003F
FC003F
1F81F8
1F81F8
1F81F8
03FFC0
03FFC0
03FFC0
ENDCHAR
STARTCHAR uni01D8
ENCODING 472
SWIDTH 480 0
DWIDTH 29 0
BBX 24 42 3 0
BITMAP
000FC0
000FC0
000FC0
007E00
007E00
007E00
000000
000000
000000
1F81F8
1F81F8
1F81F8
1F81F8
1F81F8
1F81F8
000000
000000
000000
FC003F
FC003F
FC003F
FC003F
FC003F
FC003F
FC003F
FC003F
FC003F
FC003F
FC003F
FC003F
FC003F
FC003F
FC003F
FC003F
FC003F
FC003F
1F81FF
1F81FF
1F81FF
03FE3F
03FE3F
03FE3F
ENDCHAR
STARTCHAR uni01D9
ENCODING 473
SWIDTH 480 0
DWIDTH 29 0
BBX 24 48 3 0
BITMAP
03F1F8
03F1F8
03F1F8
007FC0
007FC0
007FC0
000000
000000
000000
1F81F8
1F81F8
1F81F8
1F81F8
1F81F8
1F81F8
000000
000000
000000
FC003F
FC003F
FC003F
FC003F
FC003F
FC003F
FC003F
FC003F
FC003F
FC003F
FC003F
FC003F
FC003F
FC003F
FC003F
FC003F
FC003F
FC003F
FC003F
FC003F
FC003F
FC003F
FC003F
FC003F
1F81F8
1F81F8
1F81F8
03FFC0
03FFC0
03FFC0
ENDCHAR
STARTCHAR uni01DA
ENCODING 474
SWIDTH 480 0
DWIDTH 29 0
BBX 24 42 3 0
BITMAP
03F1F8
03F1F8
03F1F8
007FC0
007FC0
007FC0
000000
000000
000000
1F81F8
1F81F8
1F81F8
1F81F8
1F81F8
1F81F8
000000
000000
000000
FC003F
FC003F
FC003F
FC003F
FC003F
FC003F
FC003F
FC003F
FC003F
FC003F
FC003F
FC003F
FC003F
FC003F
FC003F
FC003F
FC003F
FC003F
1F81FF
1F81FF
1F81FF
03FE3F
03FE3F
03FE3F
ENDCHAR
STARTCHAR uni01DB
ENCODING 475
SWIDTH 480 0
DWIDTH 29 0
BBX 24 48 3 0
BITMAP
03F000
03F000
03F000
007E00
007E00
007E00
000000
000000
000000
1F81F8
1F81F8
1F81F8
1F81F8
1F81F8
1F81F8
000000
000000
000000
FC003F
FC003F
FC003F
FC003F
FC003F
FC003F
FC003F
FC003F
FC003F
FC003F
FC003F
FC003F
FC003F
FC003F
FC003F
FC003F
FC003F
FC003F
FC003F
FC003F
FC003F
FC003F
FC003F
FC003F
1F81F8
1F81F8
1F81F8
03FFC0
03FFC0
03FFC0
ENDCHAR
STARTCHAR uni01DC
ENCODING 476
SWIDTH 480 0
DWIDTH 29 0
BBX 24 42 3 0
BITMAP
03F000
03F000
03F000
007E00
007E00
007E00
000000
000000
000000
1F81F8
1F81F8
1F81F8
1F81F8
1F81F8
1F81F8
000000
000000
000000
FC003F
FC003F
FC003F
FC003F
FC003F
FC003F
FC003F
FC003F
FC003F
FC003F
FC003F
FC003F
FC003F
FC003F
FC003F
FC003F
FC003F
FC003F
1F81FF
1F81FF
1F81FF
03FE3F
03FE3F
03FE3F
ENDCHAR
STARTCHAR uni01DD
ENCODING 477
SWIDTH 480 0
DWIDTH 29 0
BBX 24 24 3 0
BITMAP
1FFFC0
1FFFC0
1FFFC0
FC01F8
FC01F8
FC01F8
00003F
00003F
00003F
00003F
00003F
00003F
FFFFFF
FFFFFF
FFFFFF
FC003F
FC003F
FC003F
1F81F8
1F81F8
1F81F8
03FFC0
03FFC0
03FFC0
ENDCHAR
STARTCHAR uni01DE
ENCODING 478
SWIDTH 480 0
DWIDTH 29 0
BBX 24 48 3 0
BITMAP
FFFFFF
FFFFFF
FFFFFF
000000
000000
000000
1F81F8
1F81F8
1F81F8
1F81F8
1F81F8
1F81F8
000000
000000
000000
007E00
007E00
007E00
03FFC0
03FFC0
03FFC0
1F81F8
1F81F8
1F81F8
FC003F
FC003F
FC003F
FC003F
FC003F
FC003F
FC003F
FC003F
FC003F
FFFFFF
FFFFFF
FFFFFF
FC003F
FC003F
FC003F
FC003F
FC003F
FC003F
FC003F
FC003F
FC003F
FC003F
FC003F
FC003F
ENDCHAR
STARTCHAR uni01DF
ENCODING 479
SWIDTH 480 0
DWIDTH 29 0
BBX 24 39 3 0
BITMAP
FFFFFF
FFFFFF
FFFFFF
000000
000000
000000
1F81F8
1F81F8
1F81F8
1F81F8
1F81F8
1F81F8
000000
000000
000000
03FFF8
03FFF8
03FFF8
1F803F
1F803F
1F803F
00003F
00003F
00003F
1FFFFF
1FFFFF
1FFFFF
FC003F
FC003F
FC003F
FC003F
FC003F
FC003F
FC003F
FC003F
FC003F
1FFFC7
1FFFC7
1FFFC7
ENDCHAR
STARTCHAR uni01E0
ENCODING 480
SWIDTH 480 0
DWIDTH 29 0
BBX 24 48 3 0
BITMAP
FFFFFF
FFFFFF
FFFFFF
000000
000000
000000
007E00
007E00
007E00
007E00
007E00
007E00
000000
000000
000000
007E00
007E00
007E00
03FFC0
03FFC0
03FFC0
1F81F8
1F81F8
1F81F8
FC003F
FC003F
FC003F
FC003F
FC003F
FC003F
FC003F
FC003F
FC003F
FFFFFF
FFFFFF
FFFFFF
FC003F
FC003F
FC003F
FC003F
FC003F
FC003F
FC003F
FC003F
FC003F
FC003F
FC003F
FC003F
ENDCHAR
STARTCHAR uni01E1
ENCODING 481
SWIDTH 480 0
DWIDTH 29 0
BBX 24 39 3 0
BITMAP
FFFFFF
FFFFFF
FFFFFF
000000
000000
000000
007E00
007E00
007E00
007E00
007E00
007E00
000000
000000
000000
03FFF8
03FFF8
03FFF8
1F803F
1F803F
1F803F
00003F
00003F
00003F
1FFFFF
1FFFFF
1FFFFF
FC003F
FC003F
FC003F
FC003F
FC003F
FC003F
FC003F
FC003F
FC003F
1FFFC7
1FFFC7
1FFFC7
ENDCHAR
STARTCHAR uni01E2
ENCODING 482
SWIDTH 480 0
DWIDTH 29 0
BBX 24 45 3 0
BITMAP
FFFFFF
FFFFFF
FFFFFF
000000
000000
000000
007FFF
007FFF
007FFF
03FFC0
03FFC0
03FFC0
1F8FC0
1F8FC0
1F8FC0
1F8FC0
1F8FC0
1F8FC0
FC0FC0
FC0FC0
FC0FC0
FC0FC0
FC0FC0
FC0FC0
FFFFFF
FFFFFF
FFFFFF
FC0FC0
FC0FC0
FC0FC0
FC0FC0
FC0FC0
FC0FC0
FC0FC0
FC0FC0
FC0FC0
FC0FC0
FC0FC0
FC0FC0
FC0FC0
FC0FC0
FC0FC0
FC0FFF
FC0FFF
FC0FFF
ENDCHAR
STARTCHAR uni01E3
ENCODING 483
SWIDTH 480 0
DWIDTH 29 0
BBX 24 30 3 0
BITMAP
FFFFFF
FFFFFF
FFFFFF
000000
000000
000000
1FF1F8
1FF1F8
1FF1F8
E07E3F
E07E3F
E07E3F
007E3F
007E3F
007E3F
007FF8
007FF8
007FF8
1FFE00
1FFE00
1FFE00
FC7E00
FC7E00
FC7E00
FC7E07
FC7E07
FC7E07
1F8FF8
1F8FF8
1F8FF8
ENDCHAR
STARTCHAR uni01E4
ENCODING 484
SWIDTH 480 0
DWIDTH 29 0
BBX 27 39 3 0
BITMAP
03FFC000
03FFC000
03FFC000
1F81F800
1F81F800
1F81F800
FC003F00
FC003F00
FC003F00
FC000000
FC000000
FC000000
FC000000
FC000000
FC000000
FC000000
FC000000
FC000000
FC0FFF00
FC0FFF00
FC0FFF00
FC003F00
FC003F00
FC003F00
FC003F00
FC003F00
FC003F00
FC0FFFE0
FC0FFFE0
FC0FFFE0
FC003F00
FC003F00
FC003F00
1F81FF00
1F81FF00
1F81FF00
03FFC700
03FFC700
03FFC700
ENDCHAR
STARTCHAR uni01E5
ENCODING 485
SWIDTH 480 0
DWIDTH 29 0
BBX 27 36 3 -12
BITMAP
1FFFC700
1FFFC700
1FFFC700
FC01FF00
FC01FF00
FC01FF00
FC01F800
FC01F800
FC01F800
FC01F800
FC01F800
FC01F800
FC01F800
FC01F800
FC01F800
1FFFC000
1FFFC000
1FFFC000
FC000000
FC000000
FC000000
1FFFF800
1FFFF800
1FFFF800
FC003F00
FC003F00
FC003F00
FC0FFFE0
FC0FFFE0
FC0FFFE0
FC003F00
FC003F00
FC003F00
1FFFF800
1FFFF800
1FFFF800
ENDCHAR
STARTCHAR Gcaron
ENCODING 486
SWIDTH 480 0
DWIDTH 29 0
BBX 24 45 3 0
BITMAP
1F81F8
1F81F8
1F81F8
03FFC0
03FFC0
03FFC0
007E00
007E00
007E00
000000
000000
000000
03FFC0
03FFC0
03FFC0
1F81F8
1F81F8
1F81F8
FC0000
FC0000
FC0000
FC0000
FC0000
FC0000
FC0000
FC0000
FC0000
FC0FFF
FC0FFF
FC0FFF
FC003F
FC003F
FC003F
FC003F
FC003F
FC003F
FC003F
FC003F
FC003F
1F81FF
1F81FF
1F81FF
03FFC7
03FFC7
03FFC7
ENDCHAR
STARTCHAR gcaron
ENCODING 487
SWIDTH 480 0
DWIDTH 29 0
BBX 24 48 3 -12
BITMAP
1F81F8
1F81F8
1F81F8
03FFC0
03FFC0
03FFC0
007E00
007E00
007E00
000000
000000
000000
1FFFC7
1FFFC7
1FFFC7
FC01FF
FC01FF
FC01FF
FC01F8
FC01F8
FC01F8
FC01F8
FC01F8
FC01F8
FC01F8
FC01F8
FC01F8
1FFFC0
1FFFC0
1FFFC0
FC0000
FC0000
FC0000
1FFFF8
1FFFF8
1FFFF8
FC003F
FC003F
FC003F
FC003F
FC003F
FC003F
FC003F
FC003F
FC003F
1FFFF8
1FFFF8
1FFFF8
ENDCHAR
STARTCHAR uni01E8
ENCODING 488
SWIDTH 480 0
DWIDTH 29 0
BBX 24 45 3 0
BITMAP
1F81F8
1F81F8
1F81F8
03FFC0
03FFC0
03FFC0
007E00
007E00
007E00
FC003F
FC003F
FC003F
FC01F8
FC01F8
FC01F8
FC01F8
FC01F8
FC01F8
FC0FC0
FC0FC0
FC0FC0
FC0FC0
FC0FC0
FC0FC0
FFFE00
FFFE00
FFFE00
FC0FC0
FC0FC0
FC0FC0
FC0FC0
FC0FC0
FC0FC0
FC01F8
FC01F8
FC01F8
FC01F8
FC01F8
FC01F8
FC003F
FC003F
FC003F
FC003F
FC003F
FC003F
ENDCHAR
STARTCHAR uni01E9
ENCODING 489
SWIDTH 480 0
DWIDTH 29 0
BBX 24 45 3 0
BITMAP
1F81F8
1F81F8
1F81F8
03FFC0
03FFC0
03FFC0
007E00
007E00
007E00
FC0000
FC0000
FC0000
FC0000
FC0000
FC0000
FC0000
FC0000
FC0000
FC0000
FC0000
FC0000
FC01F8
FC01F8
FC01F8
FC0FC0
FC0FC0
FC0FC0
FC7E00
FC7E00
FC7E00
FFF000
FFF000
FFF000
FFFE00
FFFE00
FFFE00
FC0FC0
FC0FC0
FC0FC0
FC01F8
FC01F8
FC01F8
FC003F
FC003F
FC003F
ENDCHAR
STARTCHAR uni01EA
ENCODING 490
SWIDTH 480 0
DWIDTH 29 0
BBX 24 51 3 -12
BITMAP
03FFC0
03FFC0
03FFC0
1F81F8
1F81F8
1F81F8
FC003F
FC003F
FC003F
FC003F
FC003F
FC003F
FC003F
FC003F
FC003F
FC003F
FC003F
FC003F
FC003F
FC003F
FC003F
FC003F
FC003F
FC003F
FC003F
FC003F
FC003F
FC003F
FC003F
FC003F
FC003F
FC003F
FC003F
1F81F8
1F81F8
1F81F8
03FFC0
03FFC0
03FFC0
007E00
007E00
007E00
03F000
03F000
03F000
03F000
03F000
03F000
007FC0
007FC0
007FC0
ENDCHAR
STARTCHAR uni01EB
ENCODING 491
SWIDTH 480 0
DWIDTH 29 0
BBX 24 36 3 -12
BITMAP
03FFC0
03FFC0
03FFC0
1F81F8
1F81F8
1F81F8
FC003F
FC003F
FC003F
FC003F
FC003F
FC003F
FC003F
FC003F
FC003F
FC003F
FC003F
FC003F
1F81F8
1F81F8
1F81F8
03FFC0
03FFC0
03FFC0
007E00
007E00
007E00
03F000
03F000
03F000
03F000
03F000
03F000
007FC0
007FC0
007FC0
ENDCHAR
STARTCHAR uni01EC
ENCODING 492
SWIDTH 480 0
DWIDTH 29 0
BBX 24 57 3 -12
BITMAP
FFFFFF
FFFFFF
FFFFFF
000000
000000
000000
03FFC0
03FFC0
03FFC0
1F81F8
1F81F8
1F81F8
FC003F
FC003F
FC003F
FC003F
FC003F
FC003F
FC003F
FC003F
FC003F
FC003F
FC003F
FC003F
FC003F
FC003F
FC003F
FC003F
FC003F
FC003F
FC003F
FC003F
FC003F
FC003F
FC003F
FC003F
FC003F
FC003F
FC003F
1F81F8
1F81F8
1F81F8
03FFC0
03FFC0
03FFC0
007E00
007E00
007E00
03F000
03F000
03F000
03F000
03F000
03F000
007FC0
007FC0
007FC0
ENDCHAR
STARTCHAR uni01ED
ENCODING 493
SWIDTH 480 0
DWIDTH 29 0
BBX 24 42 3 -12
BITMAP
FFFFFF
FFFFFF
FFFFFF
000000
000000
000000
03FFC0
03FFC0
03FFC0
1F81F8
1F81F8
1F81F8
FC003F
FC003F
FC003F
FC003F
FC003F
FC003F
FC003F
FC003F
FC003F
FC003F
FC003F
FC003F
1F81F8
1F81F8
1F81F8
03FFC0
03FFC0
03FFC0
007E00
007E00
007E00
03F000
03F000
03F000
03F000
03F000
03F000
007FC0
007FC0
007FC0
ENDCHAR
STARTCHAR uni01EE
ENCODING 494
SWIDTH 480 0
DWIDTH 29 0
BBX 24 45 3 0
BITMAP
1F81F8
1F81F8
1F81F8
03FFC0
03FFC0
03FFC0
007E00
007E00
007E00
000000
000000
000000
FFFFFF
FFFFFF
FFFFFF
00003F
00003F
00003F
0001F8
0001F8
0001F8
000FC0
000FC0
000FC0
03FFC0
03FFC0
03FFC0
0001F8
0001F8
0001F8
00003F
00003F
00003F
FC003F
FC003F
FC003F
FC003F
FC003F
FC003F
1F81F8
1F81F8
1F81F8
03FFC0
03FFC0
03FFC0
ENDCHAR
STARTCHAR uni01EF
ENCODING 495
SWIDTH 480 0
DWIDTH 29 0
BBX 24 48 3 -12
BITMAP
1F81F8
1F81F8
1F81F8
03FFC0
03FFC0
03FFC0
007E00
007E00
007E00
000000
000000
000000
1FFFFF
1FFFFF
1FFFFF
00003F
00003F
00003F
0001F8
0001F8
0001F8
000FC0
000FC0
000FC0
007E00
007E00
007E00
03FFC0
03FFC0
03FFC0
0001F8
0001F8
0001F8
00003F
00003F
00003F
FC003F
FC003F
FC003F
FC003F
FC003F
FC003F
1F81F8
1F81F8
1F81F8
03FFC0
03FFC0
03FFC0
ENDCHAR
STARTCHAR uni01F0
ENCODING 496
SWIDTH 480 0
DWIDTH 29 0
BBX 24 48 6 -12
BITMAP
03F03F
03F03F
03F03F
007FF8
007FF8
007FF8
000FC0
000FC0
000FC0
000000
000000
000000
007FF8
007FF8
007FF8
0001F8
0001F8
0001F8
0001F8
0001F8
0001F8
0001F8
0001F8
0001F8
0001F8
0001F8
0001F8
0001F8
0001F8
0001F8
0001F8
0001F8
0001F8
0001F8
0001F8
0001F8
FC01F8
FC01F8
FC01F8
FC01F8
FC01F8
FC01F8
FC01F8
FC01F8
FC01F8
1FFFC0
1FFFC0
1FFFC0
ENDCHAR
STARTCHAR uni01F1
ENCODING 497
SWIDTH 480 0
DWIDTH 29 0
BBX 30 39 0 0
BITMAP
FFF03FFC
FFF03FFC
FFF03FFC
FC7E00FC
FC7E00FC
FC7E00FC
FC7E00FC
FC7E00FC
FC7E00FC
FC7E00FC
FC7E00FC
FC7E00FC
FC7E07E0
FC7E07E0
FC7E07E0
FC7E07E0
FC7E07E0
FC7E07E0
FC7E07E0
FC7E07E0
FC7E07E0
FC7E07E0
FC7E07E0
FC7E07E0
FC7E07E0
FC7E07E0
FC7E07E0
FC7E3F00
FC7E3F00
FC7E3F00
FC7E3F00
FC7E3F00
FC7E3F00
FC7E3F00
FC7E3F00
FC7E3F00
FFF03FFC
FFF03FFC
FFF03FFC
ENDCHAR
STARTCHAR uni01F2
ENCODING 498
SWIDTH 480 0
DWIDTH 29 0
BBX 30 39 0 0
BITMAP
FFF00000
FFF00000
FFF00000
FC7E0000
FC7E0000
FC7E0000
FC7E0000
FC7E0000
FC7E0000
FC7E0000
FC7E0000
FC7E0000
FC7E0000
FC7E0000
FC7E0000
FC7E3FFC
FC7E3FFC
FC7E3FFC
FC7E00FC
FC7E00FC
FC7E00FC
FC7E00FC
FC7E00FC
FC7E00FC
FC7E07E0
FC7E07E0
FC7E07E0
FC7E07E0
FC7E07E0
FC7E07E0
FC7E3F00
FC7E3F00
FC7E3F00
FC7E3F00
FC7E3F00
FC7E3F00
FFF03FFC
FFF03FFC
FFF03FFC
ENDCHAR
STARTCHAR uni01F3
ENCODING 499
SWIDTH 480 0
DWIDTH 29 0
BBX 30 39 0 0
BITMAP
007E0000
007E0000
007E0000
007E0000
007E0000
007E0000
007E0000
007E0000
007E0000
007E0000
007E0000
007E0000
007E0000
007E0000
007E0000
1FFE3FFC
1FFE3FFC
1FFE3FFC
FC7E00FC
FC7E00FC
FC7E00FC
FC7E00FC
FC7E00FC
FC7E00FC
FC7E07E0
FC7E07E0
FC7E07E0
FC7E07E0
FC7E07E0
FC7E07E0
FC7E3F00
FC7E3F00
FC7E3F00
FC7E3F00
FC7E3F00
FC7E3F00
1FFE3FFC
1FFE3FFC
1FFE3FFC
ENDCHAR
STARTCHAR uni01F4
ENCODING 500
SWIDTH 480 0
DWIDTH 29 0
BBX 24 48 3 0
BITMAP
0001F8
0001F8
0001F8
000FC0
000FC0
000FC0
007E00
007E00
007E00
000000
000000
000000
03FFC0
03FFC0
03FFC0
1F81F8
1F81F8
1F81F8
FC003F
FC003F
FC003F
FC0000
FC0000
FC0000
FC0000
FC0000
FC0000
FC0FFF
FC0FFF
FC0FFF
FC003F
FC003F
FC003F
FC003F
FC003F
FC003F
FC003F
FC003F
FC003F
FC003F
FC003F
FC003F
1F81FF
1F81FF
1F81FF
03FFC7
03FFC7
03FFC7
ENDCHAR
STARTCHAR uni01F5
ENCODING 501
SWIDTH 480 0
DWIDTH 29 0
BBX 24 48 3 -12
BITMAP
000FC0
000FC0
000FC0
007E00
007E00
007E00
03F000
03F000
03F000
000000
000000
000000
1FFFC7
1FFFC7
1FFFC7
FC01FF
FC01FF
FC01FF
FC01F8
FC01F8
FC01F8
FC01F8
FC01F8
FC01F8
FC01F8
FC01F8
FC01F8
1FFFC0
1FFFC0
1FFFC0
FC0000
FC0000
FC0000
1FFFF8
1FFFF8
1FFFF8
FC003F
FC003F
FC003F
FC003F
FC003F
FC003F
FC003F
FC003F
FC003F
1FFFF8
1FFFF8
1FFFF8
ENDCHAR
STARTCHAR uni01F6
ENCODING 502
SWIDTH 480 0
DWIDTH 29 0
BBX 24 39 3 0
BITMAP
FC7E00
FC7E00
FC7E00
FC7E00
FC7E00
FC7E00
FC7E00
FC7E00
FC7E00
FC7E00
FC7E00
FC7E00
FC7E00
FC7E00
FC7E00
FC7E3F
FC7E3F
FC7E3F
FFFE3F
FFFE3F
FFFE3F
FC7E3F
FC7E3F
FC7E3F
FC7E3F
FC7E3F
FC7E3F
FC7E3F
FC7E3F
FC7E3F
FC7E3F
FC7E3F
FC7E3F
FC7E3F
FC7E3F
FC7E3F
FC0FF8
FC0FF8
FC0FF8
ENDCHAR
STARTCHAR uni01F7
ENCODING 503
SWIDTH 480 0
DWIDTH 29 0
BBX 24 48 3 -9
BITMAP
FC7FC0
FC7FC0
FC7FC0
FFF1F8
FFF1F8
FFF1F8
FC003F
FC003F
FC003F
FC003F
FC003F
FC003F
FC003F
FC003F
FC003F
FC003F
FC003F
FC003F
FC01F8
FC01F8
FC01F8
FC0FC0
FC0FC0
FC0FC0
FC7E00
FC7E00
FC7E00
FFF000
FFF000
FFF000
FC0000
FC0000
FC0000
FC0000
FC0000
FC0000
FC0000
FC0000
FC0000
FC0000
FC0000
FC0000
FC0000
FC0000
FC0000
E00000
E00000
E00000
ENDCHAR
STARTCHAR uni01F8
ENCODING 504
SWIDTH 480 0
DWIDTH 29 0
BBX 24 45 3 0
BITMAP
03F000
03F000
03F000
007E00
007E00
007E00
000FC0
000FC0
000FC0
000000
000000
000000
FC003F
FC003F
FC003F
FF803F
FF803F
FF803F
FFF03F
FFF03F
FFF03F
FFF03F
FFF03F
FFF03F
FC7E3F
FC7E3F
FC7E3F
FC7E3F
FC7E3F
FC7E3F
FC0FFF
FC0FFF
FC0FFF
FC0FFF
FC0FFF
FC0FFF
FC01FF
FC01FF
FC01FF
FC003F
FC003F
FC003F
FC003F
FC003F
FC003F
ENDCHAR
STARTCHAR uni01F9
ENCODING 505
SWIDTH 480 0
DWIDTH 29 0
BBX 24 36 3 0
BITMAP
03F000
03F000
03F000
007E00
007E00
007E00
000FC0
000FC0
000FC0
000000
000000
000000
FC7FC0
FC7FC0
FC7FC0
FF81F8
FF81F8
FF81F8
FC003F
FC003F
FC003F
FC003F
FC003F
FC003F
FC003F
FC003F
FC003F
FC003F
FC003F
FC003F
FC003F
FC003F
FC003F
FC003F
FC003F
FC003F
ENDCHAR
STARTCHAR Aringacute
ENCODING 506
SWIDTH 480 0
DWIDTH 29 0
BBX 24 48 3 0
BITMAP
000FC0
000FC0
000FC0
007E00
007E00
007E00
000000
000000
000000
007E00
007E00
007E00
0381C0
0381C0
0381C0
0381C0
0381C0
0381C0
007E00
007E00
007E00
007E00
007E00
007E00
03FFC0
03FFC0
03FFC0
1F81F8
1F81F8
1F81F8
FC003F
FC003F
FC003F
FC003F
FC003F
FC003F
FFFFFF
FFFFFF
FFFFFF
FC003F
FC003F
FC003F
FC003F
FC003F
FC003F
FC003F
FC003F
FC003F
ENDCHAR
STARTCHAR aringacute
ENCODING 507
SWIDTH 480 0
DWIDTH 29 0
BBX 24 48 3 0
BITMAP
000FC0
000FC0
000FC0
007E00
007E00
007E00
000000
000000
000000
007E00
007E00
007E00
0381C0
0381C0
0381C0
0381C0
0381C0
0381C0
007E00
007E00
007E00
000000
000000
000000
1FFFF8
1FFFF8
1FFFF8
FC003F
FC003F
FC003F
00003F
00003F
00003F
1FFFFF
1FFFFF
1FFFFF
FC003F
FC003F
FC003F
FC003F
FC003F
FC003F
FC003F
FC003F
FC003F
1FFFC7
1FFFC7
1FFFC7
ENDCHAR
STARTCHAR AEacute
ENCODING 508
SWIDTH 480 0
DWIDTH 29 0
BBX 24 48 3 0
BITMAP
0001F8
0001F8
0001F8
000FC0
000FC0
000FC0
007E00
007E00
007E00
000000
000000
000000
007FFF
007FFF
007FFF
03FFC0
03FFC0
03FFC0
1F8FC0
1F8FC0
1F8FC0
1F8FC0
1F8FC0
1F8FC0
FC0FC0
FC0FC0
FC0FC0
FFFFFF
FFFFFF
FFFFFF
FC0FC0
FC0FC0
FC0FC0
FC0FC0
FC0FC0
FC0FC0
FC0FC0
FC0FC0
FC0FC0
FC0FC0
FC0FC0
FC0FC0
FC0FC0
FC0FC0
FC0FC0
FC0FFF
FC0FFF
FC0FFF
ENDCHAR
STARTCHAR aeacute
ENCODING 509
SWIDTH 480 0
DWIDTH 29 0
BBX 24 36 3 0
BITMAP
0001F8
0001F8
0001F8
000FC0
000FC0
000FC0
007E00
007E00
007E00
000000
000000
000000
1FF1F8
1FF1F8
1FF1F8
E07E3F
E07E3F
E07E3F
007E3F
007E3F
007E3F
007FF8
007FF8
007FF8
1FFE00
1FFE00
1FFE00
FC7E00
FC7E00
FC7E00
FC7E07
FC7E07
FC7E07
1F8FF8
1F8FF8
1F8FF8
ENDCHAR
STARTCHAR Oslashacute
ENCODING 510
SWIDTH 480 0
DWIDTH 29 0
BBX 24 51 3 -3
BITMAP
000FC0
000FC0
000FC0
007E00
007E00
007E00
03F000
03F000
03F000
000038
000038
000038
03FFF8
03FFF8
03FFF8
1F81F8
1F81F8
1F81F8
FC01FF
FC01FF
FC01FF
FC0E3F
FC0E3F
FC0E3F
FC0E3F
FC0E3F
FC0E3F
FC0E3F
FC0E3F
FC0E3F
FC703F
FC703F
FC703F
FC703F
FC703F
FC703F
FC703F
FC703F
FC703F
FF803F
FF803F
FF803F
1F81F8
1F81F8
1F81F8
1FFFC0
1FFFC0
1FFFC0
E00000
E00000
E00000
ENDCHAR
STARTCHAR oslashacute
ENCODING 511
SWIDTH 480 0
DWIDTH 29 0
BBX 24 39 3 -3
BITMAP
0001F8
0001F8
0001F8
000FC0
000FC0
000FC0
007E00
007E00
007E00
000007
000007
000007
03FFF8
03FFF8
03FFF8
1F81F8
1F81F8
1F81F8
FC0E3F
FC0E3F
FC0E3F
FC0E3F
FC0E3F
FC0E3F
FC703F
FC703F
FC703F
FC703F
FC703F
FC703F
1F81F8
1F81F8
1F81F8
1FFFC0
1FFFC0
1FFFC0
E00000
E00000
E00000
ENDCHAR
STARTCHAR uni0200
ENCODING 512
SWIDTH 480 0
DWIDTH 29 0
BBX 24 45 3 0
BITMAP
FC0FC0
FC0FC0
FC0FC0
1F81F8
1F81F8
1F81F8
000000
000000
000000
007E00
007E00
007E00
03FFC0
03FFC0
03FFC0
1F81F8
1F81F8
1F81F8
1F81F8
1F81F8
1F81F8
FC003F
FC003F
FC003F
FC003F
FC003F
FC003F
FC003F
FC003F
FC003F
FFFFFF
FFFFFF
FFFFFF
FC003F
FC003F
FC003F
FC003F
FC003F
FC003F
FC003F
FC003F
FC003F
FC003F
FC003F
FC003F
ENDCHAR
STARTCHAR uni0201
ENCODING 513
SWIDTH 480 0
DWIDTH 29 0
BBX 24 33 3 0
BITMAP
FC0FC0
FC0FC0
FC0FC0
1F81F8
1F81F8
1F81F8
000000
000000
000000
03FFF8
03FFF8
03FFF8
1F803F
1F803F
1F803F
00003F
00003F
00003F
1FFFFF
1FFFFF
1FFFFF
FC003F
FC003F
FC003F
FC003F
FC003F
FC003F
FC003F
FC003F
FC003F
1FFFC7
1FFFC7
1FFFC7
ENDCHAR
STARTCHAR uni0202
ENCODING 514
SWIDTH 480 0
DWIDTH 29 0
BBX 24 45 3 0
BITMAP
03FFC0
03FFC0
03FFC0
1F81F8
1F81F8
1F81F8
1C0038
1C0038
1C0038
000000
000000
000000
007E00
007E00
007E00
03FFC0
03FFC0
03FFC0
1F81F8
1F81F8
1F81F8
FC003F
FC003F
FC003F
FC003F
FC003F
FC003F
FC003F
FC003F
FC003F
FFFFFF
FFFFFF
FFFFFF
FC003F
FC003F
FC003F
FC003F
FC003F
FC003F
FC003F
FC003F
FC003F
FC003F
FC003F
FC003F
ENDCHAR
STARTCHAR uni0203
ENCODING 515
SWIDTH 480 0
DWIDTH 29 0
BBX 24 36 3 0
BITMAP
03FFC0
03FFC0
03FFC0
1F81F8
1F81F8
1F81F8
1C0038
1C0038
1C0038
000000
000000
000000
03FFF8
03FFF8
03FFF8
1F803F
1F803F
1F803F
00003F
00003F
00003F
1FFFFF
1FFFFF
1FFFFF
FC003F
FC003F
FC003F
FC003F
FC003F
FC003F
FC003F
FC003F
FC003F
1FFFC7
1FFFC7
1FFFC7
ENDCHAR
STARTCHAR uni0204
ENCODING 516
SWIDTH 480 0
DWIDTH 29 0
BBX 24 45 3 0
BITMAP
FC0FC0
FC0FC0
FC0FC0
1F81F8
1F81F8
1F81F8
000000
000000
000000
FFFFFF
FFFFFF
FFFFFF
FC0000
FC0000
FC0000
FC0000
FC0000
FC0000
FC0000
FC0000
FC0000
FC0000
FC0000
FC0000
FFFFC0
FFFFC0
FFFFC0
FC0000
FC0000
FC0000
FC0000
FC0000
FC0000
FC0000
FC0000
FC0000
FC0000
FC0000
FC0000
FC0000
FC0000
FC0000
FFFFFF
FFFFFF
FFFFFF
ENDCHAR
STARTCHAR uni0205
ENCODING 517
SWIDTH 480 0
DWIDTH 29 0
BBX 24 33 3 0
BITMAP
FC0FC0
FC0FC0
FC0FC0
1F81F8
1F81F8
1F81F8
000000
000000
000000
03FFC0
03FFC0
03FFC0
1F81F8
1F81F8
1F81F8
FC003F
FC003F
FC003F
FFFFFF
FFFFFF
FFFFFF
FC0000
FC0000
FC0000
FC0000
FC0000
FC0000
1F803F
1F803F
1F803F
03FFF8
03FFF8
03FFF8
ENDCHAR
STARTCHAR uni0206
ENCODING 518
SWIDTH 480 0
DWIDTH 29 0
BBX 24 45 3 0
BITMAP
03FFC0
03FFC0
03FFC0
1F81F8
1F81F8
1F81F8
1C0038
1C0038
1C0038
000000
000000
000000
FFFFFF
FFFFFF
FFFFFF
FC0000
FC0000
FC0000
FC0000
FC0000
FC0000
FC0000
FC0000
FC0000
FC0000
FC0000
FC0000
FFFFC0
FFFFC0
FFFFC0
FC0000
FC0000
FC0000
FC0000
FC0000
FC0000
FC0000
FC0000
FC0000
FC0000
FC0000
FC0000
FFFFFF
FFFFFF
FFFFFF
ENDCHAR
STARTCHAR uni0207
ENCODING 519
SWIDTH 480 0
DWIDTH 29 0
BBX 24 36 3 0
BITMAP
03FFC0
03FFC0
03FFC0
1F81F8
1F81F8
1F81F8
1C0038
1C0038
1C0038
000000
000000
000000
03FFC0
03FFC0
03FFC0
1F81F8
1F81F8
1F81F8
FC003F
FC003F
FC003F
FFFFFF
FFFFFF
FFFFFF
FC0000
FC0000
FC0000
FC0000
FC0000
FC0000
1F803F
1F803F
1F803F
03FFF8
03FFF8
03FFF8
ENDCHAR
STARTCHAR uni0208
ENCODING 520
SWIDTH 480 0
DWIDTH 29 0
BBX 24 45 3 0
BITMAP
FC0FC0
FC0FC0
FC0FC0
1F81F8
1F81F8
1F81F8
000000
000000
000000
FFFFFF
FFFFFF
FFFFFF
007E00
007E00
007E00
007E00
007E00
007E00
007E00
007E00
007E00
007E00
007E00
007E00
007E00
007E00
007E00
007E00
007E00
007E00
007E00
007E00
007E00
007E00
007E00
007E00
007E00
007E00
007E00
007E00
007E00
007E00
FFFFFF
FFFFFF
FFFFFF
ENDCHAR
STARTCHAR uni0209
ENCODING 521
SWIDTH 480 0
DWIDTH 29 0
BBX 24 33 3 0
BITMAP
FC0FC0
FC0FC0
FC0FC0
1F81F8
1F81F8
1F81F8
000000
000000
000000
1FFE00
1FFE00
1FFE00
007E00
007E00
007E00
007E00
007E00
007E00
007E00
007E00
007E00
007E00
007E00
007E00
007E00
007E00
007E00
007E00
007E00
007E00
FFFFFF
FFFFFF
FFFFFF
ENDCHAR
STARTCHAR uni020A
ENCODING 522
SWIDTH 480 0
DWIDTH 29 0
BBX 24 45 3 0
BITMAP
03FFC0
03FFC0
03FFC0
1F81F8
1F81F8
1F81F8
1C0038
1C0038
1C0038
000000
000000
000000
FFFFFF
FFFFFF
FFFFFF
007E00
007E00
007E00
007E00
007E00
007E00
007E00
007E00
007E00
007E00
007E00
007E00
007E00
007E00
007E00
007E00
007E00
007E00
007E00
007E00
007E00
007E00
007E00
007E00
007E00
007E00
007E00
FFFFFF
FFFFFF
FFFFFF
ENDCHAR
STARTCHAR uni020B
ENCODING 523
SWIDTH 480 0
DWIDTH 29 0
BBX 24 36 3 0
BITMAP
03FFC0
03FFC0
03FFC0
1F81F8
1F81F8
1F81F8
1C0038
1C0038
1C0038
000000
000000
000000
1FFE00
1FFE00
1FFE00
007E00
007E00
007E00
007E00
007E00
007E00
007E00
007E00
007E00
007E00
007E00
007E00
007E00
007E00
007E00
007E00
007E00
007E00
FFFFFF
FFFFFF
FFFFFF
ENDCHAR
STARTCHAR uni020C
ENCODING 524
SWIDTH 480 0
DWIDTH 29 0
BBX 24 45 3 0
BITMAP
FC0FC0
FC0FC0
FC0FC0
1F81F8
1F81F8
1F81F8
000000
000000
000000
03FFC0
03FFC0
03FFC0
1F81F8
1F81F8
1F81F8
FC003F
FC003F
FC003F
FC003F
FC003F
FC003F
FC003F
FC003F
FC003F
FC003F
FC003F
FC003F
FC003F
FC003F
FC003F
FC003F
FC003F
FC003F
FC003F
FC003F
FC003F
FC003F
FC003F
FC003F
1F81F8
1F81F8
1F81F8
03FFC0
03FFC0
03FFC0
ENDCHAR
STARTCHAR uni020D
ENCODING 525
SWIDTH 480 0
DWIDTH 29 0
BBX 24 33 3 0
BITMAP
FC0FC0
FC0FC0
FC0FC0
1F81F8
1F81F8
1F81F8
000000
000000
000000
03FFC0
03FFC0
03FFC0
1F81F8
1F81F8
1F81F8
FC003F
FC003F
FC003F
FC003F
FC003F
FC003F
FC003F
FC003F
FC003F
FC003F
FC003F
FC003F
1F81F8
1F81F8
1F81F8
03FFC0
03FFC0
03FFC0
ENDCHAR
STARTCHAR uni020E
ENCODING 526
SWIDTH 480 0
DWIDTH 29 0
BBX 24 45 3 0
BITMAP
03FFC0
03FFC0
03FFC0
1F81F8
1F81F8
1F81F8
1C0038
1C0038
1C0038
000000
000000
000000
03FFC0
03FFC0
03FFC0
1F81F8
1F81F8
1F81F8
FC003F
FC003F
FC003F
FC003F
FC003F
FC003F
FC003F
FC003F
FC003F
FC003F
FC003F
FC003F
FC003F
FC003F
FC003F
FC003F
FC003F
FC003F
FC003F
FC003F
FC003F
1F81F8
1F81F8
1F81F8
03FFC0
03FFC0
03FFC0
ENDCHAR
STARTCHAR uni020F
ENCODING 527
SWIDTH 480 0
DWIDTH 29 0
BBX 24 36 3 0
BITMAP
03FFC0
03FFC0
03FFC0
1F81F8
1F81F8
1F81F8
1C0038
1C0038
1C0038
000000
000000
000000
03FFC0
03FFC0
03FFC0
1F81F8
1F81F8
1F81F8
FC003F
FC003F
FC003F
FC003F
FC003F
FC003F
FC003F
FC003F
FC003F
FC003F
FC003F
FC003F
1F81F8
1F81F8
1F81F8
03FFC0
03FFC0
03FFC0
ENDCHAR
STARTCHAR uni0210
ENCODING 528
SWIDTH 480 0
DWIDTH 29 0
BBX 24 45 3 0
BITMAP
FC0FC0
FC0FC0
FC0FC0
1F81F8
1F81F8
1F81F8
000000
000000
000000
FFFFC0
FFFFC0
FFFFC0
FC01F8
FC01F8
FC01F8
FC003F
FC003F
FC003F
FC003F
FC003F
FC003F
FC003F
FC003F
FC003F
FC01F8
FC01F8
FC01F8
FFFFC0
FFFFC0
FFFFC0
FC0FC0
FC0FC0
FC0FC0
FC01F8
FC01F8
FC01F8
FC01F8
FC01F8
FC01F8
FC003F
FC003F
FC003F
FC003F
FC003F
FC003F
ENDCHAR
STARTCHAR uni0211
ENCODING 529
SWIDTH 480 0
DWIDTH 29 0
BBX 24 33 3 0
BITMAP
FC0FC0
FC0FC0
FC0FC0
1F81F8
1F81F8
1F81F8
000000
000000
000000
FC7FF8
FC7FF8
FC7FF8
1FF03F
1FF03F
1FF03F
1F8000
1F8000
1F8000
1F8000
1F8000
1F8000
1F8000
1F8000
1F8000
1F8000
1F8000
1F8000
1F8000
1F8000
1F8000
1F8000
1F8000
1F8000
ENDCHAR
STARTCHAR uni0212
ENCODING 530
SWIDTH 480 0
DWIDTH 29 0
BBX 24 45 3 0
BITMAP
03FFC0
03FFC0
03FFC0
1F81F8
1F81F8
1F81F8
1C0038
1C0038
1C0038
000000
000000
000000
FFFFC0
FFFFC0
FFFFC0
FC01F8
FC01F8
FC01F8
FC003F
FC003F
FC003F
FC003F
FC003F
FC003F
FC01F8
FC01F8
FC01F8
FFFFC0
FFFFC0
FFFFC0
FC0FC0
FC0FC0
FC0FC0
FC01F8
FC01F8
FC01F8
FC01F8
FC01F8
FC01F8
FC003F
FC003F
FC003F
FC003F
FC003F
FC003F
ENDCHAR
STARTCHAR uni0213
ENCODING 531
SWIDTH 480 0
DWIDTH 29 0
BBX 24 36 3 0
BITMAP
03FFC0
03FFC0
03FFC0
1F81F8
1F81F8
1F81F8
1C0038
1C0038
1C0038
000000
000000
000000
FC7FF8
FC7FF8
FC7FF8
1FF03F
1FF03F
1FF03F
1F8000
1F8000
1F8000
1F8000
1F8000
1F8000
1F8000
1F8000
1F8000
1F8000
1F8000
1F8000
1F8000
1F8000
1F8000
1F8000
1F8000
1F8000
ENDCHAR
STARTCHAR uni0214
ENCODING 532
SWIDTH 480 0
DWIDTH 29 0
BBX 24 45 3 0
BITMAP
FC0FC0
FC0FC0
FC0FC0
1F81F8
1F81F8
1F81F8
000000
000000
000000
FC003F
FC003F
FC003F
FC003F
FC003F
FC003F
FC003F
FC003F
FC003F
FC003F
FC003F
FC003F
FC003F
FC003F
FC003F
FC003F
FC003F
FC003F
FC003F
FC003F
FC003F
FC003F
FC003F
FC003F
FC003F
FC003F
FC003F
FC003F
FC003F
FC003F
1F81F8
1F81F8
1F81F8
03FFC0
03FFC0
03FFC0
ENDCHAR
STARTCHAR uni0215
ENCODING 533
SWIDTH 480 0
DWIDTH 29 0
BBX 24 33 3 0
BITMAP
FC0FC0
FC0FC0
FC0FC0
1F81F8
1F81F8
1F81F8
000000
000000
000000
FC003F
FC003F
FC003F
FC003F
FC003F
FC003F
FC003F
FC003F
FC003F
FC003F
FC003F
FC003F
FC003F
FC003F
FC003F
FC003F
FC003F
FC003F
1F81FF
1F81FF
1F81FF
03FE3F
03FE3F
03FE3F
ENDCHAR
STARTCHAR uni0216
ENCODING 534
SWIDTH 480 0
DWIDTH 29 0
BBX 24 45 3 0
BITMAP
03FFC0
03FFC0
03FFC0
1F81F8
1F81F8
1F81F8
1C0038
1C0038
1C0038
000000
000000
000000
FC003F
FC003F
FC003F
FC003F
FC003F
FC003F
FC003F
FC003F
FC003F
FC003F
FC003F
FC003F
FC003F
FC003F
FC003F
FC003F
FC003F
FC003F
FC003F
FC003F
FC003F
FC003F
FC003F
FC003F
FC003F
FC003F
FC003F
1F81F8
1F81F8
1F81F8
03FFC0
03FFC0
03FFC0
ENDCHAR
STARTCHAR uni0217
ENCODING 535
SWIDTH 480 0
DWIDTH 29 0
BBX 24 36 3 0
BITMAP
03FFC0
03FFC0
03FFC0
1F81F8
1F81F8
1F81F8
1C0038
1C0038
1C0038
000000
000000
000000
FC003F
FC003F
FC003F
FC003F
FC003F
FC003F
FC003F
FC003F
FC003F
FC003F
FC003F
FC003F
FC003F
FC003F
FC003F
FC003F
FC003F
FC003F
1F81FF
1F81FF
1F81FF
03FE3F
03FE3F
03FE3F
ENDCHAR
STARTCHAR Scommaaccent
ENCODING 536
SWIDTH 480 0
DWIDTH 29 0
BBX 24 51 3 -12
BITMAP
03FFC0
03FFC0
03FFC0
1F81F8
1F81F8
1F81F8
FC003F
FC003F
FC003F
FC0000
FC0000
FC0000
FC0000
FC0000
FC0000
1F8000
1F8000
1F8000
03FFC0
03FFC0
03FFC0
0001F8
0001F8
0001F8
00003F
00003F
00003F
00003F
00003F
00003F
FC003F
FC003F
FC003F
1F81F8
1F81F8
1F81F8
03FFC0
03FFC0
03FFC0
000000
000000
000000
007FC0
007FC0
007FC0
007FC0
007FC0
007FC0
03FE00
03FE00
03FE00
ENDCHAR
STARTCHAR scommaaccent
ENCODING 537
SWIDTH 480 0
DWIDTH 29 0
BBX 24 36 3 -12
BITMAP
1FFFF8
1FFFF8
1FFFF8
FC003F
FC003F
FC003F
FC0000
FC0000
FC0000
1FFFF8
1FFFF8
1FFFF8
00003F
00003F
00003F
00003F
00003F
00003F
FC003F
FC003F
FC003F
1FFFF8
1FFFF8
1FFFF8
000000
000000
000000
007FC0
007FC0
007FC0
007FC0
007FC0
007FC0
03FE00
03FE00
03FE00
ENDCHAR
STARTCHAR Tcommaaccent
ENCODING 538
SWIDTH 480 0
DWIDTH 29 0
BBX 24 51 3 -12
BITMAP
FFFFFF
FFFFFF
FFFFFF
007E00
007E00
007E00
007E00
007E00
007E00
007E00
007E00
007E00
007E00
007E00
007E00
007E00
007E00
007E00
007E00
007E00
007E00
007E00
007E00
007E00
007E00
007E00
007E00
007E00
007E00
007E00
007E00
007E00
007E00
007E00
007E00
007E00
007E00
007E00
007E00
000000
000000
000000
007FC0
007FC0
007FC0
007FC0
007FC0
007FC0
03FE00
03FE00
03FE00
ENDCHAR
STARTCHAR tcommaaccent
ENCODING 539
SWIDTH 480 0
DWIDTH 29 0
BBX 24 45 3 -12
BITMAP
03F000
03F000
03F000
03F000
03F000
03F000
03F000
03F000
03F000
FFFFC0
FFFFC0
FFFFC0
03F000
03F000
03F000
03F000
03F000
03F000
03F000
03F000
03F000
03F000
03F000
03F000
03F000
03F000
03F000
03F03F
03F03F
03F03F
007FF8
007FF8
007FF8
000000
000000
000000
007FC0
007FC0
007FC0
007FC0
007FC0
007FC0
03FE00
03FE00
03FE00
ENDCHAR
STARTCHAR uni021C
ENCODING 540
SWIDTH 480 0
DWIDTH 29 0
BBX 24 39 3 0
BITMAP
03FFC0
03FFC0
03FFC0
1F81F8
1F81F8
1F81F8
0001F8
0001F8
0001F8
0001F8
0001F8
0001F8
000FC0
000FC0
000FC0
007FC0
007FC0
007FC0
03F1F8
03F1F8
03F1F8
1F803F
1F803F
1F803F
00003F
00003F
00003F
0001F8
0001F8
0001F8
000FC0
000FC0
000FC0
03FE00
03FE00
03FE00
FF8000
FF8000
FF8000
ENDCHAR
STARTCHAR uni021D
ENCODING 541
SWIDTH 480 0
DWIDTH 29 0
BBX 21 36 6 -12
BITMAP
1FFE00
1FFE00
1FFE00
FC0FC0
FC0FC0
FC0FC0
000FC0
000FC0
000FC0
000FC0
000FC0
000FC0
007E00
007E00
007E00
03FE00
03FE00
03FE00
1F8FC0
1F8FC0
1F8FC0
FC01F8
FC01F8
FC01F8
0001F8
0001F8
0001F8
000FC0
000FC0
000FC0
007E00
007E00
007E00
FFF000
FFF000
FFF000
ENDCHAR
STARTCHAR uni021E
ENCODING 542
SWIDTH 480 0
DWIDTH 29 0
BBX 24 45 3 0
BITMAP
1F81F8
1F81F8
1F81F8
03FFC0
03FFC0
03FFC0
007E00
007E00
007E00
FC003F
FC003F
FC003F
FC003F
FC003F
FC003F
FC003F
FC003F
FC003F
FC003F
FC003F
FC003F
FC003F
FC003F
FC003F
FFFFFF
FFFFFF
FFFFFF
FC003F
FC003F
FC003F
FC003F
FC003F
FC003F
FC003F
FC003F
FC003F
FC003F
FC003F
FC003F
FC003F
FC003F
FC003F
FC003F
FC003F
FC003F
ENDCHAR
STARTCHAR uni021F
ENCODING 543
SWIDTH 480 0
DWIDTH 29 0
BBX 24 45 3 0
BITMAP
1F81F8
1F81F8
1F81F8
03FFC0
03FFC0
03FFC0
007E00
007E00
007E00
FC0000
FC0000
FC0000
FC0000
FC0000
FC0000
FC0000
FC0000
FC0000
FC0000
FC0000
FC0000
FC7FC0
FC7FC0
FC7FC0
FF81F8
FF81F8
FF81F8
FC003F
FC003F
FC003F
FC003F
FC003F
FC003F
FC003F
FC003F
FC003F
FC003F
FC003F
FC003F
FC003F
FC003F
FC003F
FC003F
FC003F
FC003F
ENDCHAR
STARTCHAR uni0220
ENCODING 544
SWIDTH 480 0
DWIDTH 29 0
BBX 24 51 3 -12
BITMAP
FC7FC0
FC7FC0
FC7FC0
FF81F8
FF81F8
FF81F8
FC003F
FC003F
FC003F
FC003F
FC003F
FC003F
FC003F
FC003F
FC003F
FC003F
FC003F
FC003F
FC003F
FC003F
FC003F
FC003F
FC003F
FC003F
FC003F
FC003F
FC003F
FC003F
FC003F
FC003F
FC003F
FC003F
FC003F
FC003F
FC003F
FC003F
FC003F
FC003F
FC003F
00003F
00003F
00003F
00003F
00003F
00003F
00003F
00003F
00003F
00003F
00003F
00003F
ENDCHAR
STARTCHAR uni0221
ENCODING 545
SWIDTH 480 0
DWIDTH 29 0
BBX 24 45 3 -6
BITMAP
000FC0
000FC0
000FC0
000FC0
000FC0
000FC0
000FC0
000FC0
000FC0
000FC0
000FC0
000FC0
000FC0
000FC0
000FC0
038FC0
038FC0
038FC0
1FFFC0
1FFFC0
1FFFC0
FC0FC0
FC0FC0
FC0FC0
FC0FC0
FC0FC0
FC0FC0
FC0FC0
FC0FC0
FC0FC0
FC0FFF
FC0FFF
FC0FFF
1FFFC7
1FFFC7
1FFFC7
03FFC7
03FFC7
03FFC7
0001F8
0001F8
0001F8
000E00
000E00
000E00
ENDCHAR
STARTCHAR uni0222
ENCODING 546
SWIDTH 480 0
DWIDTH 29 0
BBX 24 39 3 0
BITMAP
000FC0
000FC0
000FC0
0001F8
0001F8
0001F8
1F803F
1F803F
1F803F
FC003F
FC003F
FC003F
FC003F
FC003F
FC003F
1F81F8
1F81F8
1F81F8
03FFC0
03FFC0
03FFC0
1F81F8
1F81F8
1F81F8
FC003F
FC003F
FC003F
FC003F
FC003F
FC003F
FC003F
FC003F
FC003F
1F81F8
1F81F8
1F81F8
03FFC0
03FFC0
03FFC0
ENDCHAR
STARTCHAR uni0223
ENCODING 547
SWIDTH 480 0
DWIDTH 29 0
BBX 24 30 3 0
BITMAP
1F81F8
1F81F8
1F81F8
FC003F
FC003F
FC003F
FC003F
FC003F
FC003F
1F81F8
1F81F8
1F81F8
03FFC0
03FFC0
03FFC0
1F81F8
1F81F8
1F81F8
FC003F
FC003F
FC003F
FC003F
FC003F
FC003F
1F81F8
1F81F8
1F81F8
03FFC0
03FFC0
03FFC0
ENDCHAR
STARTCHAR uni0224
ENCODING 548
SWIDTH 480 0
DWIDTH 29 0
BBX 27 48 3 -9
BITMAP
FFFFFF00
FFFFFF00
FFFFFF00
00003F00
00003F00
00003F00
00003F00
00003F00
00003F00
0001F800
0001F800
0001F800
000FC000
000FC000
000FC000
000FC000
000FC000
000FC000
007E0000
007E0000
007E0000
03F00000
03F00000
03F00000
03F00000
03F00000
03F00000
1F800000
1F800000
1F800000
FC000000
FC000000
FC000000
FC000000
FC000000
FC000000
FFFFFF00
FFFFFF00
FFFFFF00
000007E0
000007E0
000007E0
00003F00
00003F00
00003F00
00003800
00003800
00003800
ENDCHAR
STARTCHAR uni0225
ENCODING 549
SWIDTH 480 0
DWIDTH 29 0
BBX 24 33 6 -9
BITMAP
FFFFF8
FFFFF8
FFFFF8
0001F8
0001F8
0001F8
000FC0
000FC0
000FC0
007E00
007E00
007E00
03F000
03F000
03F000
1F8000
1F8000
1F8000
FC0000
FC0000
FC0000
FFFFF8
FFFFF8
FFFFF8
00003F
00003F
00003F
0001F8
0001F8
0001F8
0001C0
0001C0
0001C0
ENDCHAR
STARTCHAR uni0226
ENCODING 550
SWIDTH 480 0
DWIDTH 29 0
BBX 24 45 3 0
BITMAP
007E00
007E00
007E00
007E00
007E00
007E00
000000
000000
000000
007E00
007E00
007E00
03FFC0
03FFC0
03FFC0
1F81F8
1F81F8
1F81F8
1F81F8
1F81F8
1F81F8
FC003F
FC003F
FC003F
FC003F
FC003F
FC003F
FC003F
FC003F
FC003F
FFFFFF
FFFFFF
FFFFFF
FC003F
FC003F
FC003F
FC003F
FC003F
FC003F
FC003F
FC003F
FC003F
FC003F
FC003F
FC003F
ENDCHAR
STARTCHAR uni0227
ENCODING 551
SWIDTH 480 0
DWIDTH 29 0
BBX 24 33 3 0
BITMAP
007E00
007E00
007E00
007E00
007E00
007E00
000000
000000
000000
03FFF8
03FFF8
03FFF8
1F803F
1F803F
1F803F
00003F
00003F
00003F
1FFFFF
1FFFFF
1FFFFF
FC003F
FC003F
FC003F
FC003F
FC003F
FC003F
FC003F
FC003F
FC003F
1FFFC7
1FFFC7
1FFFC7
ENDCHAR
STARTCHAR uni0228
ENCODING 552
SWIDTH 480 0
DWIDTH 29 0
BBX 24 51 3 -12
BITMAP
FFFFFF
FFFFFF
FFFFFF
FC0000
FC0000
FC0000
FC0000
FC0000
FC0000
FC0000
FC0000
FC0000
FC0000
FC0000
FC0000
FC0000
FC0000
FC0000
FFFFC0
FFFFC0
FFFFC0
FC0000
FC0000
FC0000
FC0000
FC0000
FC0000
FC0000
FC0000
FC0000
FC0000
FC0000
FC0000
FC0000
FC0000
FC0000
FFFFFF
FFFFFF
FFFFFF
007E00
007E00
007E00
000FC0
000FC0
000FC0
1F8FC0
1F8FC0
1F8FC0
03FE00
03FE00
03FE00
ENDCHAR
STARTCHAR uni0229
ENCODING 553
SWIDTH 480 0
DWIDTH 29 0
BBX 24 36 3 -12
BITMAP
03FFC0
03FFC0
03FFC0
1F81F8
1F81F8
1F81F8
FC003F
FC003F
FC003F
FFFFFF
FFFFFF
FFFFFF
FC0000
FC0000
FC0000
FC0000
FC0000
FC0000
1F803F
1F803F
1F803F
03FFF8
03FFF8
03FFF8
007E00
007E00
007E00
000FC0
000FC0
000FC0
1F8FC0
1F8FC0
1F8FC0
03FE00
03FE00
03FE00
ENDCHAR
STARTCHAR uni022A
ENCODING 554
SWIDTH 480 0
DWIDTH 29 0
BBX 24 48 3 0
BITMAP
FFFFFF
FFFFFF
FFFFFF
000000
000000
000000
1F81F8
1F81F8
1F81F8
1F81F8
1F81F8
1F81F8
000000
000000
000000
03FFC0
03FFC0
03FFC0
1F81F8
1F81F8
1F81F8
FC003F
FC003F
FC003F
FC003F
FC003F
FC003F
FC003F
FC003F
FC003F
FC003F
FC003F
FC003F
FC003F
FC003F
FC003F
FC003F
FC003F
FC003F
FC003F
FC003F
FC003F
1F81F8
1F81F8
1F81F8
03FFC0
03FFC0
03FFC0
ENDCHAR
STARTCHAR uni022B
ENCODING 555
SWIDTH 480 0
DWIDTH 29 0
BBX 24 39 3 0
BITMAP
FFFFFF
FFFFFF
FFFFFF
000000
000000
000000
1F81F8
1F81F8
1F81F8
1F81F8
1F81F8
1F81F8
000000
000000
000000
03FFC0
03FFC0
03FFC0
1F81F8
1F81F8
1F81F8
FC003F
FC003F
FC003F
FC003F
FC003F
FC003F
FC003F
FC003F
FC003F
FC003F
FC003F
FC003F
1F81F8
1F81F8
1F81F8
03FFC0
03FFC0
03FFC0
ENDCHAR
STARTCHAR uni022C
ENCODING 556
SWIDTH 480 0
DWIDTH 29 0
BBX 24 48 3 0
BITMAP
FFFFFF
FFFFFF
FFFFFF
000000
000000
000000
03F038
03F038
03F038
1FFFF8
1FFFF8
1FFFF8
1C0FC0
1C0FC0
1C0FC0
000000
000000
000000
03FFC0
03FFC0
03FFC0
1F81F8
1F81F8
1F81F8
FC003F
FC003F
FC003F
FC003F
FC003F
FC003F
FC003F
FC003F
FC003F
FC003F
FC003F
FC003F
FC003F
FC003F
FC003F
FC003F
FC003F
FC003F
1F81F8
1F81F8
1F81F8
03FFC0
03FFC0
03FFC0
ENDCHAR
STARTCHAR uni022D
ENCODING 557
SWIDTH 480 0
DWIDTH 29 0
BBX 24 42 3 0
BITMAP
FFFFFF
FFFFFF
FFFFFF
000000
000000
000000
03F038
03F038
03F038
1FFFF8
1FFFF8
1FFFF8
1C0FC0
1C0FC0
1C0FC0
000000
000000
000000
03FFC0
03FFC0
03FFC0
1F81F8
1F81F8
1F81F8
FC003F
FC003F
FC003F
FC003F
FC003F
FC003F
FC003F
FC003F
FC003F
FC003F
FC003F
FC003F
1F81F8
1F81F8
1F81F8
03FFC0
03FFC0
03FFC0
ENDCHAR
STARTCHAR uni022E
ENCODING 558
SWIDTH 480 0
DWIDTH 29 0
BBX 24 45 3 0
BITMAP
007E00
007E00
007E00
007E00
007E00
007E00
000000
000000
000000
03FFC0
03FFC0
03FFC0
1F81F8
1F81F8
1F81F8
FC003F
FC003F
FC003F
FC003F
FC003F
FC003F
FC003F
FC003F
FC003F
FC003F
FC003F
FC003F
FC003F
FC003F
FC003F
FC003F
FC003F
FC003F
FC003F
FC003F
FC003F
FC003F
FC003F
FC003F
1F81F8
1F81F8
1F81F8
03FFC0
03FFC0
03FFC0
ENDCHAR
STARTCHAR uni022F
ENCODING 559
SWIDTH 480 0
DWIDTH 29 0
BBX 24 33 3 0
BITMAP
007E00
007E00
007E00
007E00
007E00
007E00
000000
000000
000000
03FFC0
03FFC0
03FFC0
1F81F8
1F81F8
1F81F8
FC003F
FC003F
FC003F
FC003F
FC003F
FC003F
FC003F
FC003F
FC003F
FC003F
FC003F
FC003F
1F81F8
1F81F8
1F81F8
03FFC0
03FFC0
03FFC0
ENDCHAR
STARTCHAR uni0230
ENCODING 560
SWIDTH 480 0
DWIDTH 29 0
BBX 24 48 3 0
BITMAP
FFFFFF
FFFFFF
FFFFFF
000000
000000
000000
007E00
007E00
007E00
007E00
007E00
007E00
000000
000000
000000
03FFC0
03FFC0
03FFC0
1F81F8
1F81F8
1F81F8
FC003F
FC003F
FC003F
FC003F
FC003F
FC003F
FC003F
FC003F
FC003F
FC003F
FC003F
FC003F
FC003F
FC003F
FC003F
FC003F
FC003F
FC003F
FC003F
FC003F
FC003F
1F81F8
1F81F8
1F81F8
03FFC0
03FFC0
03FFC0
ENDCHAR
STARTCHAR uni0231
ENCODING 561
SWIDTH 480 0
DWIDTH 29 0
BBX 24 39 3 0
BITMAP
FFFFFF
FFFFFF
FFFFFF
000000
000000
000000
007E00
007E00
007E00
007E00
007E00
007E00
000000
000000
000000
03FFC0
03FFC0
03FFC0
1F81F8
1F81F8
1F81F8
FC003F
FC003F
FC003F
FC003F
FC003F
FC003F
FC003F
FC003F
FC003F
FC003F
FC003F
FC003F
1F81F8
1F81F8
1F81F8
03FFC0
03FFC0
03FFC0
ENDCHAR
STARTCHAR uni0232
ENCODING 562
SWIDTH 480 0
DWIDTH 29 0
BBX 24 45 3 0
BITMAP
FFFFFF
FFFFFF
FFFFFF
000000
000000
000000
FC003F
FC003F
FC003F
FC003F
FC003F
FC003F
1F81F8
1F81F8
1F81F8
1F81F8
1F81F8
1F81F8
03FFC0
03FFC0
03FFC0
03FFC0
03FFC0
03FFC0
007E00
007E00
007E00
007E00
007E00
007E00
007E00
007E00
007E00
007E00
007E00
007E00
007E00
007E00
007E00
007E00
007E00
007E00
007E00
007E00
007E00
ENDCHAR
STARTCHAR uni0233
ENCODING 563
SWIDTH 480 0
DWIDTH 29 0
BBX 24 42 3 -12
BITMAP
FFFFFF
FFFFFF
FFFFFF
000000
000000
000000
FC003F
FC003F
FC003F
FC003F
FC003F
FC003F
FC003F
FC003F
FC003F
FC003F
FC003F
FC003F
FC003F
FC003F
FC003F
FC003F
FC003F
FC003F
1F81FF
1F81FF
1F81FF
03FE3F
03FE3F
03FE3F
00003F
00003F
00003F
FC003F
FC003F
FC003F
1F81F8
1F81F8
1F81F8
03FFC0
03FFC0
03FFC0
ENDCHAR
STARTCHAR uni0234
ENCODING 564
SWIDTH 480 0
DWIDTH 29 0
BBX 24 45 3 -6
BITMAP
FFF000
FFF000
FFF000
03F000
03F000
03F000
03F000
03F000
03F000
03F000
03F000
03F000
03F000
03F000
03F000
03F000
03F000
03F000
03F000
03F000
03F000
03F000
03F000
03F000
03F000
03F000
03F000
03F000
03F000
03F000
03F038
03F038
03F038
03F1C7
03F1C7
03F1C7
007E07
007E07
007E07
000FF8
000FF8
000FF8
007000
007000
007000
ENDCHAR
STARTCHAR uni0235
ENCODING 565
SWIDTH 480 0
DWIDTH 29 0
BBX 24 33 3 -9
BITMAP
FC7E00
FC7E00
FC7E00
FF8FC0
FF8FC0
FF8FC0
FC0FC0
FC0FC0
FC0FC0
FC0FC0
FC0FC0
FC0FC0
FC0FC0
FC0FC0
FC0FC0
FC0FC0
FC0FC0
FC0FC0
FC0FFF
FC0FFF
FC0FFF
FC0FC7
FC0FC7
FC0FC7
000FC7
000FC7
000FC7
0001F8
0001F8
0001F8
000E00
000E00
000E00
ENDCHAR
STARTCHAR uni0236
ENCODING 566
SWIDTH 480 0
DWIDTH 29 0
BBX 24 39 3 -6
BITMAP
03F000
03F000
03F000
03F000
03F000
03F000
03F000
03F000
03F000
FFFFC0
FFFFC0
FFFFC0
03F000
03F000
03F000
03F000
03F000
03F000
03F000
03F000
03F000
03F000
03F000
03F000
03F038
03F038
03F038
03FFC7
03FFC7
03FFC7
007E07
007E07
007E07
000FF8
000FF8
000FF8
007000
007000
007000
ENDCHAR
STARTCHAR uni0237
ENCODING 567
SWIDTH 480 0
DWIDTH 29 0
BBX 21 36 6 -12
BITMAP
007FF8
007FF8
007FF8
0001F8
0001F8
0001F8
0001F8
0001F8
0001F8
0001F8
0001F8
0001F8
0001F8
0001F8
0001F8
0001F8
0001F8
0001F8
0001F8
0001F8
0001F8
0001F8
0001F8
0001F8
FC01F8
FC01F8
FC01F8
FC01F8
FC01F8
FC01F8
FC01F8
FC01F8
FC01F8
1FFFC0
1FFFC0
1FFFC0
ENDCHAR
STARTCHAR uni0238
ENCODING 568
SWIDTH 480 0
DWIDTH 29 0
BBX 24 39 3 0
BITMAP
007E00
007E00
007E00
007E00
007E00
007E00
007E00
007E00
007E00
007E00
007E00
007E00
007E00
007E00
007E00
1FFFF8
1FFFF8
1FFFF8
FC7E3F
FC7E3F
FC7E3F
E07E07
E07E07
E07E07
E07E07
E07E07
E07E07
E07E07
E07E07
E07E07
E07E07
E07E07
E07E07
E3FFC7
E3FFC7
E3FFC7
1C7E38
1C7E38
1C7E38
ENDCHAR
STARTCHAR uni0239
ENCODING 569
SWIDTH 480 0
DWIDTH 29 0
BBX 24 36 3 -12
BITMAP
1FFFF8
1FFFF8
1FFFF8
FC7E3F
FC7E3F
FC7E3F
E07E07
E07E07
E07E07
E07E07
E07E07
E07E07
E07E07
E07E07
E07E07
E07E07
E07E07
E07E07
E3FFC7
E3FFC7
E3FFC7
1C7E38
1C7E38
1C7E38
007E00
007E00
007E00
007E00
007E00
007E00
007E00
007E00
007E00
007E00
007E00
007E00
ENDCHAR
STARTCHAR uni023A
ENCODING 570
SWIDTH 480 0
DWIDTH 29 0
BBX 30 36 0 0
BITMAP
000FC01C
000FC01C
000FC01C
007FF8FC
007FF8FC
007FF8FC
03F03FE0
03F03FE0
03F03FE0
03F03F00
03F03F00
03F03F00
1F81FFE0
1F81FFE0
1F81FFE0
1F8FC7E0
1F8FC7E0
1F8FC7E0
1FFE07E0
1FFE07E0
1FFE07E0
1FFFFFE0
1FFFFFE0
1FFFFFE0
1F8007E0
1F8007E0
1F8007E0
FF8007E0
FF8007E0
FF8007E0
FF8007E0
FF8007E0
FF8007E0
1F8007E0
1F8007E0
1F8007E0
ENDCHAR
STARTCHAR uni023B
ENCODING 571
SWIDTH 480 0
DWIDTH 29 0
BBX 30 39 0 0
BITMAP
007FF800
007FF800
007FF800
03F03F1C
03F03F1C
03F03F1C
1F8007FC
1F8007FC
1F8007FC
1F8007E0
1F8007E0
1F8007E0
1F803F00
1F803F00
1F803F00
1F81F800
1F81F800
1F81F800
1F8FC000
1F8FC000
1F8FC000
1FFE0000
1FFE0000
1FFE0000
1FF00000
1FF00000
1FF00000
1F800000
1F800000
1F800000
FF8007E0
FF8007E0
FF8007E0
E3F03F00
E3F03F00
E3F03F00
007FF800
007FF800
007FF800
ENDCHAR
STARTCHAR uni023C
ENCODING 572
SWIDTH 480 0
DWIDTH 29 0
BBX 30 27 0 0
BITMAP
000000FC
000000FC
000000FC
007FFFE0
007FFFE0
007FFFE0
03F03FE0
03F03FE0
03F03FE0
1F81F800
1F81F800
1F81F800
1F8FC000
1F8FC000
1F8FC000
1FFE0000
1FFE0000
1FFE0000
1FF00000
1FF00000
1FF00000
1FF007E0
1FF007E0
1FF007E0
FC7FFF00
FC7FFF00
FC7FFF00
ENDCHAR
STARTCHAR uni023D
ENCODING 573
SWIDTH 480 0
DWIDTH 29 0
BBX 27 39 0 0
BITMAP
1F800000
1F800000
1F800000
1F800000
1F800000
1F800000
1F800000
1F800000
1F800000
1F800000
1F800000
1F800000
1F800000
1F800000
1F800000
1F800000
1F800000
1F800000
FFFE0000
FFFE0000
FFFE0000
1F800000
1F800000
1F800000
1F800000
1F800000
1F800000
1F800000
1F800000
1F800000
1F800000
1F800000
1F800000
1F800000
1F800000
1F800000
1FFFFFE0
1FFFFFE0
1FFFFFE0
ENDCHAR
STARTCHAR uni023E
ENCODING 574
SWIDTH 480 0
DWIDTH 29 0
BBX 24 39 3 0
BITMAP
FFFFFF
FFFFFF
FFFFFF
007E00
007E00
007E00
007E07
007E07
007E07
007E3F
007E3F
007E3F
007FF8
007FF8
007FF8
007FC0
007FC0
007FC0
007E00
007E00
007E00
03FE00
03FE00
03FE00
1FFE00
1FFE00
1FFE00
FC7E00
FC7E00
FC7E00
E07E00
E07E00
E07E00
007E00
007E00
007E00
007E00
007E00
007E00
ENDCHAR
STARTCHAR uni023F
ENCODING 575
SWIDTH 480 0
DWIDTH 29 0
BBX 24 33 3 -9
BITMAP
1FFFF8
1FFFF8
1FFFF8
FC003F
FC003F
FC003F
FC0000
FC0000
FC0000
1FFFF8
1FFFF8
1FFFF8
00003F
00003F
00003F
00003F
00003F
00003F
FC003F
FC003F
FC003F
1FFFF8
1FFFF8
1FFFF8
1F8000
1F8000
1F8000
03FE3F
03FE3F
03FE3F
000FF8
000FF8
000FF8
ENDCHAR
STARTCHAR uni0240
ENCODING 576
SWIDTH 480 0
DWIDTH 29 0
BBX 21 33 6 -9
BITMAP
FFFFF8
FFFFF8
FFFFF8
0001F8
0001F8
0001F8
000FC0
000FC0
000FC0
007E00
007E00
007E00
03F000
03F000
03F000
1F8000
1F8000
1F8000
FC0000
FC0000
FC0000
FC0000
FC0000
FC0000
FC0000
FC0000
FC0000
1FF1F8
1FF1F8
1FF1F8
007FC0
007FC0
007FC0
ENDCHAR
STARTCHAR uni0241
ENCODING 577
SWIDTH 480 0
DWIDTH 29 0
BBX 24 39 3 0
BITMAP
03FFC0
03FFC0
03FFC0
1F81F8
1F81F8
1F81F8
FC003F
FC003F
FC003F
FC003F
FC003F
FC003F
00003F
00003F
00003F
0001F8
0001F8
0001F8
007FC0
007FC0
007FC0
007E00
007E00
007E00
007E00
007E00
007E00
007E00
007E00
007E00
007E00
007E00
007E00
007E00
007E00
007E00
007E00
007E00
007E00
ENDCHAR
STARTCHAR uni0242
ENCODING 578
SWIDTH 480 0
DWIDTH 29 0
BBX 24 24 3 0
BITMAP
03FFC0
03FFC0
03FFC0
1F81F8
1F81F8
1F81F8
FC003F
FC003F
FC003F
FC003F
FC003F
FC003F
0001F8
0001F8
0001F8
007FC0
007FC0
007FC0
007E00
007E00
007E00
007E00
007E00
007E00
ENDCHAR
STARTCHAR uni0243
ENCODING 579
SWIDTH 480 0
DWIDTH 29 0
BBX 30 39 0 0
BITMAP
1FFFC000
1FFFC000
1FFFC000
1F81F81C
1F81F81C
1F81F81C
1F803FFC
1F803FFC
1F803FFC
1F803FE0
1F803FE0
1F803FE0
1F803F00
1F803F00
1F803F00
1F81F800
1F81F800
1F81F800
1FFFF800
1FFFF800
1FFFF800
1FFE3F00
1FFE3F00
1FFE3F00
1FF007E0
1FF007E0
1FF007E0
1F8007E0
1F8007E0
1F8007E0
FF8007E0
FF8007E0
FF8007E0
FF803F00
FF803F00
FF803F00
1FFFF800
1FFFF800
1FFFF800
ENDCHAR
STARTCHAR uni0244
ENCODING 580
SWIDTH 480 0
DWIDTH 29 0
BBX 30 39 0 0
BITMAP
1F8007E0
1F8007E0
1F8007E0
1F8007FC
1F8007FC
1F8007FC
1F8007FC
1F8007FC
1F8007FC
1F8007E0
1F8007E0
1F8007E0
1F803FE0
1F803FE0
1F803FE0
1F81FFE0
1F81FFE0
1F81FFE0
1F8FC7E0
1F8FC7E0
1F8FC7E0
1FFE07E0
1FFE07E0
1FFE07E0
1FF007E0
1FF007E0
1FF007E0
1F8007E0
1F8007E0
1F8007E0
FF8007E0
FF8007E0
FF8007E0
E3F03F00
E3F03F00
E3F03F00
007FF800
007FF800
007FF800
ENDCHAR
STARTCHAR uni0245
ENCODING 581
SWIDTH 480 0
DWIDTH 29 0
BBX 24 39 3 0
BITMAP
007E00
007E00
007E00
007E00
007E00
007E00
007E00
007E00
007E00
03FFC0
03FFC0
03FFC0
03FFC0
03FFC0
03FFC0
03FFC0
03FFC0
03FFC0
1F81F8
1F81F8
1F81F8
1F81F8
1F81F8
1F81F8
1F81F8
1F81F8
1F81F8
FC003F
FC003F
FC003F
FC003F
FC003F
FC003F
FC003F
FC003F
FC003F
FC003F
FC003F
FC003F
ENDCHAR
STARTCHAR uni0246
ENCODING 582
SWIDTH 480 0
DWIDTH 29 0
BBX 30 39 0 0
BITMAP
1FFFFFE0
1FFFFFE0
1FFFFFE0
1F80001C
1F80001C
1F80001C
1F8000FC
1F8000FC
1F8000FC
1F8007E0
1F8007E0
1F8007E0
1F803F00
1F803F00
1F803F00
1F81F800
1F81F800
1F81F800
1FFFFF00
1FFFFF00
1FFFFF00
1FFE0000
1FFE0000
1FFE0000
1FF00000
1FF00000
1FF00000
1F800000
1F800000
1F800000
FF800000
FF800000
FF800000
FF800000
FF800000
FF800000
1FFFFFE0
1FFFFFE0
1FFFFFE0
ENDCHAR
STARTCHAR uni0247
ENCODING 583
SWIDTH 480 0
DWIDTH 29 0
BBX 27 24 0 0
BITMAP
007FFFE0
007FFFE0
007FFFE0
03F03F00
03F03F00
03F03F00
1F81FFE0
1F81FFE0
1F81FFE0
1F8FC7E0
1F8FC7E0
1F8FC7E0
1FFFFFE0
1FFFFFE0
1FFFFFE0
1FF00000
1FF00000
1FF00000
1FF007E0
1FF007E0
1FF007E0
FC7FFF00
FC7FFF00
FC7FFF00
ENDCHAR
STARTCHAR uni0248
ENCODING 584
SWIDTH 480 0
DWIDTH 29 0
BBX 27 39 3 0
BITMAP
007FFFE0
007FFFE0
007FFFE0
0001F800
0001F800
0001F800
0001F800
0001F800
0001F800
0001F800
0001F800
0001F800
0001F800
0001F800
0001F800
0001F800
0001F800
0001F800
007FFFE0
007FFFE0
007FFFE0
0001F800
0001F800
0001F800
0001F800
0001F800
0001F800
FC01F800
FC01F800
FC01F800
FC01F800
FC01F800
FC01F800
1F8FC000
1F8FC000
1F8FC000
03FE0000
03FE0000
03FE0000
ENDCHAR
STARTCHAR uni0249
ENCODING 585
SWIDTH 480 0
DWIDTH 29 0
BBX 24 45 6 -12
BITMAP
0001F8
0001F8
0001F8
0001F8
0001F8
0001F8
000000
000000
000000
007FF8
007FF8
007FF8
0001F8
0001F8
0001F8
0001F8
0001F8
0001F8
007FFF
007FFF
007FFF
0001F8
0001F8
0001F8
0001F8
0001F8
0001F8
0001F8
0001F8
0001F8
0001F8
0001F8
0001F8
FC01F8
FC01F8
FC01F8
FC01F8
FC01F8
FC01F8
FC01F8
FC01F8
FC01F8
1FFFC0
1FFFC0
1FFFC0
ENDCHAR
STARTCHAR uni024A
ENCODING 586
SWIDTH 480 0
DWIDTH 29 0
BBX 27 51 3 -12
BITMAP
03FFC700
03FFC700
03FFC700
1F81FF00
1F81FF00
1F81FF00
FC003F00
FC003F00
FC003F00
FC003F00
FC003F00
FC003F00
FC003F00
FC003F00
FC003F00
FC003F00
FC003F00
FC003F00
FC003F00
FC003F00
FC003F00
FC003F00
FC003F00
FC003F00
FC003F00
FC003F00
FC003F00
FC003F00
FC003F00
FC003F00
FC003F00
FC003F00
FC003F00
1F81FF00
1F81FF00
1F81FF00
03FFFF00
03FFFF00
03FFFF00
00003F00
00003F00
00003F00
00003F00
00003F00
00003F00
00003F00
00003F00
00003F00
000007E0
000007E0
000007E0
ENDCHAR
STARTCHAR uni024B
ENCODING 587
SWIDTH 480 0
DWIDTH 29 0
BBX 27 36 3 -12
BITMAP
03FE3F00
03FE3F00
03FE3F00
1F81FF00
1F81FF00
1F81FF00
FC003F00
FC003F00
FC003F00
FC003F00
FC003F00
FC003F00
FC003F00
FC003F00
FC003F00
FC003F00
FC003F00
FC003F00
1F81FF00
1F81FF00
1F81FF00
03FE3F00
03FE3F00
03FE3F00
00003F00
00003F00
00003F00
00003F00
00003F00
00003F00
00003F00
00003F00
00003F00
000007E0
000007E0
000007E0
ENDCHAR
STARTCHAR uni024C
ENCODING 588
SWIDTH 480 0
DWIDTH 29 0
BBX 27 39 0 0
BITMAP
1FFFF800
1FFFF800
1FFFF800
1F803F00
1F803F00
1F803F00
1F8007E0
1F8007E0
1F8007E0
1F8007E0
1F8007E0
1F8007E0
1F8007E0
1F8007E0
1F8007E0
1F8007E0
1F8007E0
1F8007E0
1F803F00
1F803F00
1F803F00
FFFFF800
FFFFF800
FFFFF800
1F81F800
1F81F800
1F81F800
1F803F00
1F803F00
1F803F00
1F803F00
1F803F00
1F803F00
1F8007E0
1F8007E0
1F8007E0
1F8007E0
1F8007E0
1F8007E0
ENDCHAR
STARTCHAR uni024D
ENCODING 589
SWIDTH 480 0
DWIDTH 29 0
BBX 24 24 3 0
BITMAP
FC7FF8
FC7FF8
FC7FF8
1FF03F
1FF03F
1FF03F
1F8000
1F8000
1F8000
FFFE00
FFFE00
FFFE00
1F8000
1F8000
1F8000
1F8000
1F8000
1F8000
1F8000
1F8000
1F8000
1F8000
1F8000
1F8000
ENDCHAR
STARTCHAR uni024E
ENCODING 590
SWIDTH 480 0
DWIDTH 29 0
BBX 30 39 0 0
BITMAP
1F8007E0
1F8007E0
1F8007E0
1F8007E0
1F8007E0
1F8007E0
FFFFFFFC
FFFFFFFC
FFFFFFFC
03F03F00
03F03F00
03F03F00
007FF800
007FF800
007FF800
007FF800
007FF800
007FF800
000FC000
000FC000
000FC000
000FC000
000FC000
000FC000
000FC000
000FC000
000FC000
000FC000
000FC000
000FC000
000FC000
000FC000
000FC000
000FC000
000FC000
000FC000
000FC000
000FC000
000FC000
ENDCHAR
STARTCHAR uni024F
ENCODING 591
SWIDTH 480 0
DWIDTH 29 0
BBX 30 36 0 -12
BITMAP
1F8007E0
1F8007E0
1F8007E0
1F8007E0
1F8007E0
1F8007E0
1F8007E0
1F8007E0
1F8007E0
FFFFFFFC
FFFFFFFC
FFFFFFFC
1F8007E0
1F8007E0
1F8007E0
1F8007E0
1F8007E0
1F8007E0
03F03FE0
03F03FE0
03F03FE0
007FC7E0
007FC7E0
007FC7E0
000007E0
000007E0
000007E0
1F8007E0
1F8007E0
1F8007E0
03F03F00
03F03F00
03F03F00
007FF800
007FF800
007FF800
ENDCHAR
STARTCHAR uni0250
ENCODING 592
SWIDTH 480 0
DWIDTH 29 0
BBX 24 24 3 0
BITMAP
E3FFF8
E3FFF8
E3FFF8
FC003F
FC003F
FC003F
FC003F
FC003F
FC003F
FC003F
FC003F
FC003F
FFFFF8
FFFFF8
FFFFF8
FC0000
FC0000
FC0000
FC01F8
FC01F8
FC01F8
1FFFC0
1FFFC0
1FFFC0
ENDCHAR
STARTCHAR uni0251
ENCODING 593
SWIDTH 480 0
DWIDTH 29 0
BBX 24 24 3 0
BITMAP
03FFF8
03FFF8
03FFF8
1F8FF8
1F8FF8
1F8FF8
FC01F8
FC01F8
FC01F8
FC01F8
FC01F8
FC01F8
FC01F8
FC01F8
FC01F8
FC01F8
FC01F8
FC01F8
1F8FF8
1F8FF8
1F8FF8
03FE3F
03FE3F
03FE3F
ENDCHAR
STARTCHAR uni0252
ENCODING 594
SWIDTH 480 0
DWIDTH 29 0
BBX 24 24 3 0
BITMAP
FC7FC0
FC7FC0
FC7FC0
1FF1F8
1FF1F8
1FF1F8
1F803F
1F803F
1F803F
1F803F
1F803F
1F803F
1F803F
1F803F
1F803F
1F803F
1F803F
1F803F
1FF1F8
1FF1F8
1FF1F8
1FFFC0
1FFFC0
1FFFC0
ENDCHAR
STARTCHAR uni0253
ENCODING 595
SWIDTH 480 0
DWIDTH 29 0
BBX 24 39 3 0
BITMAP
03FFC0
03FFC0
03FFC0
1F8000
1F8000
1F8000
FC0000
FC0000
FC0000
FC0000
FC0000
FC0000
FC0000
FC0000
FC0000
FC7FC0
FC7FC0
FC7FC0
FF81F8
FF81F8
FF81F8
FC003F
FC003F
FC003F
FC003F
FC003F
FC003F
FC003F
FC003F
FC003F
FC003F
FC003F
FC003F
FF81F8
FF81F8
FF81F8
FC7FC0
FC7FC0
FC7FC0
ENDCHAR
STARTCHAR uni0254
ENCODING 596
SWIDTH 480 0
DWIDTH 29 0
BBX 24 24 3 0
BITMAP
1FFFC0
1FFFC0
1FFFC0
FC01F8
FC01F8
FC01F8
00003F
00003F
00003F
00003F
00003F
00003F
00003F
00003F
00003F
00003F
00003F
00003F
FC01F8
FC01F8
FC01F8
1FFFC0
1FFFC0
1FFFC0
ENDCHAR
STARTCHAR uni0255
ENCODING 597
SWIDTH 480 0
DWIDTH 29 0
BBX 24 30 3 -6
BITMAP
03FFF8
03FFF8
03FFF8
1F803F
1F803F
1F803F
FC0000
FC0000
FC0000
FC0000
FC0000
FC0000
FC01F8
FC01F8
FC01F8
FC0E3F
FC0E3F
FC0E3F
1F8E3F
1F8E3F
1F8E3F
03FFF8
03FFF8
03FFF8
007000
007000
007000
007000
007000
007000
ENDCHAR
STARTCHAR uni0256
ENCODING 598
SWIDTH 480 0
DWIDTH 29 0
BBX 27 48 3 -9
BITMAP
00003F00
00003F00
00003F00
00003F00
00003F00
00003F00
00003F00
00003F00
00003F00
00003F00
00003F00
00003F00
00003F00
00003F00
00003F00
03FE3F00
03FE3F00
03FE3F00
1F81FF00
1F81FF00
1F81FF00
FC003F00
FC003F00
FC003F00
FC003F00
FC003F00
FC003F00
FC003F00
FC003F00
FC003F00
FC003F00
FC003F00
FC003F00
1F81FF00
1F81FF00
1F81FF00
03FE3F00
03FE3F00
03FE3F00
00003F00
00003F00
00003F00
00003F00
00003F00
00003F00
000007E0
000007E0
000007E0
ENDCHAR
STARTCHAR uni0257
ENCODING 599
SWIDTH 480 0
DWIDTH 29 0
BBX 27 42 3 0
BITMAP
00003FE0
00003FE0
00003FE0
0001F800
0001F800
0001F800
0001F800
0001F800
0001F800
0001F800
0001F800
0001F800
0001F800
0001F800
0001F800
0001F800
0001F800
0001F800
03F1F800
03F1F800
03F1F800
1F8FF800
1F8FF800
1F8FF800
FC01F800
FC01F800
FC01F800
FC01F800
FC01F800
FC01F800
FC01F800
FC01F800
FC01F800
FC01F800
FC01F800
FC01F800
1F8FF800
1F8FF800
1F8FF800
03F1F800
03F1F800
03F1F800
ENDCHAR
STARTCHAR uni0258
ENCODING 600
SWIDTH 480 0
DWIDTH 29 0
BBX 24 24 3 0
BITMAP
03FFC0
03FFC0
03FFC0
1F81F8
1F81F8
1F81F8
FC003F
FC003F
FC003F
FFFFFF
FFFFFF
FFFFFF
00003F
00003F
00003F
00003F
00003F
00003F
FC01F8
FC01F8
FC01F8
1FFFC0
1FFFC0
1FFFC0
ENDCHAR
STARTCHAR uni0259
ENCODING 601
SWIDTH 480 0
DWIDTH 29 0
BBX 24 24 3 0
BITMAP
1FFFC0
1FFFC0
1FFFC0
FC01F8
FC01F8
FC01F8
00003F
00003F
00003F
00003F
00003F
00003F
FFFFFF
FFFFFF
FFFFFF
FC003F
FC003F
FC003F
1F81F8
1F81F8
1F81F8
03FFC0
03FFC0
03FFC0
ENDCHAR
STARTCHAR uni025A
ENCODING 602
SWIDTH 480 0
DWIDTH 29 0
BBX 27 24 3 0
BITMAP
1FFE0000
1FFE0000
1FFE0000
FC0FC7E0
FC0FC7E0
FC0FC7E0
0001F8E0
0001F8E0
0001F8E0
007FF800
007FF800
007FF800
FF81F800
FF81F800
FF81F800
FC01F800
FC01F800
FC01F800
1F8FC000
1F8FC000
1F8FC000
03FE0000
03FE0000
03FE0000
ENDCHAR
STARTCHAR uni025B
ENCODING 603
SWIDTH 480 0
DWIDTH 29 0
BBX 24 24 3 0
BITMAP
1FFFF8
1FFFF8
1FFFF8
FC003F
FC003F
FC003F
FC0000
FC0000
FC0000
1FFE00
1FFE00
1FFE00
FC0000
FC0000
FC0000
FC0000
FC0000
FC0000
FC003F
FC003F
FC003F
1FFFF8
1FFFF8
1FFFF8
ENDCHAR
STARTCHAR uni025C
ENCODING 604
SWIDTH 480 0
DWIDTH 29 0
BBX 24 24 3 0
BITMAP
1FFFF8
1FFFF8
1FFFF8
FC003F
FC003F
FC003F
00003F
00003F
00003F
007FF8
007FF8
007FF8
00003F
00003F
00003F
00003F
00003F
00003F
FC003F
FC003F
FC003F
1FFFF8
1FFFF8
1FFFF8
ENDCHAR
STARTCHAR uni025D
ENCODING 605
SWIDTH 480 0
DWIDTH 29 0
BBX 27 24 3 0
BITMAP
1FFE0000
1FFE0000
1FFE0000
FC0FF8E0
FC0FF8E0
FC0FF8E0
000FC700
000FC700
000FC700
03FE0000
03FE0000
03FE0000
000FC000
000FC000
000FC000
000FC000
000FC000
000FC000
FC0FC000
FC0FC000
FC0FC000
1FFE0000
1FFE0000
1FFE0000
ENDCHAR
STARTCHAR uni025E
ENCODING 606
SWIDTH 480 0
DWIDTH 29 0
BBX 24 24 3 0
BITMAP
1FFFF8
1FFFF8
1FFFF8
FC003F
FC003F
FC003F
FC003F
FC003F
FC003F
FC0FF8
FC0FF8
FC0FF8
FC003F
FC003F
FC003F
FC003F
FC003F
FC003F
FC003F
FC003F
FC003F
1FFFF8
1FFFF8
1FFFF8
ENDCHAR
STARTCHAR uni025F
ENCODING 607
SWIDTH 480 0
DWIDTH 29 0
BBX 24 36 3 -12
BITMAP
000FC0
000FC0
000FC0
000FC0
000FC0
000FC0
000FC0
000FC0
000FC0
000FC0
000FC0
000FC0
000FC0
000FC0
000FC0
000FC0
000FC0
000FC0
03FFFF
03FFFF
03FFFF
000FC0
000FC0
000FC0
000FC0
000FC0
000FC0
FC0FC0
FC0FC0
FC0FC0
FC0FC0
FC0FC0
FC0FC0
1FFE00
1FFE00
1FFE00
ENDCHAR
STARTCHAR uni0260
ENCODING 608
SWIDTH 480 0
DWIDTH 29 0
BBX 27 45 3 -12
BITMAP
000007E0
000007E0
000007E0
00003F00
00003F00
00003F00
00003F00
00003F00
00003F00
03FE3F00
03FE3F00
03FE3F00
1F81FF00
1F81FF00
1F81FF00
FC003F00
FC003F00
FC003F00
FC003F00
FC003F00
FC003F00
FC003F00
FC003F00
FC003F00
FC003F00
FC003F00
FC003F00
1F81FF00
1F81FF00
1F81FF00
03FE3F00
03FE3F00
03FE3F00
00003F00
00003F00
00003F00
FC003F00
FC003F00
FC003F00
1F81F800
1F81F800
1F81F800
03FFC000
03FFC000
03FFC000
ENDCHAR
STARTCHAR uni0261
ENCODING 609
SWIDTH 480 0
DWIDTH 29 0
BBX 24 36 3 -12
BITMAP
03FE3F
03FE3F
03FE3F
1F81FF
1F81FF
1F81FF
FC003F
FC003F
FC003F
FC003F
FC003F
FC003F
FC003F
FC003F
FC003F
FC003F
FC003F
FC003F
1F81FF
1F81FF
1F81FF
03FE3F
03FE3F
03FE3F
00003F
00003F
00003F
FC003F
FC003F
FC003F
1F81F8
1F81F8
1F81F8
03FFC0
03FFC0
03FFC0
ENDCHAR
STARTCHAR uni0262
ENCODING 610
SWIDTH 480 0
DWIDTH 29 0
BBX 24 24 3 0
BITMAP
03FFC0
03FFC0
03FFC0
1F81F8
1F81F8
1F81F8
FC003F
FC003F
FC003F
FC0000
FC0000
FC0000
FC0FFF
FC0FFF
FC0FFF
FC003F
FC003F
FC003F
1F81FF
1F81FF
1F81FF
03FFC7
03FFC7
03FFC7
ENDCHAR
STARTCHAR uni0263
ENCODING 611
SWIDTH 480 0
DWIDTH 29 0
BBX 24 33 3 -9
BITMAP
FC003F
FC003F
FC003F
FC003F
FC003F
FC003F
1F81F8
1F81F8
1F81F8
1F81F8
1F81F8
1F81F8
03FFC0
03FFC0
03FFC0
03FFC0
03FFC0
03FFC0
007E00
007E00
007E00
03FFC0
03FFC0
03FFC0
1F81F8
1F81F8
1F81F8
1F81F8
1F81F8
1F81F8
03FFC0
03FFC0
03FFC0
ENDCHAR
STARTCHAR uni0264
ENCODING 612
SWIDTH 480 0
DWIDTH 29 0
BBX 21 24 3 0
BITMAP
FC01F8
FC01F8
FC01F8
1F8FC0
1F8FC0
1F8FC0
03FE00
03FE00
03FE00
03FE00
03FE00
03FE00
03FE00
03FE00
03FE00
1F8FC0
1F8FC0
1F8FC0
1F8FC0
1F8FC0
1F8FC0
03FE00
03FE00
03FE00
ENDCHAR
STARTCHAR uni0265
ENCODING 613
SWIDTH 480 0
DWIDTH 29 0
BBX 24 36 3 -12
BITMAP
FC003F
FC003F
FC003F
FC003F
FC003F
FC003F
FC003F
FC003F
FC003F
FC003F
FC003F
FC003F
FC003F
FC003F
FC003F
FC003F
FC003F
FC003F
1F81FF
1F81FF
1F81FF
03FE3F
03FE3F
03FE3F
00003F
00003F
00003F
00003F
00003F
00003F
00003F
00003F
00003F
00003F
00003F
00003F
ENDCHAR
STARTCHAR uni0266
ENCODING 614
SWIDTH 480 0
DWIDTH 29 0
BBX 24 39 3 0
BITMAP
03FFC0
03FFC0
03FFC0
1F81F8
1F81F8
1F81F8
FC0000
FC0000
FC0000
FC0000
FC0000
FC0000
FC0000
FC0000
FC0000
FC7FC0
FC7FC0
FC7FC0
FF81F8
FF81F8
FF81F8
FC003F
FC003F
FC003F
FC003F
FC003F
FC003F
FC003F
FC003F
FC003F
FC003F
FC003F
FC003F
FC003F
FC003F
FC003F
FC003F
FC003F
FC003F
ENDCHAR
STARTCHAR uni0267
ENCODING 615
SWIDTH 480 0
DWIDTH 29 0
BBX 24 51 3 -12
BITMAP
03FFC0
03FFC0
03FFC0
1F81F8
1F81F8
1F81F8
FC0000
FC0000
FC0000
FC0000
FC0000
FC0000
FC0000
FC0000
FC0000
FC7FC0
FC7FC0
FC7FC0
FF81F8
FF81F8
FF81F8
FC003F
FC003F
FC003F
FC003F
FC003F
FC003F
FC003F
FC003F
FC003F
FC003F
FC003F
FC003F
FC003F
FC003F
FC003F
FC003F
FC003F
FC003F
00003F
00003F
00003F
00003F
00003F
00003F
00003F
00003F
00003F
0001F8
0001F8
0001F8
ENDCHAR
ENDFONT
